SplineFontDB: 3.0
FontName: Exo-Thin
FullName: Exo Thin
FamilyName: Exo
Weight: Thin
Copyright: Copyright (c) 2011 Natanael Gama (exo@ndiscovered.com), with Reserved Font Name "Exo"
Version: 1.00
ItalicAngle: 0
UnderlinePosition: -100
UnderlineWidth: 50
Ascent: 800
Descent: 200
sfntRevision: 0x00010000
LayerCount: 2
Layer: 0 1 "Back"  1
Layer: 1 1 "Fore"  0
XUID: [1021 467 165038652 12965441]
FSType: 0
OS2Version: 4
OS2_WeightWidthSlopeOnly: 0
OS2_UseTypoMetrics: 1
CreationTime: 1265665101
ModificationTime: 1328305027
PfmFamily: 17
TTFWeight: 100
TTFWidth: 5
LineGap: 0
VLineGap: 0
Panose: 2 0 2 3 0 0 0 0 0 0
OS2TypoAscent: 202
OS2TypoAOffset: 1
OS2TypoDescent: -127
OS2TypoDOffset: 1
OS2TypoLinegap: 0
OS2WinAscent: 0
OS2WinAOffset: 1
OS2WinDescent: 54
OS2WinDOffset: 1
HheadAscent: 0
HheadAOffset: 1
HheadDescent: -54
HheadDOffset: 1
OS2SubXSize: 650
OS2SubYSize: 700
OS2SubXOff: 0
OS2SubYOff: 140
OS2SupXSize: 650
OS2SupYSize: 700
OS2SupXOff: 0
OS2SupYOff: 480
OS2StrikeYSize: 49
OS2StrikeYPos: 258
OS2Vendor: 'PfEd'
OS2CodePages: 20000093.00000000
OS2UnicodeRanges: a00000ef.4000204b.00000000.00000000
Lookup: 4 0 0 "'ordn' Ordinals lookup 0"  {"'ordn' Ordinals lookup 0 subtable"  } ['ordn' ('DFLT' <'dflt' > 'grek' <'dflt' > 'latn' <'dflt' > ) ]
Lookup: 1 0 0 "'smcp' Lowercase to Small Capitals lookup 1"  {"'smcp' Lowercase to Small Capitals lookup 1 subtable"  } ['smcp' ('DFLT' <'dflt' > 'grek' <'dflt' > 'latn' <'FRA ' 'dflt' > ) ]
Lookup: 1 0 0 "'c2sc' Capitals to Small Capitals in Latin lookup 2"  {"'c2sc' Capitals to Small Capitals in Latin lookup 2 subtable"  } ['c2sc' ('latn' <'dflt' > ) ]
Lookup: 4 0 0 "'dlig' Discretionary Ligatures lookup 3"  {"'dlig' Discretionary Ligatures lookup 3 subtable"  } ['dlig' ('DFLT' <'dflt' > 'grek' <'dflt' > 'latn' <'dflt' > ) ]
Lookup: 4 0 1 "'liga' Standard Ligatures lookup 4"  {"'liga' Standard Ligatures lookup 4 subtable"  } ['liga' ('DFLT' <'dflt' > 'grek' <'dflt' > 'latn' <'FRA ' 'dflt' > ) ]

StartChar: .notdef
Encoding: 0 -1 0
AltUni2: 000000.ffffffff.0
Width: 798
Flags: W
LayerCount: 2
Fore
SplineSet
664 506 m 1,0,-1
 412 266 l 1,1,-1
 664 25 l 1,2,-1
 664 506 l 1,0,-1
147 13 m 1,3,-1
 654 13 l 1,4,-1
 401 256 l 1,5,-1
 147 13 l 1,3,-1
134 22 m 1,6,-1
 390 266 l 1,7,-1
 134 507 l 1,8,-1
 134 22 l 1,6,-1
655 518 m 1,9,-1
 144 518 l 1,10,-1
 401 276 l 1,11,-1
 655 518 l 1,9,-1
120 0 m 1,12,-1
 120 531 l 1,13,-1
 678 531 l 1,14,-1
 678 0 l 1,15,-1
 120 0 l 1,12,-1
EndSplineSet
EndChar

StartChar: exclam
Encoding: 33 33 4
Width: 260
GlyphClass: 2
Flags: W
LayerCount: 2
Fore
SplineSet
111 12 m 2,0,-1
 111 74 l 2,1,2
 111 86 111 86 123 86 c 2,3,-1
 134 86 l 2,4,5
 146 86 146 86 146 74 c 2,6,-1
 146 12 l 2,7,8
 146 0 146 0 134 0 c 2,9,-1
 123 0 l 2,10,11
 111 0 111 0 111 12 c 2,0,-1
117 731 m 1,12,-1
 139 731 l 1,13,-1
 134 196 l 1,14,-1
 122 196 l 1,15,-1
 117 731 l 1,12,-1
EndSplineSet
Substitution2: "'smcp' Lowercase to Small Capitals lookup 1 subtable" exclam.smcp
EndChar

StartChar: quotedbl
Encoding: 34 34 5
Width: 262
GlyphClass: 2
Flags: W
LayerCount: 2
Fore
SplineSet
69 732 m 1,0,-1
 94 732 l 1,1,-1
 94 665 l 1,2,-1
 88 531 l 1,3,-1
 76 531 l 1,4,-1
 69 665 l 1,5,-1
 69 732 l 1,0,-1
169 732 m 1,6,-1
 194 732 l 1,7,-1
 194 665 l 1,8,-1
 188 531 l 1,9,-1
 176 531 l 1,10,-1
 169 665 l 1,11,-1
 169 732 l 1,6,-1
EndSplineSet
Substitution2: "'smcp' Lowercase to Small Capitals lookup 1 subtable" quotedbl.smcp
EndChar

StartChar: numbersign
Encoding: 35 35 6
Width: 654
GlyphClass: 2
Flags: W
LayerCount: 2
Fore
SplineSet
27 250 m 1,0,-1
 29 262 l 1,1,-1
 208 262 l 1,2,-1
 240 467 l 1,3,-1
 61 467 l 1,4,-1
 64 479 l 1,5,-1
 242 479 l 1,6,-1
 283 732 l 1,7,-1
 295 732 l 1,8,-1
 254 479 l 1,9,-1
 440 479 l 1,10,-1
 480 732 l 1,11,-1
 492 732 l 1,12,-1
 452 479 l 1,13,-1
 629 479 l 1,14,-1
 627 467 l 1,15,-1
 449 467 l 1,16,-1
 417 261 l 1,17,-1
 594 261 l 1,18,-1
 592 249 l 1,19,-1
 415 249 l 1,20,-1
 376 0 l 1,21,-1
 364 0 l 1,22,-1
 403 249 l 1,23,-1
 217 250 l 1,24,-1
 178 0 l 1,25,-1
 166 0 l 1,26,-1
 205 250 l 1,27,-1
 27 250 l 1,0,-1
220 262 m 1,28,-1
 405 261 l 1,29,-1
 437 467 l 1,30,-1
 252 467 l 1,31,-1
 220 262 l 1,28,-1
EndSplineSet
Substitution2: "'smcp' Lowercase to Small Capitals lookup 1 subtable" numbersign.smcp
EndChar

StartChar: dollar
Encoding: 36 36 7
Width: 585
GlyphClass: 2
Flags: W
LayerCount: 2
Fore
SplineSet
74 494 m 2,0,-1
 74 560 l 2,1,2
 74 666 74 666 125.5 702 c 128,-1,3
 177 738 177 738 268 738 c 0,4,5
 275 738 275 738 283 738 c 1,6,-1
 283 824 l 1,7,-1
 301 824 l 1,8,-1
 301 737 l 1,9,10
 390 732 390 732 479 719 c 1,11,-1
 479 706 l 1,12,-1
 267 714 l 2,13,14
 260 714 260 714 253 714 c 0,15,16
 180 714 180 714 139 682 c 128,-1,17
 98 650 98 650 98 560 c 2,18,-1
 98 494 l 2,19,20
 98 423 98 423 134.5 397 c 128,-1,21
 171 371 171 371 245 371 c 2,22,-1
 349 371 l 2,23,24
 441 371 441 371 476 332.5 c 128,-1,25
 511 294 511 294 511 224 c 2,26,-1
 511 156 l 2,27,28
 511 36 511 36 421 6 c 0,29,30
 376 -8 376 -8 318 -8 c 0,31,32
 310 -8 310 -8 301 -8 c 1,33,-1
 301 -88 l 1,34,-1
 283 -88 l 1,35,-1
 283 -7 l 1,36,37
 143 -2 143 -2 92 7 c 1,38,-1
 92 22 l 1,39,40
 158 16 158 16 317 16 c 0,41,42
 399 16 399 16 443 45.5 c 128,-1,43
 487 75 487 75 487 156 c 2,44,-1
 487 224 l 2,45,46
 487 289 487 289 455 318 c 128,-1,47
 423 347 423 347 349 347 c 2,48,-1
 247 347 l 2,49,50
 123 347 123 347 90 412 c 0,51,52
 74 445 74 445 74 494 c 2,0,-1
EndSplineSet
Substitution2: "'smcp' Lowercase to Small Capitals lookup 1 subtable" dollar.smcp
EndChar

StartChar: percent
Encoding: 37 37 8
Width: 954
GlyphClass: 2
Flags: W
LayerCount: 2
Fore
SplineSet
57 474 m 2,0,-1
 57 607 l 2,1,2
 57 673 57 673 85 702.5 c 128,-1,3
 113 732 113 732 186 732 c 2,4,-1
 287 732 l 2,5,6
 358 732 358 732 386 702.5 c 128,-1,7
 414 673 414 673 414 607 c 2,8,-1
 414 474 l 2,9,10
 414 408 414 408 386 378.5 c 128,-1,11
 358 349 358 349 285 349 c 2,12,-1
 184 349 l 2,13,14
 113 349 113 349 85 378.5 c 128,-1,15
 57 408 57 408 57 474 c 2,0,-1
72 474 m 2,16,17
 72 411 72 411 98 387.5 c 128,-1,18
 124 364 124 364 184 364 c 2,19,-1
 285 364 l 2,20,21
 346 364 346 364 372.5 387 c 128,-1,22
 399 410 399 410 399 474 c 2,23,-1
 399 607 l 2,24,25
 399 667 399 667 374.5 692 c 128,-1,26
 350 717 350 717 287 717 c 2,27,-1
 186 717 l 2,28,29
 124 717 124 717 98 694 c 128,-1,30
 72 671 72 671 72 607 c 2,31,-1
 72 474 l 2,16,17
242 0 m 1,32,-1
 680 732 l 1,33,-1
 701 732 l 1,34,-1
 263 0 l 1,35,-1
 242 0 l 1,32,-1
541 128 m 2,36,-1
 541 261 l 2,37,38
 541 327 541 327 569 356.5 c 128,-1,39
 597 386 597 386 670 386 c 2,40,-1
 771 386 l 2,41,42
 842 386 842 386 870 356.5 c 128,-1,43
 898 327 898 327 898 261 c 2,44,-1
 898 128 l 2,45,46
 898 62 898 62 870 32.5 c 128,-1,47
 842 3 842 3 769 3 c 2,48,-1
 668 3 l 2,49,50
 597 3 597 3 569 32.5 c 128,-1,51
 541 62 541 62 541 128 c 2,36,-1
556 128 m 2,52,53
 556 65 556 65 582 41.5 c 128,-1,54
 608 18 608 18 668 18 c 2,55,-1
 769 18 l 2,56,57
 830 18 830 18 856.5 41 c 128,-1,58
 883 64 883 64 883 128 c 2,59,-1
 883 261 l 2,60,61
 883 321 883 321 858.5 346 c 128,-1,62
 834 371 834 371 771 371 c 2,63,-1
 670 371 l 2,64,65
 608 371 608 371 582 348 c 128,-1,66
 556 325 556 325 556 261 c 2,67,-1
 556 128 l 2,52,53
EndSplineSet
Substitution2: "'smcp' Lowercase to Small Capitals lookup 1 subtable" percent.smcp
EndChar

StartChar: ampersand
Encoding: 38 38 9
Width: 653
GlyphClass: 2
Flags: W
LayerCount: 2
Fore
SplineSet
45 207 m 0,0,1
 45 296 45 296 127 366 c 2,2,-1
 213 439 l 1,3,-1
 150 524 l 2,4,5
 115 570 115 570 115 608 c 0,6,7
 115 656 115 656 147 685.5 c 128,-1,8
 179 715 179 715 215 724 c 128,-1,9
 251 733 251 733 316.5 733 c 128,-1,10
 382 733 382 733 486 724 c 1,11,-1
 486 710 l 1,12,-1
 283 710 l 2,13,14
 233 710 233 710 194 690 c 128,-1,15
 155 670 155 670 142 632 c 0,16,17
 139 623 139 623 139 613 c 0,18,19
 139 581 139 581 170 538 c 2,20,-1
 459 146 l 1,21,-1
 613 295 l 1,22,-1
 622 287 l 1,23,-1
 553 201 l 1,24,-1
 475 127 l 1,25,-1
 569 0 l 1,26,-1
 538 0 l 1,27,-1
 456 111 l 1,28,-1
 384 44 l 1,29,30
 333 -6 333 -6 262 -6 c 0,31,32
 159 -6 159 -6 91 82 c 1,33,34
 45 145 45 145 45 207 c 0,0,1
261 18 m 0,35,36
 318 18 318 18 365 60 c 1,37,-1
 440 130 l 1,38,-1
 227 418 l 1,39,-1
 149 353 l 2,40,41
 69 287 69 287 69 207 c 0,42,43
 69 152 69 152 113.5 92.5 c 128,-1,44
 158 33 158 33 232 20 c 0,45,46
 247 18 247 18 261 18 c 0,35,36
EndSplineSet
AlternateSubs2: "'salt' Stylistic Alternatives in Latin lookup 16 subtable" ampersand.salt
Substitution2: "'smcp' Lowercase to Small Capitals lookup 1 subtable" ampersand.smcp
EndChar

StartChar: quotesingle
Encoding: 39 39 10
Width: 113
GlyphClass: 2
Flags: W
LayerCount: 2
Fore
SplineSet
44 732 m 1,0,-1
 69 732 l 1,1,-1
 69 665 l 1,2,-1
 63 531 l 1,3,-1
 51 531 l 1,4,-1
 44 665 l 1,5,-1
 44 732 l 1,0,-1
EndSplineSet
Substitution2: "'smcp' Lowercase to Small Capitals lookup 1 subtable" quotesingle.smcp
EndChar

StartChar: parenleft
Encoding: 40 40 11
Width: 315
GlyphClass: 2
Flags: W
LayerCount: 2
Fore
SplineSet
118 149 m 128,-1,1
 101 238 101 238 101 320.5 c 128,-1,2
 101 403 101 403 117.5 486 c 128,-1,3
 134 569 134 569 157 633 c 0,4,5
 204 762 204 762 244 832 c 2,6,-1
 260 860 l 1,7,-1
 287 860 l 1,8,9
 268 830 268 830 235.5 760.5 c 128,-1,10
 203 691 203 691 181.5 631 c 128,-1,11
 160 571 160 571 142.5 486.5 c 128,-1,12
 125 402 125 402 125 322 c 128,-1,13
 125 242 125 242 142 156 c 128,-1,14
 159 70 159 70 182 7 c 0,15,16
 231 -123 231 -123 271 -184 c 2,17,-1
 288 -210 l 1,18,-1
 260 -210 l 1,19,-1
 243 -184 l 2,20,21
 232 -168 232 -168 204.5 -113 c 128,-1,22
 177 -58 177 -58 156 1 c 128,-1,0
 135 60 135 60 118 149 c 128,-1,1
EndSplineSet
Substitution2: "'case' Case-Sensitive Forms lookup 18 subtable" parenleft.alt
Substitution2: "'c2sc' Capitals to Small Capitals in Latin lookup 2 subtable" parenleft.smcp
Substitution2: "'smcp' Lowercase to Small Capitals lookup 1 subtable" parenleft.smcp
EndChar

StartChar: parenright
Encoding: 41 41 12
Width: 314
GlyphClass: 2
Flags: W
LayerCount: 2
Fore
SplineSet
171.5 154.5 m 128,-1,1
 189 242 189 242 189 322 c 128,-1,2
 189 402 189 402 172.5 485 c 128,-1,3
 156 568 156 568 132 632 c 0,4,5
 82 764 82 764 44 832 c 1,6,-1
 27 860 l 1,7,-1
 54 860 l 1,8,9
 60 849 60 849 71 830 c 128,-1,10
 82 811 82 811 109.5 751.5 c 128,-1,11
 137 692 137 692 158 632 c 128,-1,12
 179 572 179 572 196 487.5 c 128,-1,13
 213 403 213 403 213 320.5 c 128,-1,14
 213 238 213 238 196.5 150 c 128,-1,15
 180 62 180 62 157 0 c 0,16,17
 110 -127 110 -127 70 -186 c 2,18,-1
 54 -210 l 1,19,-1
 27 -210 l 1,20,21
 47 -182 47 -182 79 -116.5 c 128,-1,22
 111 -51 111 -51 132.5 8 c 128,-1,0
 154 67 154 67 171.5 154.5 c 128,-1,1
EndSplineSet
Substitution2: "'case' Case-Sensitive Forms lookup 18 subtable" parenright.alt
Substitution2: "'c2sc' Capitals to Small Capitals in Latin lookup 2 subtable" parenright.smcp
Substitution2: "'smcp' Lowercase to Small Capitals lookup 1 subtable" parenright.smcp
EndChar

StartChar: asterisk
Encoding: 42 42 13
Width: 469
GlyphClass: 2
Flags: W
LayerCount: 2
Fore
SplineSet
68 592 m 1,0,-1
 68 606 l 1,1,-1
 210 610 l 1,2,-1
 210 586 l 1,3,-1
 68 592 l 1,0,-1
148 409 m 1,4,-1
 181 543 l 1,5,-1
 207 539 l 1,6,-1
 161 405 l 1,7,-1
 148 409 l 1,4,-1
206 723 m 1,8,-1
 219 727 l 1,9,-1
 286 604 l 1,10,-1
 262 593 l 1,11,-1
 206 723 l 1,8,-1
239 495 m 1,12,-1
 251 518 l 1,13,-1
 369 435 l 1,14,-1
 361 424 l 1,15,-1
 239 495 l 1,12,-1
283 552 m 1,16,-1
 395 635 l 1,17,-1
 403 623 l 1,18,-1
 301 533 l 1,19,-1
 283 552 l 1,16,-1
EndSplineSet
Substitution2: "'smcp' Lowercase to Small Capitals lookup 1 subtable" asterisk.smcp
EndChar

StartChar: plus
Encoding: 43 43 14
Width: 521
GlyphClass: 2
Flags: W
LayerCount: 2
Fore
SplineSet
68 344 m 1,0,-1
 68 368 l 1,1,-1
 248 368 l 1,2,-1
 248 549 l 1,3,-1
 272 549 l 1,4,-1
 272 368 l 1,5,-1
 454 368 l 1,6,-1
 454 344 l 1,7,-1
 272 344 l 1,8,-1
 272 163 l 1,9,-1
 248 163 l 1,10,-1
 248 344 l 1,11,-1
 68 344 l 1,0,-1
EndSplineSet
EndChar

StartChar: comma
Encoding: 44 44 15
Width: 171
GlyphClass: 2
Flags: W
LayerCount: 2
Fore
SplineSet
103 -37 m 2,0,1
 103 -55 103 -55 95.5 -62 c 128,-1,2
 88 -69 88 -69 83.5 -69 c 128,-1,3
 79 -69 79 -69 71 -68 c 1,4,-1
 71 -62 l 1,5,6
 87 -62 87 -62 87 -47 c 2,7,-1
 87 0 l 1,8,-1
 81 0 l 2,9,10
 69 0 69 0 69 13 c 2,11,-1
 69 75 l 2,12,13
 69 88 69 88 81 88 c 2,14,-1
 91 88 l 2,15,16
 103 88 103 88 103 75 c 2,17,-1
 103 -37 l 2,0,1
EndSplineSet
EndChar

StartChar: hyphen
Encoding: 45 45 16
Width: 338
GlyphClass: 2
Flags: W
LayerCount: 2
Fore
SplineSet
27 278 m 1,0,-1
 27 302 l 1,1,-1
 311 302 l 1,2,-1
 311 278 l 1,3,-1
 27 278 l 1,0,-1
EndSplineSet
Substitution2: "'case' Case-Sensitive Forms lookup 18 subtable" hyphen.alt
Substitution2: "'c2sc' Capitals to Small Capitals in Latin lookup 2 subtable" hyphen.smcp
Substitution2: "'smcp' Lowercase to Small Capitals lookup 1 subtable" hyphen.smcp
EndChar

StartChar: period
Encoding: 46 46 17
Width: 172
GlyphClass: 2
Flags: W
LayerCount: 2
Fore
SplineSet
69 12 m 2,0,-1
 69 74 l 2,1,2
 69 86 69 86 81 86 c 2,3,-1
 92 86 l 2,4,5
 104 86 104 86 104 74 c 2,6,-1
 104 12 l 2,7,8
 104 0 104 0 92 0 c 2,9,-1
 81 0 l 2,10,11
 69 0 69 0 69 12 c 2,0,-1
EndSplineSet
EndChar

StartChar: slash
Encoding: 47 47 18
Width: 354
GlyphClass: 2
Flags: W
LayerCount: 2
Fore
SplineSet
27 -72 m 1,0,-1
 308 770 l 1,1,-1
 327 770 l 1,2,-1
 46 -72 l 1,3,-1
 27 -72 l 1,0,-1
EndSplineSet
Substitution2: "'numr' Numerators in Latin lookup 13 subtable" fraction
Substitution2: "'frac' Diagonal Fractions lookup 6 subtable" fraction
EndChar

StartChar: zero
Encoding: 48 48 19
Width: 662
GlyphClass: 2
Flags: W
LayerCount: 2
Fore
SplineSet
94 162 m 2,0,-1
 94 570 l 2,1,2
 94 648 94 648 142.5 690 c 128,-1,3
 191 732 191 732 266 732 c 2,4,-1
 400 732 l 2,5,6
 487 732 487 732 527.5 687.5 c 128,-1,7
 568 643 568 643 568 570 c 2,8,-1
 568 162 l 2,9,10
 568 0 568 0 400 0 c 2,11,-1
 266 0 l 2,12,13
 191 0 191 0 142.5 39 c 128,-1,14
 94 78 94 78 94 162 c 2,0,-1
118 162 m 2,15,16
 118 94 118 94 157.5 59 c 128,-1,17
 197 24 197 24 266 24 c 2,18,-1
 400 24 l 2,19,20
 544 24 544 24 544 162 c 2,21,-1
 544 570 l 2,22,23
 544 708 544 708 400 708 c 2,24,-1
 266 708 l 2,25,26
 198 708 198 708 158 671.5 c 128,-1,27
 118 635 118 635 118 570 c 2,28,-1
 118 162 l 2,15,16
EndSplineSet
Substitution2: "'dnom' Denominators in Latin lookup 19 subtable" zero.denominator
Substitution2: "'sups' Superscript lookup 17 subtable" zerosuperior
Substitution2: "'onum' Oldstyle Figures in Latin lookup 15 subtable" zero.oldstyle
Substitution2: "'tnum' Tabular Numbers in Latin lookup 14 subtable" zero.tnum
Substitution2: "'numr' Numerators in Latin lookup 13 subtable" zero.numerator
Substitution2: "'zero' Slashed Zero lookup 12 subtable" uni0338
Substitution2: "'sinf' Scientific Inferiors lookup 11 subtable" zeroinferior
Substitution2: "'frac' Diagonal Fractions lookup 5 subtable" zero.numerator
Substitution2: "'smcp' Lowercase to Small Capitals lookup 1 subtable" zero.smcp
EndChar

StartChar: one
Encoding: 49 49 20
Width: 354
GlyphClass: 2
Flags: W
LayerCount: 2
Fore
SplineSet
246 732 m 1,0,-1
 246 0 l 1,1,-1
 222 0 l 1,2,-1
 222 705 l 1,3,-1
 54 634 l 1,4,-1
 54 647 l 1,5,-1
 222 732 l 1,6,-1
 246 732 l 1,0,-1
EndSplineSet
Substitution2: "'dnom' Denominators in Latin lookup 19 subtable" one.denominator
Substitution2: "'sups' Superscript lookup 17 subtable" onesuperior
Substitution2: "'onum' Oldstyle Figures in Latin lookup 15 subtable" one.oldstyle
Substitution2: "'tnum' Tabular Numbers in Latin lookup 14 subtable" one.tnum
Substitution2: "'numr' Numerators in Latin lookup 13 subtable" one.numerator
Substitution2: "'sinf' Scientific Inferiors lookup 11 subtable" oneinferior
Substitution2: "'frac' Diagonal Fractions lookup 5 subtable" one.numerator
Substitution2: "'smcp' Lowercase to Small Capitals lookup 1 subtable" one.smcp
EndChar

StartChar: two
Encoding: 50 50 21
Width: 598
GlyphClass: 2
Flags: W
LayerCount: 2
Fore
SplineSet
54 717 m 1,0,-1
 54 732 l 1,1,2
 133 742 133 742 328 742 c 0,3,4
 531 742 531 742 531 532 c 0,5,6
 531 481 531 481 489 412 c 128,-1,7
 447 343 447 343 396.5 287.5 c 128,-1,8
 346 232 346 232 271.5 166 c 128,-1,9
 197 100 197 100 166.5 76 c 128,-1,10
 136 52 136 52 100 24 c 1,11,-1
 531 24 l 1,12,-1
 531 0 l 1,13,-1
 61 0 l 1,14,-1
 61 23 l 1,15,16
 62 24 62 24 96.5 51.5 c 128,-1,17
 131 79 131 79 145.5 91 c 128,-1,18
 160 103 160 103 199.5 136 c 128,-1,19
 239 169 239 169 261 189.5 c 128,-1,20
 283 210 283 210 319.5 245 c 128,-1,21
 356 280 356 280 378 305 c 128,-1,22
 400 330 400 330 427.5 364 c 128,-1,23
 455 398 455 398 470 424 c 0,24,25
 506 488 506 488 506 533 c 0,26,27
 506 632 506 632 459.5 674.5 c 128,-1,28
 413 717 413 717 326 717 c 2,29,-1
 54 717 l 1,0,-1
EndSplineSet
Substitution2: "'dnom' Denominators in Latin lookup 19 subtable" two.denominator
Substitution2: "'sups' Superscript lookup 17 subtable" twosuperior
Substitution2: "'onum' Oldstyle Figures in Latin lookup 15 subtable" two.oldstyle
Substitution2: "'tnum' Tabular Numbers in Latin lookup 14 subtable" two.tnum
Substitution2: "'numr' Numerators in Latin lookup 13 subtable" two.numerator
Substitution2: "'sinf' Scientific Inferiors lookup 11 subtable" twoinferior
Substitution2: "'frac' Diagonal Fractions lookup 5 subtable" two.numerator
Substitution2: "'smcp' Lowercase to Small Capitals lookup 1 subtable" two.smcp
EndChar

StartChar: three
Encoding: 51 51 22
Width: 600
GlyphClass: 2
Flags: W
LayerCount: 2
Fore
SplineSet
40 710 m 1,0,-1
 40 724 l 1,1,2
 98 735 98 735 189 735 c 128,-1,3
 280 735 280 735 328 734 c 0,4,5
 414 733 414 733 457 687.5 c 128,-1,6
 500 642 500 642 500 569 c 2,7,-1
 500 500 l 2,8,9
 500 420 500 420 436 383 c 0,10,11
 409 368 409 368 380 365 c 1,12,13
 412 361 412 361 452 330 c 0,14,15
 472 314 472 314 486 285 c 128,-1,16
 500 256 500 256 500 220 c 2,17,-1
 500 161 l 2,18,19
 500 -7 500 -7 322 -7 c 0,20,21
 100 -7 100 -7 46 4 c 1,22,-1
 48 18 l 1,23,-1
 320 18 l 2,24,25
 474 18 474 18 474 161 c 2,26,-1
 474 220 l 2,27,28
 474 255 474 255 458.5 282 c 128,-1,29
 443 309 443 309 419 323 c 0,30,31
 373 350 373 350 322 352 c 2,32,-1
 108 359 l 1,33,-1
 108 373 l 1,34,-1
 322 379 l 2,35,36
 387 380 387 380 431.5 410 c 128,-1,37
 476 440 476 440 476 500 c 2,38,-1
 476 569 l 2,39,40
 476 639 476 639 434 674.5 c 128,-1,41
 392 710 392 710 326 710 c 2,42,-1
 40 710 l 1,0,-1
EndSplineSet
Substitution2: "'dnom' Denominators in Latin lookup 19 subtable" three.denominator
Substitution2: "'sups' Superscript lookup 17 subtable" threesuperior
Substitution2: "'onum' Oldstyle Figures in Latin lookup 15 subtable" three.oldstyle
Substitution2: "'tnum' Tabular Numbers in Latin lookup 14 subtable" three.tnum
Substitution2: "'numr' Numerators in Latin lookup 13 subtable" three.numerator
Substitution2: "'sinf' Scientific Inferiors lookup 11 subtable" threeinferior
Substitution2: "'frac' Diagonal Fractions lookup 5 subtable" three.numerator
Substitution2: "'smcp' Lowercase to Small Capitals lookup 1 subtable" three.smcp
EndChar

StartChar: four
Encoding: 52 52 23
Width: 575
GlyphClass: 2
Flags: W
LayerCount: 2
Fore
SplineSet
434 236 m 1,0,-1
 434 472 l 1,1,-1
 444 547 l 1,2,-1
 458 547 l 1,3,-1
 458 236 l 1,4,-1
 548 236 l 1,5,-1
 548 222 l 1,6,-1
 458 212 l 1,7,-1
 458 2 l 1,8,-1
 434 2 l 1,9,-1
 434 212 l 1,10,-1
 39 212 l 1,11,-1
 27 237 l 1,12,-1
 334 732 l 1,13,-1
 361 732 l 1,14,-1
 56 236 l 1,15,-1
 434 236 l 1,0,-1
EndSplineSet
Substitution2: "'dnom' Denominators in Latin lookup 19 subtable" four.denominator
Substitution2: "'sups' Superscript lookup 17 subtable" foursuperior
Substitution2: "'onum' Oldstyle Figures in Latin lookup 15 subtable" four.oldstyle
Substitution2: "'tnum' Tabular Numbers in Latin lookup 14 subtable" four.tnum
Substitution2: "'numr' Numerators in Latin lookup 13 subtable" four.numerator
Substitution2: "'sinf' Scientific Inferiors lookup 11 subtable" fourinferior
Substitution2: "'frac' Diagonal Fractions lookup 5 subtable" four.numerator
Substitution2: "'smcp' Lowercase to Small Capitals lookup 1 subtable" four.smcp
EndChar

StartChar: five
Encoding: 53 53 24
Width: 649
GlyphClass: 2
Flags: W
LayerCount: 2
Fore
SplineSet
103 20 m 1,0,-1
 407 20 l 2,1,2
 464 20 464 20 505 58.5 c 128,-1,3
 546 97 546 97 546 168 c 2,4,-1
 546 263 l 2,5,6
 546 332 546 332 510 371 c 0,7,8
 476 407 476 407 406 407 c 2,9,-1
 253 407 l 2,10,11
 207 407 207 407 167.5 369 c 128,-1,12
 128 331 128 331 128 282 c 1,13,-1
 104 282 l 1,14,-1
 126 732 l 1,15,-1
 549 732 l 1,16,-1
 549 708 l 1,17,-1
 149 708 l 1,18,-1
 132 365 l 1,19,20
 142 384 142 384 175.5 407.5 c 128,-1,21
 209 431 209 431 256 431 c 2,22,-1
 407 431 l 2,23,24
 570 431 570 431 570 265 c 2,25,-1
 570 166 l 2,26,27
 570 118 570 118 554 82.5 c 128,-1,28
 538 47 538 47 512 30 c 0,29,30
 461 -4 461 -4 407 -4 c 0,31,32
 175 -4 175 -4 103 6 c 1,33,-1
 103 20 l 1,0,-1
EndSplineSet
Substitution2: "'dnom' Denominators in Latin lookup 19 subtable" five.denominator
Substitution2: "'sups' Superscript lookup 17 subtable" fivesuperior
Substitution2: "'onum' Oldstyle Figures in Latin lookup 15 subtable" five.oldstyle
Substitution2: "'tnum' Tabular Numbers in Latin lookup 14 subtable" five.tnum
Substitution2: "'numr' Numerators in Latin lookup 13 subtable" five.numerator
Substitution2: "'sinf' Scientific Inferiors lookup 11 subtable" fiveinferior
Substitution2: "'frac' Diagonal Fractions lookup 5 subtable" five.numerator
Substitution2: "'smcp' Lowercase to Small Capitals lookup 1 subtable" five.smcp
EndChar

StartChar: six
Encoding: 54 54 25
Width: 636
GlyphClass: 2
Flags: W
LayerCount: 2
Fore
SplineSet
136 652 m 128,-1,1
 184 738 184 738 260 738 c 0,2,3
 454 738 454 738 532 729 c 1,4,-1
 532 714 l 1,5,-1
 263 714 l 2,6,7
 218 714 218 714 186 681 c 128,-1,8
 154 648 154 648 139 594 c 0,9,10
 112 498 112 498 112 394 c 1,11,12
 206 405 206 405 395 405 c 0,13,14
 488 405 488 405 522 367 c 128,-1,15
 556 329 556 329 556 259 c 2,16,-1
 556 148 l 2,17,18
 556 -1 556 -1 395 -1 c 2,19,-1
 276 -1 l 2,20,21
 233 -1 233 -1 200.5 17 c 128,-1,22
 168 35 168 35 142 78 c 1,23,24
 88 163 88 163 88 364.5 c 128,-1,0
 88 566 88 566 136 652 c 128,-1,1
112 380 m 1,25,26
 112 23 112 23 276 23 c 2,27,-1
 395 23 l 2,28,29
 533 23 533 23 533 146 c 2,30,-1
 533 259 l 2,31,32
 533 331 533 331 497.5 355.5 c 128,-1,33
 462 380 462 380 395 380 c 2,34,-1
 112 380 l 1,25,26
EndSplineSet
Substitution2: "'dnom' Denominators in Latin lookup 19 subtable" six.denominator
Substitution2: "'sups' Superscript lookup 17 subtable" sixsuperior
Substitution2: "'onum' Oldstyle Figures in Latin lookup 15 subtable" six.oldstyle
Substitution2: "'tnum' Tabular Numbers in Latin lookup 14 subtable" six.tnum
Substitution2: "'numr' Numerators in Latin lookup 13 subtable" six.numerator
Substitution2: "'sinf' Scientific Inferiors lookup 11 subtable" sixinferior
Substitution2: "'frac' Diagonal Fractions lookup 5 subtable" six.numerator
Substitution2: "'smcp' Lowercase to Small Capitals lookup 1 subtable" six.smcp
EndChar

StartChar: seven
Encoding: 55 55 26
Width: 535
GlyphClass: 2
Flags: W
LayerCount: 2
Fore
SplineSet
40 708 m 1,0,-1
 40 732 l 1,1,-1
 478 732 l 1,2,-1
 494 709 l 1,3,-1
 256 0 l 1,4,-1
 228 0 l 1,5,-1
 466 708 l 1,6,-1
 40 708 l 1,0,-1
EndSplineSet
Substitution2: "'dnom' Denominators in Latin lookup 19 subtable" seven.denominator
Substitution2: "'sups' Superscript lookup 17 subtable" sevensuperior
Substitution2: "'onum' Oldstyle Figures in Latin lookup 15 subtable" seven.oldstyle
Substitution2: "'tnum' Tabular Numbers in Latin lookup 14 subtable" seven.tnum
Substitution2: "'numr' Numerators in Latin lookup 13 subtable" seven.numerator
Substitution2: "'sinf' Scientific Inferiors lookup 11 subtable" seveninferior
Substitution2: "'frac' Diagonal Fractions lookup 5 subtable" seven.numerator
Substitution2: "'smcp' Lowercase to Small Capitals lookup 1 subtable" seven.smcp
EndChar

StartChar: eight
Encoding: 56 56 27
Width: 655
GlyphClass: 2
Flags: W
LayerCount: 2
Fore
SplineSet
101 154 m 2,0,-1
 101 253 l 2,1,2
 101 305 101 305 133.5 335.5 c 128,-1,3
 166 366 166 366 201 366 c 1,4,5
 101 383 101 383 101 499 c 2,6,-1
 101 564 l 2,7,8
 101 659 101 659 147 698 c 128,-1,9
 193 737 193 737 277 737 c 2,10,-1
 393 737 l 2,11,12
 475 737 475 737 515 696 c 128,-1,13
 555 655 555 655 555 564 c 2,14,-1
 555 499 l 2,15,16
 555 456 555 456 529 419.5 c 128,-1,17
 503 383 503 383 463 380 c 1,18,19
 555 354 555 354 555 252 c 2,20,-1
 555 154 l 2,21,22
 555 108 555 108 539 75.5 c 128,-1,23
 523 43 523 43 496 28 c 0,24,25
 449 0 449 0 392 0 c 2,26,-1
 277 0 l 2,27,28
 228 0 228 0 193 12.5 c 128,-1,29
 158 25 158 25 140.5 41.5 c 128,-1,30
 123 58 123 58 114 82 c 0,31,32
 101 115 101 115 101 154 c 2,0,-1
125 151 m 2,33,34
 125 85 125 85 166.5 54.5 c 128,-1,35
 208 24 208 24 277 24 c 2,36,-1
 392 24 l 2,37,38
 447 24 447 24 489 54.5 c 128,-1,39
 531 85 531 85 531 151 c 2,40,-1
 531 256 l 2,41,42
 531 331 531 331 480 349 c 0,43,44
 444 362 444 362 395 362 c 2,45,-1
 266 362 l 2,46,47
 219 362 219 362 172 336 c 128,-1,48
 125 310 125 310 125 256 c 2,49,-1
 125 151 l 2,33,34
125 494 m 2,50,51
 125 421 125 421 172 401 c 0,52,53
 209 385 209 385 266 385 c 2,54,-1
 395 385 l 2,55,56
 461 385 461 385 496 419 c 128,-1,57
 531 453 531 453 531 494 c 2,58,-1
 531 562 l 2,59,60
 531 643 531 643 497.5 678 c 128,-1,61
 464 713 464 713 393 713 c 2,62,-1
 277 713 l 2,63,64
 196 713 196 713 160.5 677 c 128,-1,65
 125 641 125 641 125 562 c 2,66,-1
 125 494 l 2,50,51
EndSplineSet
Substitution2: "'dnom' Denominators in Latin lookup 19 subtable" eight.denominator
Substitution2: "'sups' Superscript lookup 17 subtable" eightsuperior
Substitution2: "'onum' Oldstyle Figures in Latin lookup 15 subtable" eight.oldstyle
Substitution2: "'tnum' Tabular Numbers in Latin lookup 14 subtable" eight.tnum
Substitution2: "'numr' Numerators in Latin lookup 13 subtable" eight.numerator
Substitution2: "'sinf' Scientific Inferiors lookup 11 subtable" eightinferior
Substitution2: "'frac' Diagonal Fractions lookup 5 subtable" eight.numerator
Substitution2: "'smcp' Lowercase to Small Capitals lookup 1 subtable" eight.smcp
EndChar

StartChar: nine
Encoding: 57 57 28
Width: 636
GlyphClass: 2
Flags: W
LayerCount: 2
Fore
SplineSet
81 473 m 2,0,-1
 81 584 l 2,1,2
 81 733 81 733 242 733 c 2,3,-1
 361 733 l 2,4,5
 404 733 404 733 436.5 715 c 128,-1,6
 469 697 469 697 496 654 c 0,7,8
 549 569 549 569 549 367.5 c 128,-1,9
 549 166 549 166 501 80 c 128,-1,10
 453 -6 453 -6 377 -6 c 0,11,12
 183 -6 183 -6 105 3 c 1,13,-1
 105 18 l 1,14,-1
 374 18 l 2,15,16
 419 18 419 18 451 51 c 128,-1,17
 483 84 483 84 498 138 c 0,18,19
 525 234 525 234 525 338 c 1,20,21
 431 327 431 327 242 327 c 0,22,23
 149 327 149 327 115 365 c 128,-1,24
 81 403 81 403 81 473 c 2,0,-1
104 473 m 2,25,26
 104 401 104 401 139.5 376.5 c 128,-1,27
 175 352 175 352 242 352 c 2,28,-1
 525 352 l 1,29,30
 525 709 525 709 361 709 c 2,31,-1
 242 709 l 2,32,33
 104 709 104 709 104 586 c 2,34,-1
 104 473 l 2,25,26
EndSplineSet
Substitution2: "'dnom' Denominators in Latin lookup 19 subtable" nine.denominator
Substitution2: "'sups' Superscript lookup 17 subtable" ninesuperior
Substitution2: "'onum' Oldstyle Figures in Latin lookup 15 subtable" nine.oldstyle
Substitution2: "'tnum' Tabular Numbers in Latin lookup 14 subtable" nine.tnum
Substitution2: "'numr' Numerators in Latin lookup 13 subtable" nine.numerator
Substitution2: "'sinf' Scientific Inferiors lookup 11 subtable" nineinferior
Substitution2: "'frac' Diagonal Fractions lookup 5 subtable" nine.numerator
Substitution2: "'smcp' Lowercase to Small Capitals lookup 1 subtable" nine.smcp
EndChar

StartChar: colon
Encoding: 58 58 29
Width: 177
GlyphClass: 2
Flags: W
LayerCount: 2
Fore
SplineSet
69 12 m 2,0,-1
 69 74 l 2,1,2
 69 86 69 86 81 86 c 2,3,-1
 92 86 l 2,4,5
 104 86 104 86 104 74 c 2,6,-1
 104 12 l 2,7,8
 104 0 104 0 92 0 c 2,9,-1
 81 0 l 2,10,11
 69 0 69 0 69 12 c 2,0,-1
69 455 m 2,12,-1
 69 518 l 2,13,14
 69 530 69 530 81 530 c 2,15,-1
 92 530 l 2,16,17
 104 530 104 530 104 518 c 2,18,-1
 104 455 l 2,19,20
 104 444 104 444 92 444 c 2,21,-1
 81 444 l 2,22,23
 69 444 69 444 69 455 c 2,12,-1
EndSplineSet
EndChar

StartChar: semicolon
Encoding: 59 59 30
Width: 172
GlyphClass: 2
Flags: W
LayerCount: 2
Fore
SplineSet
103 -37 m 2,0,1
 103 -55 103 -55 95.5 -62 c 128,-1,2
 88 -69 88 -69 83.5 -69 c 128,-1,3
 79 -69 79 -69 71 -68 c 1,4,-1
 71 -62 l 1,5,6
 87 -62 87 -62 87 -47 c 2,7,-1
 87 0 l 1,8,-1
 81 0 l 2,9,10
 69 0 69 0 69 13 c 2,11,-1
 69 75 l 2,12,13
 69 88 69 88 81 88 c 2,14,-1
 91 88 l 2,15,16
 103 88 103 88 103 75 c 2,17,-1
 103 -37 l 2,0,1
69 455 m 2,18,-1
 69 518 l 2,19,20
 69 530 69 530 81 530 c 2,21,-1
 92 530 l 2,22,23
 104 530 104 530 104 518 c 2,24,-1
 104 455 l 2,25,26
 104 444 104 444 92 444 c 2,27,-1
 81 444 l 2,28,29
 69 444 69 444 69 455 c 2,18,-1
EndSplineSet
EndChar

StartChar: less
Encoding: 60 60 31
Width: 480
GlyphClass: 2
Flags: W
LayerCount: 2
Fore
SplineSet
68 345 m 1,0,-1
 68 365 l 1,1,-1
 412 557 l 1,2,-1
 412 530 l 1,3,-1
 98 355 l 1,4,-1
 412 169 l 1,5,-1
 412 141 l 1,6,-1
 68 345 l 1,0,-1
EndSplineSet
EndChar

StartChar: equal
Encoding: 61 61 32
Width: 481
GlyphClass: 2
Flags: W
LayerCount: 2
Fore
SplineSet
27 212 m 1,0,-1
 27 236 l 1,1,-1
 454 236 l 1,2,-1
 454 212 l 1,3,-1
 27 212 l 1,0,-1
27 471 m 1,4,-1
 27 495 l 1,5,-1
 454 495 l 1,6,-1
 454 471 l 1,7,-1
 27 471 l 1,4,-1
EndSplineSet
EndChar

StartChar: greater
Encoding: 62 62 33
Width: 480
GlyphClass: 2
Flags: W
LayerCount: 2
Fore
SplineSet
68 141 m 1,0,-1
 68 169 l 1,1,-1
 382 355 l 1,2,-1
 68 530 l 1,3,-1
 68 557 l 1,4,-1
 412 365 l 1,5,-1
 412 345 l 1,6,-1
 68 141 l 1,0,-1
EndSplineSet
EndChar

StartChar: question
Encoding: 63 63 34
Width: 532
GlyphClass: 2
Flags: W
LayerCount: 2
Fore
SplineSet
27 715 m 1,0,-1
 27 729 l 1,1,2
 114 739 114 739 279 739 c 0,3,4
 284 739 284 739 288 739 c 0,5,6
 393 739 393 739 435.5 694 c 128,-1,7
 478 649 478 649 478 554 c 2,8,-1
 478 453 l 2,9,10
 478 353 478 353 416 318 c 0,11,12
 372 293 372 293 286 293 c 0,13,14
 252 293 252 293 211 297 c 1,15,-1
 211 195 l 1,16,-1
 185 195 l 1,17,-1
 185 317 l 1,18,-1
 291 317 l 2,19,20
 372 317 372 317 413 348.5 c 128,-1,21
 454 380 454 380 454 453 c 2,22,-1
 454 554 l 2,23,24
 454 643 454 643 413.5 679 c 128,-1,25
 373 715 373 715 278 715 c 2,26,-1
 27 715 l 1,0,-1
180 12 m 2,27,-1
 180 74 l 2,28,29
 180 86 180 86 192 86 c 2,30,-1
 204 86 l 2,31,32
 215 86 215 86 215 74 c 2,33,-1
 215 12 l 2,34,35
 215 0 215 0 204 0 c 2,36,-1
 192 0 l 2,37,38
 180 0 180 0 180 12 c 2,27,-1
EndSplineSet
Substitution2: "'smcp' Lowercase to Small Capitals lookup 1 subtable" question.smcp
EndChar

StartChar: at
Encoding: 64 64 35
Width: 866
GlyphClass: 2
Flags: W
LayerCount: 2
Fore
SplineSet
88 0 m 2,0,-1
 88 348 l 2,1,2
 88 423 88 423 125 465 c 0,3,4
 141 483 141 483 175 497.5 c 128,-1,5
 209 512 209 512 256 512 c 2,6,-1
 456 512 l 2,7,8
 519 512 519 512 564 479.5 c 128,-1,9
 609 447 609 447 609 372 c 2,10,-1
 609 0 l 1,11,-1
 593 0 l 1,12,-1
 586 64 l 1,13,-1
 571 56 l 1,14,15
 440 -9 440 -9 361 -9 c 0,16,17
 359 -9 359 -9 358 -9 c 0,18,19
 305 -9 305 -9 268.5 24 c 128,-1,20
 232 57 232 57 233 108 c 1,21,-1
 233 161 l 2,22,23
 233 222 233 222 267 258 c 128,-1,24
 301 294 301 294 362 294 c 2,25,-1
 585 294 l 1,26,27
 586 332 586 332 586 351 c 128,-1,28
 586 370 586 370 585 370 c 1,29,30
 585 430 585 430 550 459 c 128,-1,31
 515 488 515 488 453 488 c 2,32,-1
 256 488 l 2,33,34
 112 488 112 488 112 348 c 2,35,-1
 112 0 l 2,36,37
 112 -81 112 -81 154 -117 c 128,-1,38
 196 -153 196 -153 256 -153 c 2,39,-1
 575 -153 l 2,40,41
 728 -153 728 -153 728 0 c 2,42,-1
 728 512 l 2,43,44
 728 586 728 586 689 631 c 128,-1,45
 650 676 650 676 575 676 c 2,46,-1
 186 676 l 1,47,-1
 186 690 l 1,48,49
 235 700 235 700 412 700 c 0,50,51
 441 700 441 700 474 700 c 2,52,-1
 575 700 l 1,53,54
 657 698 657 698 704.5 650.5 c 128,-1,55
 752 603 752 603 752 512 c 2,56,-1
 752 0 l 2,57,58
 752 -178 752 -178 575 -178 c 2,59,-1
 256 -178 l 2,60,61
 178 -178 178 -178 133 -132 c 128,-1,62
 88 -86 88 -86 88 0 c 2,0,-1
372 15 m 0,63,64
 411 15 411 15 475 35.5 c 128,-1,65
 539 56 539 56 585 78 c 1,66,-1
 585 280 l 1,67,-1
 367 270 l 2,68,69
 330 268 330 268 298 250 c 0,70,71
 257 228 257 228 257 159 c 1,72,73
 256 158 256 158 256 136.5 c 128,-1,74
 256 115 256 115 257 114 c 1,75,76
 257 69 257 69 287 42 c 128,-1,77
 317 15 317 15 368 15 c 0,78,79
 370 15 370 15 372 15 c 0,63,64
EndSplineSet
Substitution2: "'case' Case-Sensitive Forms lookup 18 subtable" at.alt
Substitution2: "'smcp' Lowercase to Small Capitals lookup 1 subtable" at.smcp
EndChar

StartChar: A
Encoding: 65 65 36
Width: 659
GlyphClass: 2
Flags: W
LayerCount: 2
Fore
SplineSet
61 0 m 1,0,-1
 335 732 l 1,1,-1
 369 732 l 1,2,-1
 631 0 l 1,3,-1
 605 0 l 1,4,-1
 514 253 l 1,5,-1
 181 253 l 1,6,-1
 87 0 l 1,7,-1
 61 0 l 1,0,-1
190 277 m 1,8,-1
 505 277 l 1,9,-1
 352 708 l 1,10,-1
 190 277 l 1,8,-1
EndSplineSet
Substitution2: "'c2sc' Capitals to Small Capitals in Latin lookup 2 subtable" a.smcp
EndChar

StartChar: B
Encoding: 66 66 37
Width: 599
GlyphClass: 2
Flags: W
LayerCount: 2
Fore
SplineSet
108 0 m 1,0,-1
 108 732 l 1,1,-1
 361 732 l 2,2,3
 465 732 465 732 508 684.5 c 128,-1,4
 551 637 551 637 551 559 c 128,-1,5
 551 481 551 481 512 435.5 c 128,-1,6
 473 390 473 390 422 384 c 1,7,8
 466 374 466 374 510 327 c 128,-1,9
 554 280 554 280 554 204 c 0,10,11
 554 0 554 0 361 0 c 2,12,-1
 108 0 l 1,0,-1
132 25 m 1,13,-1
 361 25 l 2,14,15
 530 25 530 25 530 206 c 0,16,17
 530 275 530 275 481 323 c 128,-1,18
 432 371 432 371 366 371 c 0,19,20
 364 371 364 371 361 371 c 2,21,-1
 132 371 l 1,22,-1
 132 25 l 1,13,-1
132 395 m 1,23,-1
 361 395 l 2,24,25
 433 395 433 395 479 436 c 0,26,27
 527 479 527 479 527 557.5 c 128,-1,28
 527 636 527 636 486 672 c 128,-1,29
 445 708 445 708 361 708 c 2,30,-1
 132 708 l 1,31,-1
 132 395 l 1,23,-1
EndSplineSet
Substitution2: "'c2sc' Capitals to Small Capitals in Latin lookup 2 subtable" b.smcp
EndChar

StartChar: C
Encoding: 67 67 38
Width: 570
GlyphClass: 2
Flags: W
LayerCount: 2
Fore
SplineSet
74 368 m 0,0,1
 74 461 74 461 83.5 524.5 c 128,-1,2
 93 588 93 588 119 640 c 0,3,4
 170 740 170 740 317 740 c 0,5,6
 402 740 402 740 531 716 c 1,7,-1
 531 702 l 1,8,9
 517 704 517 704 504.5 705 c 128,-1,10
 492 706 492 706 475.5 707.5 c 128,-1,11
 459 709 459 709 439.5 710.5 c 128,-1,12
 420 712 420 712 400 713 c 0,13,14
 340 716 340 716 317 716 c 0,15,16
 239 716 239 716 194 688 c 0,17,18
 98 628 98 628 98 366 c 0,19,20
 98 18 98 18 318 18 c 0,21,22
 411 18 411 18 501 27 c 2,23,-1
 531 30 l 1,24,-1
 531 16 l 1,25,26
 413 -6 413 -6 317 -6 c 0,27,28
 74 -6 74 -6 74 368 c 0,0,1
EndSplineSet
Substitution2: "'c2sc' Capitals to Small Capitals in Latin lookup 2 subtable" c.smcp
EndChar

StartChar: D
Encoding: 68 68 39
Width: 671
GlyphClass: 2
Flags: W
LayerCount: 2
Fore
SplineSet
108 0 m 1,0,-1
 108 732 l 1,1,-1
 361 732 l 2,2,3
 426 732 426 732 474.5 707.5 c 128,-1,4
 523 683 523 683 550 646 c 128,-1,5
 577 609 577 609 594 557 c 0,6,7
 620 473 620 473 620 385.5 c 128,-1,8
 620 298 620 298 605 236 c 128,-1,9
 590 174 590 174 560.5 120 c 128,-1,10
 531 66 531 66 479 33 c 128,-1,11
 427 0 427 0 361 0 c 2,12,-1
 108 0 l 1,0,-1
132 24 m 1,13,-1
 361 24 l 2,14,15
 421 24 421 24 468 56 c 128,-1,16
 515 88 515 88 542 139 c 0,17,18
 596 241 596 241 596 364 c 0,19,20
 596 537 596 537 535.5 622.5 c 128,-1,21
 475 708 475 708 361 708 c 2,22,-1
 132 708 l 1,23,-1
 132 24 l 1,13,-1
EndSplineSet
Substitution2: "'c2sc' Capitals to Small Capitals in Latin lookup 2 subtable" d.smcp
EndChar

StartChar: E
Encoding: 69 69 40
Width: 582
GlyphClass: 2
Flags: W
LayerCount: 2
Fore
SplineSet
108 123 m 2,0,-1
 108 602 l 2,1,2
 108 671 108 671 143 701.5 c 128,-1,3
 178 732 178 732 228 732 c 0,4,5
 231 732 231 732 234 732 c 2,6,-1
 531 722 l 1,7,-1
 531 708 l 1,8,-1
 234 708 l 2,9,10
 132 708 132 708 132 602 c 2,11,-1
 132 375 l 1,12,-1
 491 370 l 1,13,-1
 491 356 l 1,14,-1
 132 351 l 1,15,-1
 132 123 l 2,16,17
 132 61 132 61 162 41 c 128,-1,18
 192 21 192 21 244 21 c 2,19,-1
 531 21 l 1,20,-1
 531 7 l 1,21,-1
 245 -3 l 2,22,23
 239 -3 239 -3 226 -3 c 128,-1,24
 213 -3 213 -3 193.5 0.5 c 128,-1,25
 174 4 174 4 152 16 c 0,26,27
 108 42 108 42 108 123 c 2,0,-1
EndSplineSet
Substitution2: "'c2sc' Capitals to Small Capitals in Latin lookup 2 subtable" e.smcp
EndChar

StartChar: F
Encoding: 70 70 41
Width: 582
GlyphClass: 2
Flags: W
LayerCount: 2
Fore
SplineSet
108 0 m 1,0,-1
 108 602 l 2,1,2
 108 671 108 671 143 701.5 c 128,-1,3
 178 732 178 732 228 732 c 0,4,5
 231 732 231 732 234 732 c 2,6,-1
 531 722 l 1,7,-1
 531 708 l 1,8,-1
 234 708 l 2,9,10
 132 708 132 708 132 602 c 2,11,-1
 132 375 l 1,12,-1
 491 370 l 1,13,-1
 491 356 l 1,14,-1
 132 351 l 1,15,-1
 132 0 l 1,16,-1
 108 0 l 1,0,-1
EndSplineSet
Substitution2: "'c2sc' Capitals to Small Capitals in Latin lookup 2 subtable" f.smcp
EndChar

StartChar: G
Encoding: 71 71 42
Width: 620
GlyphClass: 2
Flags: W
LayerCount: 2
Fore
SplineSet
76.5 269 m 128,-1,1
 74 310 74 310 74 364 c 128,-1,2
 74 418 74 418 75.5 454 c 128,-1,3
 77 490 77 490 82.5 530.5 c 128,-1,4
 88 571 88 571 97 600 c 128,-1,5
 106 629 106 629 122.5 657 c 128,-1,6
 139 685 139 685 162 702 c 0,7,8
 212 740 212 740 304 740 c 128,-1,9
 396 740 396 740 541 713 c 1,10,-1
 541 694 l 1,11,-1
 498 700 l 1,12,13
 367 716 367 716 305 716 c 128,-1,14
 243 716 243 716 208 700 c 128,-1,15
 173 684 173 684 152 656.5 c 128,-1,16
 131 629 131 629 118 584 c 0,17,18
 98 509 98 509 98 368 c 0,19,20
 98 176 98 176 139.5 97.5 c 128,-1,21
 181 19 181 19 297 19 c 0,22,23
 366 19 366 19 492 56 c 1,24,-1
 534 69 l 1,25,-1
 534 364 l 1,26,-1
 320 364 l 1,27,-1
 320 378 l 1,28,29
 360 389 360 389 441 389 c 128,-1,30
 522 389 522 389 558 386 c 1,31,-1
 558 0 l 1,32,-1
 544 0 l 1,33,-1
 536 54 l 1,34,35
 504 37 504 37 430.5 16 c 128,-1,36
 357 -5 357 -5 302 -5 c 128,-1,37
 247 -5 247 -5 209 7 c 128,-1,38
 171 19 171 19 147 46 c 128,-1,39
 123 73 123 73 108 103.5 c 128,-1,40
 93 134 93 134 86 181 c 128,-1,0
 79 228 79 228 76.5 269 c 128,-1,1
EndSplineSet
Substitution2: "'c2sc' Capitals to Small Capitals in Latin lookup 2 subtable" g.smcp
EndChar

StartChar: H
Encoding: 72 72 43
Width: 664
GlyphClass: 2
Flags: W
LayerCount: 2
Fore
SplineSet
108 0 m 1,0,-1
 108 732 l 1,1,-1
 132 732 l 1,2,-1
 132 366 l 1,3,-1
 572 366 l 1,4,-1
 572 732 l 1,5,-1
 596 732 l 1,6,-1
 596 0 l 1,7,-1
 572 0 l 1,8,-1
 572 342 l 1,9,-1
 132 342 l 1,10,-1
 132 0 l 1,11,-1
 108 0 l 1,0,-1
EndSplineSet
Substitution2: "'c2sc' Capitals to Small Capitals in Latin lookup 2 subtable" h.smcp
EndChar

StartChar: I
Encoding: 73 73 44
Width: 200
GlyphClass: 2
Flags: W
LayerCount: 2
Fore
SplineSet
108 0 m 1,0,-1
 108 732 l 1,1,-1
 132 732 l 1,2,-1
 132 0 l 1,3,-1
 108 0 l 1,0,-1
EndSplineSet
Substitution2: "'c2sc' Capitals to Small Capitals in Latin lookup 2 subtable" i.smcp
EndChar

StartChar: J
Encoding: 74 74 45
Width: 349
GlyphClass: 2
Flags: W
LayerCount: 2
Fore
SplineSet
51 35 m 1,0,1
 107 19 107 19 129 19 c 128,-1,2
 151 19 151 19 171 20.5 c 128,-1,3
 191 22 191 22 210.5 36 c 128,-1,4
 230 50 230 50 243.5 82.5 c 128,-1,5
 257 115 257 115 257 165 c 2,6,-1
 257 732 l 1,7,-1
 281 732 l 1,8,-1
 281 165 l 2,9,10
 281 56 281 56 229 18 c 0,11,12
 198 -5 198 -5 146 -5 c 0,13,14
 88 -5 88 -5 47 21 c 1,15,-1
 51 35 l 1,0,1
EndSplineSet
Substitution2: "'c2sc' Capitals to Small Capitals in Latin lookup 2 subtable" j.smcp
EndChar

StartChar: K
Encoding: 75 75 46
Width: 593
GlyphClass: 2
Flags: W
LayerCount: 2
Fore
SplineSet
108 0 m 1,0,-1
 108 732 l 1,1,-1
 132 732 l 1,2,-1
 132 379 l 1,3,-1
 284 379 l 1,4,-1
 525 732 l 1,5,-1
 554 732 l 1,6,-1
 306 367 l 1,7,-1
 554 0 l 1,8,-1
 524 0 l 1,9,-1
 283 355 l 1,10,-1
 133 355 l 1,11,-1
 133 0 l 1,12,-1
 108 0 l 1,0,-1
EndSplineSet
Substitution2: "'c2sc' Capitals to Small Capitals in Latin lookup 2 subtable" k.smcp
EndChar

StartChar: L
Encoding: 76 76 47
Width: 559
GlyphClass: 2
Flags: W
LayerCount: 2
Fore
SplineSet
108 126 m 2,0,-1
 108 732 l 1,1,-1
 132 732 l 1,2,-1
 132 126 l 2,3,4
 132 64 132 64 162.5 44 c 128,-1,5
 193 24 193 24 244 24 c 2,6,-1
 520 24 l 1,7,-1
 520 0 l 1,8,-1
 244 0 l 2,9,10
 187 0 187 0 152 20 c 0,11,12
 108 45 108 45 108 126 c 2,0,-1
EndSplineSet
Substitution2: "'c2sc' Capitals to Small Capitals in Latin lookup 2 subtable" l.smcp
EndChar

StartChar: M
Encoding: 77 77 48
Width: 797
GlyphClass: 2
Flags: W
LayerCount: 2
Fore
SplineSet
74 0 m 1,0,-1
 155 732 l 1,1,-1
 191 732 l 1,2,-1
 404 41 l 1,3,-1
 613 732 l 1,4,-1
 651 732 l 1,5,-1
 735 0 l 1,6,-1
 711 0 l 1,7,-1
 630 703 l 1,8,-1
 418 0 l 1,9,-1
 391 0 l 1,10,-1
 175 703 l 1,11,-1
 98 0 l 1,12,-1
 74 0 l 1,0,-1
EndSplineSet
AlternateSubs2: "'salt' Stylistic Alternatives in Latin lookup 16 subtable" M.salt
Substitution2: "'c2sc' Capitals to Small Capitals in Latin lookup 2 subtable" m.smcp
EndChar

StartChar: N
Encoding: 78 78 49
Width: 665
GlyphClass: 2
Flags: W
LayerCount: 2
Fore
SplineSet
108 0 m 1,0,-1
 108 732 l 1,1,-1
 133 732 l 1,2,-1
 573 46 l 1,3,-1
 573 732 l 1,4,-1
 597 732 l 1,5,-1
 597 0 l 1,6,-1
 573 0 l 1,7,-1
 132 686 l 1,8,-1
 132 0 l 1,9,-1
 108 0 l 1,0,-1
EndSplineSet
AlternateSubs2: "'salt' Stylistic Alternatives in Latin lookup 16 subtable" N.salt
Substitution2: "'c2sc' Capitals to Small Capitals in Latin lookup 2 subtable" n.smcp
EndChar

StartChar: O
Encoding: 79 79 50
Width: 675
GlyphClass: 2
Flags: W
LayerCount: 2
Fore
SplineSet
99.5 195 m 128,-1,1
 88 262 88 262 88 362 c 128,-1,2
 88 462 88 462 100 531.5 c 128,-1,3
 112 601 112 601 132 641.5 c 128,-1,4
 152 682 152 682 188.5 703.5 c 128,-1,5
 225 725 225 725 261.5 731 c 128,-1,6
 298 737 298 737 351 737 c 128,-1,7
 404 737 404 737 436.5 733 c 128,-1,8
 469 729 469 729 502 716 c 128,-1,9
 535 703 535 703 555.5 677.5 c 128,-1,10
 576 652 576 652 592 611 c 0,11,12
 624 533 624 533 624 361 c 0,13,14
 624 178 624 178 582 93 c 0,15,16
 563 53 563 53 527.5 31.5 c 128,-1,17
 492 10 492 10 453.5 3 c 128,-1,18
 415 -4 415 -4 355 -4 c 128,-1,19
 295 -4 295 -4 258 2 c 128,-1,20
 221 8 221 8 185 28.5 c 128,-1,21
 149 49 149 49 130 88.5 c 128,-1,0
 111 128 111 128 99.5 195 c 128,-1,1
116 472.5 m 128,-1,23
 112 423 112 423 112 347 c 128,-1,24
 112 271 112 271 121 211 c 128,-1,25
 130 151 130 151 146 112.5 c 128,-1,26
 162 74 162 74 193.5 54 c 128,-1,27
 225 34 225 34 261.5 27 c 128,-1,28
 298 20 298 20 362 20 c 128,-1,29
 426 20 426 20 467.5 32 c 128,-1,30
 509 44 509 44 541.5 79.5 c 128,-1,31
 574 115 574 115 587 183 c 128,-1,32
 600 251 600 251 600 346 c 128,-1,33
 600 441 600 441 593.5 499.5 c 128,-1,34
 587 558 587 558 572 596.5 c 128,-1,35
 557 635 557 635 538.5 658.5 c 128,-1,36
 520 682 520 682 489.5 694 c 128,-1,37
 459 706 459 706 430 709.5 c 128,-1,38
 401 713 401 713 362 713 c 128,-1,39
 323 713 323 713 302.5 711.5 c 128,-1,40
 282 710 282 710 256 705.5 c 128,-1,41
 230 701 230 701 213.5 690.5 c 128,-1,42
 197 680 197 680 179 663.5 c 128,-1,43
 161 647 161 647 150 620.5 c 128,-1,44
 139 594 139 594 129.5 558 c 128,-1,22
 120 522 120 522 116 472.5 c 128,-1,23
EndSplineSet
Substitution2: "'c2sc' Capitals to Small Capitals in Latin lookup 2 subtable" o.smcp
EndChar

StartChar: P
Encoding: 80 80 51
Width: 584
GlyphClass: 2
Flags: W
LayerCount: 2
Fore
SplineSet
81 0 m 1,0,-1
 81 732 l 1,1,-1
 357 732 l 2,2,3
 392 732 392 732 418.5 725.5 c 128,-1,4
 445 719 445 719 474 700 c 0,5,6
 533 660 533 660 533 532 c 0,7,8
 533 474 533 474 521 432.5 c 128,-1,9
 509 391 509 391 493 370 c 128,-1,10
 477 349 477 349 450 338 c 128,-1,11
 423 327 423 327 404.5 325 c 128,-1,12
 386 323 386 323 354 323 c 128,-1,13
 322 323 322 323 215 327 c 128,-1,14
 108 331 108 331 105 333 c 1,15,-1
 105 0 l 1,16,-1
 81 0 l 1,0,-1
105 347 m 1,17,-1
 357 347 l 2,18,19
 428 347 428 347 468 384.5 c 128,-1,20
 508 422 508 422 508 527 c 0,21,22
 508 657 508 657 443 690 c 0,23,24
 408 707 408 707 357 707 c 2,25,-1
 105 707 l 1,26,-1
 105 347 l 1,17,-1
EndSplineSet
Substitution2: "'c2sc' Capitals to Small Capitals in Latin lookup 2 subtable" p.smcp
EndChar

StartChar: Q
Encoding: 81 81 52
Width: 675
GlyphClass: 2
Flags: W
LayerCount: 2
Fore
SplineSet
99.5 195 m 128,-1,1
 88 262 88 262 88 362 c 128,-1,2
 88 462 88 462 100 531.5 c 128,-1,3
 112 601 112 601 132 641.5 c 128,-1,4
 152 682 152 682 188.5 703.5 c 128,-1,5
 225 725 225 725 261.5 731 c 128,-1,6
 298 737 298 737 351 737 c 128,-1,7
 404 737 404 737 436.5 733 c 128,-1,8
 469 729 469 729 502 716 c 128,-1,9
 535 703 535 703 555.5 677.5 c 128,-1,10
 576 652 576 652 592 611 c 0,11,12
 624 533 624 533 624 361 c 0,13,14
 624 178 624 178 582 93 c 0,15,16
 563 53 563 53 527.5 31.5 c 128,-1,17
 492 10 492 10 453.5 3 c 128,-1,18
 415 -4 415 -4 355 -4 c 128,-1,19
 295 -4 295 -4 258 2 c 128,-1,20
 221 8 221 8 185 28.5 c 128,-1,21
 149 49 149 49 130 88.5 c 128,-1,0
 111 128 111 128 99.5 195 c 128,-1,1
116 472.5 m 128,-1,23
 112 423 112 423 112 347 c 128,-1,24
 112 271 112 271 121 211 c 128,-1,25
 130 151 130 151 146 112.5 c 128,-1,26
 162 74 162 74 193.5 54 c 128,-1,27
 225 34 225 34 261.5 27 c 128,-1,28
 298 20 298 20 362 20 c 128,-1,29
 426 20 426 20 467.5 32 c 128,-1,30
 509 44 509 44 541.5 79.5 c 128,-1,31
 574 115 574 115 587 183 c 128,-1,32
 600 251 600 251 600 346 c 128,-1,33
 600 441 600 441 593.5 499.5 c 128,-1,34
 587 558 587 558 572 596.5 c 128,-1,35
 557 635 557 635 538.5 658.5 c 128,-1,36
 520 682 520 682 489.5 694 c 128,-1,37
 459 706 459 706 430 709.5 c 128,-1,38
 401 713 401 713 362 713 c 128,-1,39
 323 713 323 713 302.5 711.5 c 128,-1,40
 282 710 282 710 256 705.5 c 128,-1,41
 230 701 230 701 213.5 690.5 c 128,-1,42
 197 680 197 680 179 663.5 c 128,-1,43
 161 647 161 647 150 620.5 c 128,-1,44
 139 594 139 594 129.5 558 c 128,-1,22
 120 522 120 522 116 472.5 c 128,-1,23
362 -33 m 1,45,46
 376 -71 376 -71 406.5 -89 c 128,-1,47
 437 -107 437 -107 467.5 -107 c 128,-1,48
 498 -107 498 -107 538 -96 c 1,49,-1
 538 -120 l 1,50,51
 504 -131 504 -131 485 -131 c 128,-1,52
 466 -131 466 -131 462 -130 c 0,53,54
 423 -129 423 -129 390 -103.5 c 128,-1,55
 357 -78 357 -78 348 -33 c 1,56,-1
 362 -33 l 1,45,46
EndSplineSet
Substitution2: "'c2sc' Capitals to Small Capitals in Latin lookup 2 subtable" q.smcp
EndChar

StartChar: R
Encoding: 82 82 53
Width: 574
GlyphClass: 2
Flags: W
LayerCount: 2
Fore
SplineSet
81 0 m 1,0,-1
 81 732 l 1,1,-1
 357 732 l 2,2,3
 392 732 392 732 418.5 725.5 c 128,-1,4
 445 719 445 719 474 700 c 0,5,6
 533 660 533 660 533 532 c 0,7,8
 533 399 533 399 480 357 c 0,9,10
 454 337 454 337 430.5 330.5 c 128,-1,11
 407 324 407 324 374 323 c 1,12,-1
 535 0 l 1,13,-1
 510 0 l 1,14,-1
 348 323 l 1,15,16
 114 327 114 327 105 333 c 1,17,-1
 105 0 l 1,18,-1
 81 0 l 1,0,-1
105 347 m 1,19,-1
 357 347 l 2,20,21
 391 347 391 347 415 353.5 c 128,-1,22
 439 360 439 360 462 378 c 1,23,24
 508 417 508 417 508 532 c 0,25,26
 508 657 508 657 443 690 c 0,27,28
 408 707 408 707 357 707 c 2,29,-1
 105 707 l 1,30,-1
 105 347 l 1,19,-1
EndSplineSet
Substitution2: "'c2sc' Capitals to Small Capitals in Latin lookup 2 subtable" r.smcp
EndChar

StartChar: S
Encoding: 83 83 54
Width: 586
GlyphClass: 2
Flags: W
LayerCount: 2
Fore
SplineSet
88 494 m 2,0,-1
 88 560 l 2,1,2
 88 661 88 661 137.5 699.5 c 128,-1,3
 187 738 187 738 287 738 c 128,-1,4
 387 738 387 738 503 719 c 1,5,-1
 503 706 l 1,6,-1
 281 714 l 2,7,8
 274 714 274 714 268 714 c 0,9,10
 195 714 195 714 153.5 680.5 c 128,-1,11
 112 647 112 647 112 560 c 2,12,-1
 112 494 l 2,13,14
 112 421 112 421 147.5 396 c 128,-1,15
 183 371 183 371 259 371 c 2,16,-1
 373 371 l 2,17,18
 465 371 465 371 500 332.5 c 128,-1,19
 535 294 535 294 535 224 c 2,20,-1
 535 156 l 2,21,22
 535 54 535 54 474 20 c 0,23,24
 424 -8 424 -8 341 -8 c 0,25,26
 299 -8 299 -8 218.5 -3.5 c 128,-1,27
 138 1 138 1 106 7 c 1,28,-1
 106 22 l 1,29,30
 172 16 172 16 341 16 c 0,31,32
 420 16 420 16 465.5 46 c 128,-1,33
 511 76 511 76 511 156 c 2,34,-1
 511 224 l 2,35,36
 511 289 511 289 479 318 c 128,-1,37
 447 347 447 347 373 347 c 2,38,-1
 261 347 l 2,39,40
 151 347 151 347 116 392 c 0,41,42
 99 414 99 414 93.5 437 c 128,-1,43
 88 460 88 460 88 494 c 2,0,-1
EndSplineSet
Substitution2: "'c2sc' Capitals to Small Capitals in Latin lookup 2 subtable" s.smcp
EndChar

StartChar: T
Encoding: 84 84 55
Width: 604
GlyphClass: 2
Flags: W
LayerCount: 2
Fore
SplineSet
47 708 m 1,0,-1
 47 732 l 1,1,-1
 565 732 l 1,2,-1
 565 708 l 1,3,-1
 315 708 l 1,4,-1
 315 0 l 1,5,-1
 291 0 l 1,6,-1
 291 708 l 1,7,-1
 47 708 l 1,0,-1
EndSplineSet
Substitution2: "'c2sc' Capitals to Small Capitals in Latin lookup 2 subtable" t.smcp
EndChar

StartChar: U
Encoding: 85 85 56
Width: 683
GlyphClass: 2
Flags: W
LayerCount: 2
Fore
SplineSet
108 320 m 2,0,-1
 108 732 l 1,1,-1
 132 732 l 1,2,-1
 132 320 l 2,3,4
 132 224 132 224 141 184.5 c 128,-1,5
 150 145 150 145 156 123 c 128,-1,6
 162 101 162 101 174.5 85 c 128,-1,7
 187 69 187 69 196.5 57.5 c 128,-1,8
 206 46 206 46 224 39 c 128,-1,9
 242 32 242 32 254 27.5 c 128,-1,10
 266 23 266 23 288 22 c 0,11,12
 325 19 325 19 363 19 c 128,-1,13
 401 19 401 19 425 21.5 c 128,-1,14
 449 24 449 24 478 33.5 c 128,-1,15
 507 43 507 43 525 63 c 128,-1,16
 543 83 543 83 560 115 c 0,17,18
 591 176 591 176 591 320 c 2,19,-1
 591 732 l 1,20,-1
 615 732 l 1,21,-1
 615 320 l 2,22,23
 615 218 615 218 603.5 175 c 128,-1,24
 592 132 592 132 584 107.5 c 128,-1,25
 576 83 576 83 561.5 66 c 128,-1,26
 547 49 547 49 535.5 36.5 c 128,-1,27
 524 24 524 24 504.5 16.5 c 128,-1,28
 485 9 485 9 472 4.5 c 128,-1,29
 459 0 459 0 436 -2 c 0,30,31
 403 -5 403 -5 334.5 -5 c 128,-1,32
 266 -5 266 -5 227 10 c 0,33,34
 141 42 141 42 118 181 c 0,35,36
 108 239 108 239 108 320 c 2,0,-1
EndSplineSet
Substitution2: "'c2sc' Capitals to Small Capitals in Latin lookup 2 subtable" u.smcp
EndChar

StartChar: V
Encoding: 86 86 57
Width: 659
GlyphClass: 2
Flags: W
LayerCount: 2
Fore
SplineSet
61 732 m 1,0,-1
 87 732 l 1,1,-1
 340 24 l 1,2,-1
 605 732 l 1,3,-1
 631 732 l 1,4,-1
 357 0 l 1,5,-1
 323 0 l 1,6,-1
 61 732 l 1,0,-1
EndSplineSet
Substitution2: "'c2sc' Capitals to Small Capitals in Latin lookup 2 subtable" v.smcp
EndChar

StartChar: W
Encoding: 87 87 58
Width: 971
GlyphClass: 2
Flags: W
LayerCount: 2
Fore
SplineSet
61 732 m 1,0,-1
 87 732 l 1,1,-1
 340 24 l 1,2,-1
 585 732 l 1,3,-1
 611 732 l 1,4,-1
 508 431 l 1,5,-1
 671 24 l 1,6,-1
 919 732 l 1,7,-1
 943 732 l 1,8,-1
 689 0 l 1,9,-1
 655 0 l 1,10,-1
 495 396 l 1,11,-1
 357 0 l 1,12,-1
 323 0 l 1,13,-1
 61 732 l 1,0,-1
EndSplineSet
Substitution2: "'c2sc' Capitals to Small Capitals in Latin lookup 2 subtable" w.smcp
EndChar

StartChar: X
Encoding: 88 88 59
Width: 565
GlyphClass: 2
Flags: W
LayerCount: 2
Fore
SplineSet
61 732 m 1,0,-1
 92 732 l 1,1,-1
 298 388 l 1,2,-1
 506 732 l 1,3,-1
 537 732 l 1,4,-1
 314 363 l 1,5,-1
 532 0 l 1,6,-1
 501 0 l 1,7,-1
 298 337 l 1,8,-1
 95 0 l 1,9,-1
 64 0 l 1,10,-1
 283 363 l 1,11,-1
 61 732 l 1,0,-1
EndSplineSet
AlternateSubs2: "'salt' Stylistic Alternatives in Latin lookup 16 subtable" X.salt
Substitution2: "'c2sc' Capitals to Small Capitals in Latin lookup 2 subtable" x.smcp
EndChar

StartChar: Y
Encoding: 89 89 60
Width: 619
GlyphClass: 2
Flags: W
LayerCount: 2
Fore
SplineSet
328 0 m 1,0,-1
 304 0 l 1,1,-1
 304 260 l 1,2,-1
 61 732 l 1,3,-1
 88 732 l 1,4,-1
 316 291 l 1,5,-1
 564 732 l 1,6,-1
 591 732 l 1,7,-1
 328 260 l 1,8,-1
 328 0 l 1,0,-1
EndSplineSet
Substitution2: "'c2sc' Capitals to Small Capitals in Latin lookup 2 subtable" y.smcp
EndChar

StartChar: Z
Encoding: 90 90 61
Width: 549
GlyphClass: 2
Flags: W
LayerCount: 2
Fore
SplineSet
47 0 m 1,0,-1
 47 24 l 1,1,-1
 480 708 l 1,2,-1
 47 708 l 1,3,-1
 47 732 l 1,4,-1
 510 732 l 1,5,-1
 510 708 l 1,6,-1
 77 24 l 1,7,-1
 510 24 l 1,8,-1
 510 0 l 1,9,-1
 47 0 l 1,0,-1
EndSplineSet
Substitution2: "'c2sc' Capitals to Small Capitals in Latin lookup 2 subtable" z.smcp
EndChar

StartChar: bracketleft
Encoding: 91 91 62
Width: 327
GlyphClass: 2
Flags: W
LayerCount: 2
Fore
SplineSet
115 -38 m 2,0,-1
 115 670 l 2,1,2
 115 728 115 728 137 778 c 0,3,4
 150 807 150 807 179 824.5 c 128,-1,5
 208 842 208 842 251 842 c 2,6,-1
 301 842 l 1,7,-1
 301 818 l 1,8,-1
 251 818 l 2,9,10
 199 818 199 818 169 782 c 128,-1,11
 139 746 139 746 139 670 c 2,12,-1
 139 -38 l 2,13,14
 139 -104 139 -104 166 -145 c 128,-1,15
 193 -186 193 -186 251 -186 c 2,16,-1
 301 -186 l 1,17,-1
 301 -210 l 1,18,-1
 251 -210 l 2,19,20
 208 -210 208 -210 179 -192.5 c 128,-1,21
 150 -175 150 -175 137 -146 c 0,22,23
 115 -96 115 -96 115 -38 c 2,0,-1
EndSplineSet
EndChar

StartChar: backslash
Encoding: 92 92 63
Width: 354
GlyphClass: 2
Flags: W
LayerCount: 2
Fore
SplineSet
27 770 m 1,0,-1
 46 770 l 1,1,-1
 327 -72 l 1,2,-1
 308 -72 l 1,3,-1
 27 770 l 1,0,-1
EndSplineSet
EndChar

StartChar: bracketright
Encoding: 93 93 64
Width: 327
GlyphClass: 2
Flags: W
LayerCount: 2
Fore
SplineSet
27 -186 m 1,0,-1
 77 -186 l 2,1,2
 135 -186 135 -186 162 -145 c 128,-1,3
 189 -104 189 -104 189 -38 c 2,4,-1
 189 670 l 2,5,6
 189 746 189 746 159 782 c 128,-1,7
 129 818 129 818 77 818 c 2,8,-1
 27 818 l 1,9,-1
 27 842 l 1,10,-1
 77 842 l 2,11,12
 120 842 120 842 149 824.5 c 128,-1,13
 178 807 178 807 191 778 c 0,14,15
 213 728 213 728 213 670 c 2,16,-1
 213 -38 l 2,17,18
 213 -96 213 -96 191 -146 c 0,19,20
 178 -175 178 -175 149 -192.5 c 128,-1,21
 120 -210 120 -210 77 -210 c 2,22,-1
 27 -210 l 1,23,-1
 27 -186 l 1,0,-1
EndSplineSet
EndChar

StartChar: asciicircum
Encoding: 94 94 65
Width: 407
GlyphClass: 2
Flags: W
LayerCount: 2
Fore
SplineSet
68 531 m 1,0,-1
 200 661 l 1,1,-1
 220 661 l 1,2,-1
 340 531 l 1,3,-1
 322 531 l 1,4,-1
 210 646 l 1,5,-1
 86 531 l 1,6,-1
 68 531 l 1,0,-1
EndSplineSet
EndChar

StartChar: underscore
Encoding: 95 95 66
Width: 658
GlyphClass: 2
Flags: W
LayerCount: 2
Fore
SplineSet
27 -1 m 1,0,-1
 27 23 l 1,1,-1
 631 23 l 1,2,-1
 631 -1 l 1,3,-1
 27 -1 l 1,0,-1
EndSplineSet
EndChar

StartChar: grave
Encoding: 96 96 67
Width: 201
GlyphClass: 2
Flags: W
LayerCount: 2
Fore
SplineSet
27 664 m 1,0,-1
 53 664 l 1,1,-1
 174 531 l 1,2,-1
 160 531 l 1,3,-1
 27 664 l 1,0,-1
EndSplineSet
Substitution2: "'smcp' Lowercase to Small Capitals lookup 1 subtable" grave.smcp
EndChar

StartChar: a
Encoding: 97 97 68
Width: 520
GlyphClass: 2
Flags: W
LayerCount: 2
Fore
SplineSet
71 510 m 1,0,1
 197 541 197 541 303 541 c 0,2,3
 368 541 368 541 410.5 503 c 128,-1,4
 453 465 453 465 453 387 c 2,5,-1
 453 0 l 1,6,-1
 438 0 l 1,7,-1
 429 64 l 1,8,-1
 413 57 l 2,9,10
 269 -6 269 -6 187 -6 c 0,11,12
 130 -6 130 -6 92 29 c 128,-1,13
 54 64 54 64 54 126 c 2,14,-1
 54 187 l 2,15,16
 54 250 54 250 89.5 285 c 128,-1,17
 125 320 125 320 187 320 c 0,18,19
 308 320 308 320 368.5 320 c 128,-1,20
 429 320 429 320 429 320 c 1,21,22
 430 353 430 353 430 369.5 c 128,-1,23
 430 386 430 386 429 387 c 1,24,25
 429 519 429 519 293 519 c 0,26,27
 221 519 221 519 71 496 c 1,28,-1
 71 510 l 1,0,1
78 131 m 2,29,30
 78 73 78 73 110 46 c 0,31,32
 144 18 144 18 185.5 18 c 128,-1,33
 227 18 227 18 285.5 32.5 c 128,-1,34
 344 47 344 47 386 62 c 2,35,-1
 429 78 l 1,36,-1
 429 306 l 1,37,-1
 187 296 l 2,38,39
 78 292 78 292 78 187 c 2,40,-1
 78 131 l 2,29,30
EndSplineSet
AlternateSubs2: "'salt' Stylistic Alternatives in Latin lookup 16 subtable" a.salt
Substitution2: "'smcp' Lowercase to Small Capitals lookup 1 subtable" a.smcp
EndChar

StartChar: b
Encoding: 98 98 69
Width: 552
GlyphClass: 2
Flags: W
LayerCount: 2
Fore
SplineSet
81 0 m 1,0,-1
 81 785 l 1,1,-1
 103 785 l 1,2,-1
 103 499 l 1,3,4
 148 517 148 517 205.5 528 c 128,-1,5
 263 539 263 539 300 539 c 0,6,7
 485 539 485 539 485 263 c 0,8,9
 485 161 485 161 447 83 c 0,10,11
 427 42 427 42 389.5 18 c 128,-1,12
 352 -6 352 -6 302 -6 c 128,-1,13
 252 -6 252 -6 189 16.5 c 128,-1,14
 126 39 126 39 104 59 c 1,15,-1
 94 0 l 1,16,-1
 81 0 l 1,0,-1
300 18 m 0,17,18
 369 18 369 18 415 79 c 128,-1,19
 461 140 461 140 461 272 c 128,-1,20
 461 404 461 404 417 459.5 c 128,-1,21
 373 515 373 515 296 515 c 128,-1,22
 219 515 219 515 104 485 c 1,23,-1
 104 73 l 1,24,25
 212 18 212 18 300 18 c 0,17,18
EndSplineSet
AlternateSubs2: "'salt' Stylistic Alternatives in Latin lookup 16 subtable" b.salt
Substitution2: "'smcp' Lowercase to Small Capitals lookup 1 subtable" b.smcp
EndChar

StartChar: c
Encoding: 99 99 70
Width: 501
GlyphClass: 2
Flags: W
LayerCount: 2
Fore
SplineSet
68 266 m 128,-1,1
 68 350 68 350 80 405.5 c 128,-1,2
 92 461 92 461 117 488.5 c 128,-1,3
 142 516 142 516 171 526 c 128,-1,4
 200 536 200 536 262.5 536 c 128,-1,5
 325 536 325 536 440 510 c 1,6,-1
 440 496 l 1,7,8
 331 512 331 512 267.5 512 c 128,-1,9
 204 512 204 512 179.5 503 c 128,-1,10
 155 494 155 494 134 468 c 0,11,12
 92 419 92 419 92 262 c 0,13,14
 92 114 92 114 136 63 c 0,15,16
 157 38 157 38 182 28.5 c 128,-1,17
 207 19 207 19 245 19 c 0,18,19
 318 19 318 19 417 35 c 2,20,-1
 448 40 l 1,21,-1
 448 24 l 1,22,23
 350 -4 350 -4 242 -5 c 0,24,25
 201 -5 201 -5 172.5 5 c 128,-1,26
 144 15 144 15 118.5 42.5 c 128,-1,27
 93 70 93 70 80.5 126 c 128,-1,0
 68 182 68 182 68 266 c 128,-1,1
EndSplineSet
Substitution2: "'smcp' Lowercase to Small Capitals lookup 1 subtable" c.smcp
EndChar

StartChar: d
Encoding: 100 100 71
Width: 552
GlyphClass: 2
Flags: W
LayerCount: 2
Fore
SplineSet
68 263 m 0,0,1
 68 539 68 539 252 539 c 0,2,3
 289 539 289 539 347 528 c 128,-1,4
 405 517 405 517 450 499 c 1,5,-1
 450 785 l 1,6,-1
 471 785 l 1,7,-1
 471 0 l 1,8,-1
 458 0 l 1,9,-1
 448 59 l 1,10,11
 426 39 426 39 363 16.5 c 128,-1,12
 300 -6 300 -6 250 -6 c 128,-1,13
 200 -6 200 -6 162.5 18 c 128,-1,14
 125 42 125 42 106 83 c 0,15,16
 68 162 68 162 68 263 c 0,0,1
137 77 m 128,-1,18
 182 18 182 18 252 18 c 0,19,20
 340 18 340 18 448 73 c 1,21,-1
 448 485 l 1,22,23
 333 515 333 515 252 515 c 0,24,25
 217 515 217 515 191 504.5 c 128,-1,26
 165 494 165 494 141 468 c 0,27,28
 92 415 92 415 92 275.5 c 128,-1,17
 92 136 92 136 137 77 c 128,-1,18
EndSplineSet
AlternateSubs2: "'salt' Stylistic Alternatives in Latin lookup 16 subtable" d.salt
Substitution2: "'smcp' Lowercase to Small Capitals lookup 1 subtable" d.smcp
EndChar

StartChar: e
Encoding: 101 101 72
Width: 526
GlyphClass: 2
Flags: W
LayerCount: 2
Fore
SplineSet
96 463 m 0,0,1
 119 516 119 516 192 530 c 0,2,3
 222 535 222 535 267 535 c 128,-1,4
 312 535 312 535 338 532.5 c 128,-1,5
 364 530 364 530 392.5 519.5 c 128,-1,6
 421 509 421 509 436 490 c 0,7,8
 472 445 472 445 472 347 c 0,9,10
 472 291 472 291 439 270.5 c 128,-1,11
 406 250 406 250 336 250 c 2,12,-1
 92 250 l 1,13,14
 92 104 92 104 135 58 c 0,15,16
 157 35 157 35 181.5 27 c 128,-1,17
 206 19 206 19 266 19 c 128,-1,18
 326 19 326 19 462 39 c 1,19,-1
 462 23 l 1,20,21
 361 -5 361 -5 250 -5 c 0,22,23
 143 -5 143 -5 105.5 56.5 c 128,-1,24
 68 118 68 118 68 258 c 128,-1,25
 68 398 68 398 96 463 c 0,0,1
92 273 m 1,26,-1
 336 273 l 2,27,28
 420 273 420 273 439 306 c 0,29,30
 448 322 448 322 448 362 c 128,-1,31
 448 402 448 402 437.5 435.5 c 128,-1,32
 427 469 427 469 402 485.5 c 128,-1,33
 377 502 377 502 348.5 506.5 c 128,-1,34
 320 511 320 511 258 511 c 128,-1,35
 196 511 196 511 160.5 494.5 c 128,-1,36
 125 478 125 478 108.5 428 c 128,-1,37
 92 378 92 378 92 273 c 1,26,-1
EndSplineSet
Substitution2: "'smcp' Lowercase to Small Capitals lookup 1 subtable" e.smcp
EndChar

StartChar: f
Encoding: 102 102 73
Width: 384
GlyphClass: 2
Flags: W
LayerCount: 2
Fore
SplineSet
27 507 m 1,0,-1
 27 521 l 1,1,-1
 114 531 l 1,2,-1
 114 630 l 2,3,4
 114 711 114 711 135 748 c 0,5,6
 144 763 144 763 162.5 774.5 c 128,-1,7
 181 786 181 786 207 786 c 0,8,9
 317 786 317 786 357 775 c 1,10,-1
 357 762 l 1,11,-1
 215 762 l 2,12,13
 168 762 168 762 153 729.5 c 128,-1,14
 138 697 138 697 138 630 c 2,15,-1
 138 531 l 1,16,-1
 316 531 l 1,17,-1
 316 507 l 1,18,-1
 138 507 l 1,19,-1
 138 0 l 1,20,-1
 114 0 l 1,21,-1
 114 507 l 1,22,-1
 27 507 l 1,0,-1
EndSplineSet
AlternateSubs2: "'salt' Stylistic Alternatives in Latin lookup 16 subtable" f.salt
Substitution2: "'smcp' Lowercase to Small Capitals lookup 1 subtable" f.smcp
EndChar

StartChar: g
Encoding: 103 103 74
Width: 572
GlyphClass: 2
Flags: W
LayerCount: 2
Fore
SplineSet
64 120 m 128,-1,1
 64 145 64 145 86 166 c 128,-1,2
 108 187 108 187 149 188 c 1,3,4
 62 223 62 223 62 344 c 0,5,6
 62 443 62 443 102.5 488 c 128,-1,7
 143 533 143 533 234 533 c 2,8,-1
 546 533 l 1,9,-1
 546 519 l 1,10,-1
 435 509 l 1,11,12
 496 465 496 465 496 344 c 0,13,14
 496 288 496 288 467 236 c 0,15,16
 451 208 451 208 416 190.5 c 128,-1,17
 381 173 381 173 331 173 c 2,18,-1
 175 173 l 2,19,20
 156 173 156 173 132 166 c 0,21,22
 86 153 86 153 86 116 c 0,23,24
 86 89 86 89 112.5 74.5 c 128,-1,25
 139 60 139 60 166 60 c 2,26,-1
 372 60 l 2,27,28
 441 60 441 60 479 24 c 128,-1,29
 517 -12 517 -12 517 -73 c 2,30,-1
 517 -126 l 2,31,32
 517 -270 517 -270 367 -270 c 2,33,-1
 217 -270 l 2,34,35
 145 -270 145 -270 103 -229.5 c 128,-1,36
 61 -189 61 -189 61 -116 c 2,37,-1
 61 -22 l 1,38,-1
 73 83 l 1,39,0
 64 95 64 95 64 120 c 128,-1,1
86 -116 m 2,40,41
 86 -155 86 -155 100.5 -183 c 128,-1,42
 115 -211 115 -211 138 -224 c 0,43,44
 178 -246 178 -246 217 -246 c 2,45,-1
 367 -246 l 2,46,47
 493 -246 493 -246 493 -126 c 2,48,-1
 493 -73 l 2,49,50
 493 -24 493 -24 464.5 6.5 c 128,-1,51
 436 37 436 37 372 37 c 2,52,-1
 168 37 l 2,53,54
 144 37 144 37 123.5 44.5 c 128,-1,55
 103 52 103 52 94 59 c 2,56,-1
 86 66 l 1,57,-1
 86 -116 l 2,40,41
86 344 m 0,58,59
 86 198 86 198 227 198 c 2,60,-1
 329 198 l 2,61,62
 404 198 404 198 438 239.5 c 128,-1,63
 472 281 472 281 472 352.5 c 128,-1,64
 472 424 472 424 442.5 466.5 c 128,-1,65
 413 509 413 509 372 509 c 2,66,-1
 224 509 l 2,67,68
 146 509 146 509 116 466.5 c 128,-1,69
 86 424 86 424 86 344 c 0,58,59
EndSplineSet
AlternateSubs2: "'salt' Stylistic Alternatives in Latin lookup 16 subtable" g.salt
Substitution2: "'smcp' Lowercase to Small Capitals lookup 1 subtable" g.smcp
EndChar

StartChar: h
Encoding: 104 104 75
Width: 552
GlyphClass: 2
Flags: W
LayerCount: 2
Fore
SplineSet
81 0 m 1,0,-1
 81 784 l 1,1,-1
 105 784 l 1,2,-1
 105 469 l 1,3,4
 213 540 213 540 321 540 c 0,5,6
 397 540 397 540 441 490 c 128,-1,7
 485 440 485 440 485 370 c 2,8,-1
 485 0 l 1,9,-1
 461 0 l 1,10,-1
 461 370 l 2,11,12
 461 435 461 435 423.5 475.5 c 128,-1,13
 386 516 386 516 322.5 516 c 128,-1,14
 259 516 259 516 212 502 c 128,-1,15
 165 488 165 488 105 455 c 1,16,-1
 105 0 l 1,17,-1
 81 0 l 1,0,-1
EndSplineSet
Substitution2: "'smcp' Lowercase to Small Capitals lookup 1 subtable" h.smcp
EndChar

StartChar: i
Encoding: 105 105 76
Width: 170
GlyphClass: 2
Flags: W
LayerCount: 2
Fore
SplineSet
68 622 m 2,0,-1
 68 684 l 2,1,2
 68 696 68 696 80 696 c 2,3,-1
 91 696 l 2,4,5
 102 696 102 696 102 684 c 2,6,-1
 102 622 l 2,7,8
 102 610 102 610 91 610 c 2,9,-1
 80 610 l 2,10,11
 68 610 68 610 68 622 c 2,0,-1
72 0 m 1,12,-1
 72 531 l 1,13,-1
 96 531 l 1,14,-1
 96 0 l 1,15,-1
 72 0 l 1,12,-1
EndSplineSet
Substitution2: "'smcp' Lowercase to Small Capitals lookup 1 subtable" i.smcp
EndChar

StartChar: j
Encoding: 106 106 77
Width: 197
GlyphClass: 2
Flags: W
LayerCount: 2
Fore
SplineSet
81 622 m 2,0,-1
 81 684 l 2,1,2
 81 696 81 696 93 696 c 2,3,-1
 104 696 l 2,4,5
 116 696 116 696 116 684 c 2,6,-1
 116 622 l 2,7,8
 116 610 116 610 104 610 c 2,9,-1
 93 610 l 2,10,11
 81 610 81 610 81 622 c 2,0,-1
87 -270 m 1,12,-1
 87 531 l 1,13,-1
 111 531 l 1,14,-1
 111 -4 l 2,15,16
 111 -27 111 -27 111 -107.5 c 128,-1,17
 111 -188 111 -188 100 -270 c 1,18,-1
 87 -270 l 1,12,-1
EndSplineSet
Substitution2: "'smcp' Lowercase to Small Capitals lookup 1 subtable" j.smcp
EndChar

StartChar: k
Encoding: 107 107 78
Width: 498
GlyphClass: 2
Flags: W
LayerCount: 2
Fore
SplineSet
81 0 m 1,0,-1
 81 782 l 1,1,-1
 105 782 l 1,2,-1
 105 317 l 1,3,-1
 165 317 l 1,4,-1
 433 531 l 1,5,-1
 471 531 l 1,6,-1
 189 304 l 1,7,-1
 470 0 l 1,8,-1
 435 0 l 1,9,-1
 165 293 l 1,10,-1
 105 293 l 1,11,-1
 105 0 l 1,12,-1
 81 0 l 1,0,-1
EndSplineSet
Substitution2: "'smcp' Lowercase to Small Capitals lookup 1 subtable" k.smcp
EndChar

StartChar: l
Encoding: 108 108 79
Width: 298
GlyphClass: 2
Flags: W
LayerCount: 2
Fore
SplineSet
81 189 m 2,0,-1
 81 783 l 1,1,-1
 105 783 l 1,2,-1
 105 189 l 2,3,4
 105 66 105 66 152 38 c 0,5,6
 168 29 168 29 175 27.5 c 128,-1,7
 182 26 182 26 223 19.5 c 128,-1,8
 264 13 264 13 271 13 c 1,9,-1
 271 0 l 1,10,-1
 204 0 l 2,11,12
 141 0 141 0 111 45.5 c 128,-1,13
 81 91 81 91 81 189 c 2,0,-1
EndSplineSet
Substitution2: "'smcp' Lowercase to Small Capitals lookup 1 subtable" l.smcp
EndChar

StartChar: m
Encoding: 109 109 80
Width: 931
GlyphClass: 2
Flags: W
LayerCount: 2
Fore
SplineSet
81 0 m 1,0,-1
 81 531 l 1,1,-1
 95 531 l 1,2,-1
 105 469 l 1,3,4
 213 540 213 540 316.5 540 c 128,-1,5
 420 540 420 540 464 458 c 1,6,7
 506 490 506 490 574.5 515 c 128,-1,8
 643 540 643 540 700 540 c 0,9,10
 776 540 776 540 820 490 c 128,-1,11
 864 440 864 440 864 370 c 2,12,-1
 864 0 l 1,13,-1
 840 0 l 1,14,-1
 840 370 l 2,15,16
 840 432 840 432 802 474 c 128,-1,17
 764 516 764 516 700 516 c 0,18,19
 600 516 600 516 469 446 c 1,20,21
 485 408 485 408 485 370 c 2,22,-1
 485 0 l 1,23,-1
 461 0 l 1,24,-1
 461 370 l 2,25,26
 461 432 461 432 423 474 c 128,-1,27
 385 516 385 516 322 516 c 128,-1,28
 259 516 259 516 212 502 c 128,-1,29
 165 488 165 488 105 455 c 1,30,-1
 105 0 l 1,31,-1
 81 0 l 1,0,-1
EndSplineSet
AlternateSubs2: "'salt' Stylistic Alternatives in Latin lookup 16 subtable" m.salt
Substitution2: "'smcp' Lowercase to Small Capitals lookup 1 subtable" m.smcp
EndChar

StartChar: n
Encoding: 110 110 81
Width: 552
GlyphClass: 2
Flags: W
LayerCount: 2
Fore
SplineSet
81 0 m 1,0,-1
 81 531 l 1,1,-1
 95 531 l 1,2,-1
 105 469 l 1,3,4
 213 540 213 540 321 540 c 0,5,6
 397 540 397 540 441 490 c 128,-1,7
 485 440 485 440 485 370 c 2,8,-1
 485 0 l 1,9,-1
 461 0 l 1,10,-1
 461 370 l 2,11,12
 461 432 461 432 423 474 c 128,-1,13
 385 516 385 516 322 516 c 128,-1,14
 259 516 259 516 212 502 c 128,-1,15
 165 488 165 488 105 455 c 1,16,-1
 105 0 l 1,17,-1
 81 0 l 1,0,-1
EndSplineSet
AlternateSubs2: "'salt' Stylistic Alternatives in Latin lookup 16 subtable" n.salt
Substitution2: "'smcp' Lowercase to Small Capitals lookup 1 subtable" n.smcp
EndChar

StartChar: o
Encoding: 111 111 82
Width: 573
GlyphClass: 2
Flags: W
LayerCount: 2
Fore
SplineSet
113 53 m 128,-1,1
 68 111 68 111 68 264.5 c 128,-1,2
 68 418 68 418 116 477 c 128,-1,3
 164 536 164 536 287.5 536 c 128,-1,4
 411 536 411 536 458.5 470.5 c 128,-1,5
 506 405 506 405 506 258 c 128,-1,6
 506 111 506 111 458.5 53 c 128,-1,7
 411 -5 411 -5 284.5 -5 c 128,-1,0
 158 -5 158 -5 113 53 c 128,-1,1
104.5 395.5 m 128,-1,9
 92 343 92 343 92 261.5 c 128,-1,10
 92 180 92 180 103.5 131.5 c 128,-1,11
 115 83 115 83 142 59 c 128,-1,12
 169 35 169 35 201 27 c 128,-1,13
 233 19 233 19 285.5 19 c 128,-1,14
 338 19 338 19 371.5 28 c 128,-1,15
 405 37 405 37 432 62 c 1,16,17
 482 111 482 111 482 258 c 0,18,19
 482 415 482 415 428 466 c 1,20,21
 401 493 401 493 368.5 502.5 c 128,-1,22
 336 512 336 512 285.5 512 c 128,-1,23
 235 512 235 512 204 504.5 c 128,-1,24
 173 497 173 497 145 472.5 c 128,-1,8
 117 448 117 448 104.5 395.5 c 128,-1,9
EndSplineSet
Substitution2: "'smcp' Lowercase to Small Capitals lookup 1 subtable" o.smcp
EndChar

StartChar: p
Encoding: 112 112 83
Width: 552
GlyphClass: 2
Flags: W
LayerCount: 2
Fore
SplineSet
81 -268 m 1,0,-1
 81 531 l 1,1,-1
 94 531 l 1,2,-1
 105 472 l 1,3,4
 127 492 127 492 189.5 514.5 c 128,-1,5
 252 537 252 537 302 537 c 128,-1,6
 352 537 352 537 389.5 513 c 128,-1,7
 427 489 427 489 447 448 c 0,8,9
 485 370 485 370 485 268 c 0,10,11
 485 -8 485 -8 300 -8 c 0,12,13
 263 -8 263 -8 206 3 c 128,-1,14
 149 14 149 14 104 32 c 1,15,-1
 104 -268 l 1,16,-1
 81 -268 l 1,0,-1
105 46 m 1,17,18
 220 16 220 16 296.5 16 c 128,-1,19
 373 16 373 16 417 71.5 c 128,-1,20
 461 127 461 127 461 259 c 128,-1,21
 461 391 461 391 415 452 c 128,-1,22
 369 513 369 513 300 513 c 0,23,24
 213 513 213 513 105 458 c 1,25,-1
 105 46 l 1,17,18
EndSplineSet
AlternateSubs2: "'salt' Stylistic Alternatives in Latin lookup 16 subtable" p.salt
Substitution2: "'smcp' Lowercase to Small Capitals lookup 1 subtable" p.smcp
EndChar

StartChar: q
Encoding: 113 113 84
Width: 558
GlyphClass: 2
Flags: W
LayerCount: 2
Fore
SplineSet
114 467 m 128,-1,1
 160 537 160 537 252 537 c 0,2,3
 404 537 404 537 478 525 c 1,4,-1
 478 -270 l 1,5,-1
 454 -270 l 1,6,-1
 454 29 l 1,7,8
 410 11 410 11 350.5 0.5 c 128,-1,9
 291 -10 291 -10 243.5 -10 c 128,-1,10
 196 -10 196 -10 159 10.5 c 128,-1,11
 122 31 122 31 102 70 c 0,12,13
 68 140 68 140 68 268.5 c 128,-1,0
 68 397 68 397 114 467 c 128,-1,1
92 268 m 0,14,15
 92 140 92 140 127.5 77 c 128,-1,16
 163 14 163 14 247 14 c 128,-1,17
 331 14 331 14 454 45 c 1,18,-1
 454 513 l 1,19,-1
 252 513 l 2,20,21
 92 513 92 513 92 268 c 0,14,15
EndSplineSet
Substitution2: "'smcp' Lowercase to Small Capitals lookup 1 subtable" q.smcp
EndChar

StartChar: r
Encoding: 114 114 85
Width: 424
GlyphClass: 2
Flags: W
LayerCount: 2
Fore
SplineSet
81 0 m 1,0,-1
 81 531 l 1,1,-1
 93 531 l 1,2,-1
 105 464 l 1,3,4
 146 487 146 487 170.5 499.5 c 128,-1,5
 195 512 195 512 238 524.5 c 128,-1,6
 281 537 281 537 327.5 537 c 128,-1,7
 374 537 374 537 397 529 c 1,8,-1
 397 506 l 1,9,10
 363 513 363 513 332 513 c 128,-1,11
 301 513 301 513 280 510 c 128,-1,12
 259 507 259 507 245.5 504 c 128,-1,13
 232 501 232 501 208.5 491.5 c 128,-1,14
 185 482 185 482 177 478.5 c 128,-1,15
 169 475 169 475 140.5 461 c 128,-1,16
 112 447 112 447 105 444 c 1,17,-1
 105 0 l 1,18,-1
 81 0 l 1,0,-1
EndSplineSet
AlternateSubs2: "'salt' Stylistic Alternatives in Latin lookup 16 subtable" r.salt
Substitution2: "'smcp' Lowercase to Small Capitals lookup 1 subtable" r.smcp
EndChar

StartChar: s
Encoding: 115 115 86
Width: 504
GlyphClass: 2
Flags: W
LayerCount: 2
Fore
SplineSet
54 363 m 2,0,-1
 54 409 l 2,1,2
 54 473 54 473 85.5 504.5 c 128,-1,3
 117 536 117 536 192 536 c 0,4,5
 329 536 329 536 423 527 c 1,6,-1
 423 513 l 1,7,-1
 192 513 l 2,8,9
 130 513 130 513 104 488.5 c 128,-1,10
 78 464 78 464 78 409 c 2,11,-1
 78 363 l 2,12,13
 78 318 78 318 96 295 c 0,14,15
 111 276 111 276 192 276 c 2,16,-1
 320 276 l 2,17,18
 379 276 379 276 414.5 246.5 c 128,-1,19
 450 217 450 217 450 162 c 2,20,-1
 450 113 l 2,21,22
 450 35 450 35 408 13 c 0,23,24
 374 -5 374 -5 320 -5 c 0,25,26
 171 -5 171 -5 76 5 c 1,27,-1
 76 19 l 1,28,-1
 320 19 l 2,29,30
 399 19 399 19 417 60 c 0,31,32
 426 80 426 80 426 113 c 2,33,-1
 426 162 l 2,34,35
 426 201 426 201 398.5 226.5 c 128,-1,36
 371 252 371 252 320 252 c 2,37,-1
 192 252 l 2,38,39
 114 252 114 252 84 271.5 c 128,-1,40
 54 291 54 291 54 363 c 2,0,-1
EndSplineSet
Substitution2: "'smcp' Lowercase to Small Capitals lookup 1 subtable" s.smcp
EndChar

StartChar: t
Encoding: 116 116 87
Width: 350
GlyphClass: 2
Flags: W
LayerCount: 2
Fore
SplineSet
27 508 m 1,0,-1
 27 524 l 1,1,-1
 111 532 l 1,2,-1
 119 680 l 1,3,-1
 135 680 l 1,4,-1
 135 532 l 1,5,-1
 310 532 l 1,6,-1
 310 508 l 1,7,-1
 135 508 l 1,8,-1
 135 188 l 2,9,10
 135 65 135 65 182 38 c 0,11,12
 198 28 198 28 205 26.5 c 128,-1,13
 212 25 212 25 253 18.5 c 128,-1,14
 294 12 294 12 301 12 c 1,15,-1
 301 -1 l 1,16,-1
 234 -1 l 2,17,18
 171 -1 171 -1 141 44.5 c 128,-1,19
 111 90 111 90 111 188 c 2,20,-1
 111 508 l 1,21,-1
 27 508 l 1,0,-1
EndSplineSet
AlternateSubs2: "'salt' Stylistic Alternatives in Latin lookup 16 subtable" t.salt
Substitution2: "'smcp' Lowercase to Small Capitals lookup 1 subtable" t.smcp
EndChar

StartChar: u
Encoding: 117 117 88
Width: 552
GlyphClass: 2
Flags: W
LayerCount: 2
Fore
SplineSet
68 162 m 2,0,-1
 68 532 l 1,1,-1
 92 532 l 1,2,-1
 92 162 l 2,3,4
 92 100 92 100 130 58 c 128,-1,5
 168 16 168 16 231 16 c 128,-1,6
 294 16 294 16 341 30 c 128,-1,7
 388 44 388 44 448 77 c 1,8,-1
 448 532 l 1,9,-1
 472 532 l 1,10,-1
 472 1 l 1,11,-1
 458 1 l 1,12,-1
 448 63 l 1,13,14
 340 -8 340 -8 232 -8 c 0,15,16
 156 -8 156 -8 112 42 c 128,-1,17
 68 92 68 92 68 162 c 2,0,-1
EndSplineSet
AlternateSubs2: "'salt' Stylistic Alternatives in Latin lookup 16 subtable" u.salt
Substitution2: "'smcp' Lowercase to Small Capitals lookup 1 subtable" u.smcp
EndChar

StartChar: v
Encoding: 118 118 89
Width: 520
GlyphClass: 2
Flags: W
LayerCount: 2
Fore
SplineSet
27 531 m 1,0,-1
 51 531 l 1,1,-1
 258 33 l 1,2,-1
 469 531 l 1,3,-1
 493 531 l 1,4,-1
 271 0 l 1,5,-1
 245 0 l 1,6,-1
 27 531 l 1,0,-1
EndSplineSet
Substitution2: "'smcp' Lowercase to Small Capitals lookup 1 subtable" v.smcp
EndChar

StartChar: w
Encoding: 119 119 90
Width: 777
GlyphClass: 2
Flags: W
LayerCount: 2
Fore
SplineSet
27 531 m 1,0,-1
 52 531 l 1,1,-1
 248 30 l 1,2,-1
 439 531 l 1,3,-1
 463 531 l 1,4,-1
 389 332 l 1,5,-1
 525 30 l 1,6,-1
 727 531 l 1,7,-1
 750 531 l 1,8,-1
 538 0 l 1,9,-1
 512 0 l 1,10,-1
 377 304 l 1,11,-1
 261 0 l 1,12,-1
 235 0 l 1,13,-1
 27 531 l 1,0,-1
EndSplineSet
Substitution2: "'smcp' Lowercase to Small Capitals lookup 1 subtable" w.smcp
EndChar

StartChar: x
Encoding: 120 120 91
Width: 480
GlyphClass: 2
Flags: W
LayerCount: 2
Fore
SplineSet
32 0 m 1,0,-1
 224 266 l 1,1,-1
 32 531 l 1,2,-1
 64 531 l 1,3,-1
 240 288 l 1,4,-1
 416 531 l 1,5,-1
 448 531 l 1,6,-1
 256 266 l 1,7,-1
 448 0 l 1,8,-1
 416 0 l 1,9,-1
 240 243 l 1,10,-1
 64 0 l 1,11,-1
 32 0 l 1,0,-1
EndSplineSet
AlternateSubs2: "'salt' Stylistic Alternatives in Latin lookup 16 subtable" x.salt
Substitution2: "'smcp' Lowercase to Small Capitals lookup 1 subtable" x.smcp
EndChar

StartChar: y
Encoding: 121 121 92
Width: 529
GlyphClass: 2
Flags: W
LayerCount: 2
Fore
SplineSet
28 531 m 1,0,-1
 54 531 l 1,1,-1
 202 116 l 2,2,3
 235 25 235 25 303 25 c 1,4,-1
 474 531 l 1,5,-1
 499 531 l 1,6,-1
 266 -168 l 1,7,-1
 220 -270 l 1,8,-1
 208 -270 l 1,9,-1
 295 0 l 1,10,11
 211 4 211 4 178 110 c 1,12,-1
 28 531 l 1,0,-1
EndSplineSet
Substitution2: "'smcp' Lowercase to Small Capitals lookup 1 subtable" y.smcp
EndChar

StartChar: z
Encoding: 122 122 93
Width: 475
GlyphClass: 2
Flags: W
LayerCount: 2
Fore
SplineSet
40 507 m 1,0,-1
 40 531 l 1,1,-1
 436 531 l 1,2,-1
 436 507 l 1,3,-1
 86 25 l 1,4,-1
 436 25 l 1,5,-1
 436 1 l 1,6,-1
 56 1 l 1,7,-1
 56 25 l 1,8,-1
 404 507 l 1,9,-1
 40 507 l 1,0,-1
EndSplineSet
Substitution2: "'smcp' Lowercase to Small Capitals lookup 1 subtable" z.smcp
EndChar

StartChar: braceleft
Encoding: 123 123 94
Width: 304
GlyphClass: 2
Flags: W
LayerCount: 2
Fore
SplineSet
117 420 m 2,0,-1
 117 656 l 2,1,2
 117 791 117 791 196 827 c 0,3,4
 229 842 229 842 277 842 c 1,5,-1
 277 818 l 1,6,7
 208 818 208 818 174.5 781 c 128,-1,8
 141 744 141 744 141 656 c 2,9,-1
 141 420 l 2,10,11
 141 385 141 385 118 362 c 128,-1,12
 95 339 95 339 61 334 c 1,13,14
 94 329 94 329 117 305.5 c 128,-1,15
 140 282 140 282 140 251 c 2,16,-1
 140 -38 l 2,17,18
 140 -121 140 -121 173 -153.5 c 128,-1,19
 206 -186 206 -186 277 -186 c 1,20,-1
 277 -210 l 1,21,22
 171 -210 171 -210 140 -152 c 0,23,24
 125 -124 125 -124 120.5 -99 c 128,-1,25
 116 -74 116 -74 116 -38 c 2,26,-1
 116 247 l 2,27,28
 116 281 116 281 89 300.5 c 128,-1,29
 62 320 62 320 33 320 c 0,30,31
 30 320 30 320 27 320 c 1,32,-1
 27 347 l 1,33,34
 117 355 117 355 117 420 c 2,0,-1
EndSplineSet
EndChar

StartChar: bar
Encoding: 124 124 95
Width: 254
GlyphClass: 2
Flags: W
LayerCount: 2
Fore
SplineSet
116 -72 m 1,0,-1
 116 770 l 1,1,-1
 140 770 l 1,2,-1
 140 -72 l 1,3,-1
 116 -72 l 1,0,-1
EndSplineSet
EndChar

StartChar: braceright
Encoding: 125 125 96
Width: 304
GlyphClass: 2
Flags: W
LayerCount: 2
Fore
SplineSet
27 -186 m 1,0,1
 98 -186 98 -186 131 -153.5 c 128,-1,2
 164 -121 164 -121 164 -38 c 2,3,-1
 164 251 l 2,4,5
 164 282 164 282 187 305.5 c 128,-1,6
 210 329 210 329 243 334 c 1,7,8
 209 339 209 339 186 362 c 128,-1,9
 163 385 163 385 163 420 c 2,10,-1
 163 656 l 2,11,12
 163 744 163 744 129.5 781 c 128,-1,13
 96 818 96 818 27 818 c 1,14,-1
 27 842 l 1,15,16
 123 842 123 842 158 784 c 0,17,18
 187 735 187 735 187 656 c 2,19,-1
 187 420 l 2,20,21
 187 355 187 355 277 347 c 1,22,-1
 277 320 l 1,23,24
 274 320 274 320 271 320 c 0,25,26
 242 320 242 320 215 300.5 c 128,-1,27
 188 281 188 281 188 247 c 2,28,-1
 188 -38 l 2,29,30
 188 -74 188 -74 183.5 -99 c 128,-1,31
 179 -124 179 -124 164 -152 c 0,32,33
 133 -210 133 -210 27 -210 c 1,34,-1
 27 -186 l 1,0,1
EndSplineSet
EndChar

StartChar: asciitilde
Encoding: 126 126 97
Width: 473
GlyphClass: 2
Flags: W
LayerCount: 2
Fore
SplineSet
175 630 m 128,-1,1
 194 630 194 630 239.5 593.5 c 128,-1,2
 285 557 285 557 300 557 c 0,3,4
 336 557 336 557 400 610 c 1,5,-1
 406 603 l 1,6,7
 386 583 386 583 372 572 c 1,8,9
 337 541 337 541 300 541 c 0,10,11
 278 541 278 541 233.5 577.5 c 128,-1,12
 189 614 189 614 177.5 614 c 128,-1,13
 166 614 166 614 158.5 613 c 128,-1,14
 151 612 151 612 143 608.5 c 128,-1,15
 135 605 135 605 130 603 c 128,-1,16
 125 601 125 601 115 594.5 c 128,-1,17
 105 588 105 588 101.5 585.5 c 128,-1,18
 98 583 98 583 86.5 574.5 c 128,-1,19
 75 566 75 566 72 564 c 1,20,-1
 68 572 l 1,21,22
 110 608 110 608 133 619 c 128,-1,0
 156 630 156 630 175 630 c 128,-1,1
EndSplineSet
EndChar

StartChar: exclamdown
Encoding: 161 161 98
Width: 267
GlyphClass: 2
Flags: W
LayerCount: 2
Fore
SplineSet
112 387 m 2,0,-1
 112 450 l 2,1,2
 112 460 112 460 124 460 c 2,3,-1
 135 460 l 2,4,5
 147 460 147 460 147 450 c 2,6,-1
 147 387 l 2,7,8
 147 374 147 374 135 374 c 2,9,-1
 124 374 l 2,10,11
 112 374 112 374 112 387 c 2,0,-1
119 -270 m 1,12,-1
 124 266 l 1,13,-1
 136 266 l 1,14,-1
 141 -270 l 1,15,-1
 119 -270 l 1,12,-1
EndSplineSet
Substitution2: "'case' Case-Sensitive Forms lookup 18 subtable" exclamdown.alt
Substitution2: "'smcp' Lowercase to Small Capitals lookup 1 subtable" exclamdown.smcp
EndChar

StartChar: cent
Encoding: 162 162 99
Width: 488
GlyphClass: 2
Flags: W
LayerCount: 2
Fore
SplineSet
67 121 m 128,-1,1
 54 177 54 177 54 256.5 c 128,-1,2
 54 336 54 336 63.5 386 c 128,-1,3
 73 436 73 436 88 465 c 128,-1,4
 103 494 103 494 129 510 c 128,-1,5
 155 526 155 526 181.5 531 c 128,-1,6
 208 536 208 536 246 536 c 1,7,-1
 246 618 l 1,8,-1
 264 618 l 1,9,-1
 264 535 l 1,10,11
 345 530 345 530 427 510 c 1,12,-1
 427 496 l 1,13,14
 318 512 318 512 254.5 512 c 128,-1,15
 191 512 191 512 166 503 c 128,-1,16
 141 494 141 494 120 468 c 0,17,18
 78 419 78 419 78 262 c 0,19,20
 78 113 78 113 122 63 c 0,21,22
 144 38 144 38 169 28.5 c 128,-1,23
 194 19 194 19 232 19 c 0,24,25
 304 19 304 19 403 35 c 2,26,-1
 434 40 l 1,27,-1
 434 24 l 1,28,29
 347 -1 347 -1 264 -4 c 1,30,-1
 264 -82 l 1,31,-1
 246 -82 l 1,32,-1
 246 -5 l 1,33,34
 197 -5 197 -5 166.5 3.5 c 128,-1,35
 136 12 136 12 108 38.5 c 128,-1,0
 80 65 80 65 67 121 c 128,-1,1
EndSplineSet
EndChar

StartChar: sterling
Encoding: 163 163 100
Width: 601
GlyphClass: 2
Flags: W
LayerCount: 2
Fore
SplineSet
68 0 m 1,0,-1
 68 14 l 1,1,-1
 140 24 l 1,2,-1
 140 350 l 1,3,-1
 68 350 l 1,4,-1
 68 364 l 1,5,-1
 140 372 l 1,6,-1
 140 505 l 2,7,8
 140 635 140 635 189 684 c 0,9,10
 220 715 220 715 256 722 c 0,11,12
 308 732 308 732 368 732 c 1,13,-1
 534 723 l 1,14,-1
 534 709 l 1,15,-1
 370 709 l 2,16,17
 314 709 314 709 280.5 703 c 128,-1,18
 247 697 247 697 218 676.5 c 128,-1,19
 189 656 189 656 176.5 614.5 c 128,-1,20
 164 573 164 573 164 505 c 2,21,-1
 164 372 l 1,22,-1
 454 364 l 1,23,-1
 454 350 l 1,24,-1
 164 350 l 1,25,-1
 164 24 l 1,26,-1
 532 24 l 1,27,-1
 532 0 l 1,28,-1
 68 0 l 1,0,-1
EndSplineSet
Substitution2: "'smcp' Lowercase to Small Capitals lookup 1 subtable" sterling.smcp
EndChar

StartChar: currency
Encoding: 164 164 101
Width: 466
GlyphClass: 2
Flags: W
LayerCount: 2
Fore
SplineSet
124 434 m 1,0,1
 170 477 170 477 233.5 477 c 128,-1,2
 297 477 297 477 342 438 c 1,3,-1
 387 482 l 1,4,-1
 396 472 l 1,5,-1
 352 429 l 1,6,7
 398 383 398 383 398 316.5 c 128,-1,8
 398 250 398 250 357 201 c 1,9,-1
 395 163 l 1,10,-1
 385 154 l 1,11,-1
 349 192 l 1,12,13
 302 143 302 143 233 143 c 128,-1,14
 164 143 164 143 117 195 c 1,15,-1
 78 156 l 1,16,-1
 70 164 l 1,17,-1
 109 204 l 1,18,19
 71 252 71 252 71 315.5 c 128,-1,20
 71 379 71 379 116 426 c 1,21,-1
 69 472 l 1,22,-1
 78 481 l 1,23,-1
 124 434 l 1,0,1
129.5 418.5 m 128,-1,25
 86 375 86 375 86 312.5 c 128,-1,26
 86 250 86 250 129 204 c 128,-1,27
 172 158 172 158 234 158 c 128,-1,28
 296 158 296 158 339.5 204 c 128,-1,29
 383 250 383 250 383 313 c 128,-1,30
 383 376 383 376 339.5 419 c 128,-1,31
 296 462 296 462 234.5 462 c 128,-1,24
 173 462 173 462 129.5 418.5 c 128,-1,25
EndSplineSet
EndChar

StartChar: yen
Encoding: 165 165 102
Width: 584
GlyphClass: 2
Flags: W
LayerCount: 2
Fore
SplineSet
501 321 m 1,0,-1
 501 307 l 1,1,-1
 294 307 l 1,2,-1
 294 212 l 1,3,-1
 501 212 l 1,4,-1
 501 198 l 1,5,-1
 294 198 l 1,6,-1
 294 0 l 1,7,-1
 270 0 l 1,8,-1
 270 198 l 1,9,-1
 74 198 l 1,10,-1
 74 212 l 1,11,-1
 270 212 l 1,12,-1
 270 307 l 1,13,-1
 74 307 l 1,14,-1
 74 321 l 1,15,-1
 269 321 l 1,16,-1
 27 732 l 1,17,-1
 56 732 l 1,18,-1
 282 346 l 1,19,-1
 527 732 l 1,20,-1
 557 732 l 1,21,-1
 295 321 l 1,22,-1
 501 321 l 1,0,-1
EndSplineSet
Substitution2: "'smcp' Lowercase to Small Capitals lookup 1 subtable" yen.smcp
EndChar

StartChar: brokenbar
Encoding: 166 166 103
Width: 256
GlyphClass: 2
Flags: W
LayerCount: 2
Fore
SplineSet
116 -72 m 1,0,-1
 116 256 l 1,1,-1
 140 256 l 1,2,-1
 140 -72 l 1,3,-1
 116 -72 l 1,0,-1
116 429 m 1,4,-1
 116 770 l 1,5,-1
 140 770 l 1,6,-1
 140 429 l 1,7,-1
 116 429 l 1,4,-1
EndSplineSet
EndChar

StartChar: section
Encoding: 167 167 104
Width: 559
GlyphClass: 2
Flags: W
LayerCount: 2
Fore
SplineSet
74 353 m 2,0,-1
 74 415 l 2,1,2
 74 498 74 498 129 508 c 1,3,4
 74 518 74 518 74 590 c 2,5,-1
 74 660 l 2,6,7
 74 727 74 727 111 755.5 c 128,-1,8
 148 784 148 784 204 784 c 0,9,10
 353 784 353 784 448 774 c 1,11,-1
 448 760 l 1,12,-1
 204 760 l 2,13,14
 98 760 98 760 98 660 c 2,15,-1
 98 590 l 2,16,17
 98 546 98 546 122 532 c 128,-1,18
 146 518 146 518 204 518 c 2,19,-1
 353 518 l 2,20,21
 435 518 435 518 461 496 c 128,-1,22
 487 474 487 474 486 416 c 1,23,-1
 486 354 l 2,24,25
 486 329 486 329 483.5 313 c 128,-1,26
 481 297 481 297 468.5 282 c 128,-1,27
 456 267 456 267 434 265 c 1,28,29
 467 258 467 258 476 237 c 128,-1,30
 485 216 485 216 485 183 c 2,31,-1
 485 110 l 2,32,33
 485 32 485 32 440 10 c 0,34,35
 403 -8 403 -8 347 -8 c 0,36,37
 206 -8 206 -8 111 2 c 1,38,-1
 111 16 l 1,39,-1
 347 16 l 2,40,41
 405 16 405 16 433 36.5 c 128,-1,42
 461 57 461 57 461 110 c 2,43,-1
 461 183 l 2,44,45
 461 228 461 228 442.5 241.5 c 128,-1,46
 424 255 424 255 353 255 c 2,47,-1
 204 255 l 2,48,49
 132 255 132 255 111 265 c 0,50,51
 74 282 74 282 74 353 c 2,0,-1
98 353 m 2,52,53
 98 333 98 333 105 305 c 0,54,55
 107 297 107 297 115.5 292 c 128,-1,56
 124 287 124 287 128.5 284 c 128,-1,57
 133 281 133 281 149 280 c 128,-1,58
 165 279 165 279 172 279 c 2,59,60
 172 279 172 279 353 279 c 0,61,62
 427 279 427 279 444 290.5 c 128,-1,63
 461 302 461 302 461 354 c 2,64,-1
 461 416 l 2,65,66
 461 465 461 465 440.5 480 c 128,-1,67
 420 495 420 495 353 495 c 2,68,-1
 204 495 l 2,69,70
 125 495 125 495 113 478 c 0,71,72
 98 456 98 456 98 414 c 2,73,-1
 98 353 l 2,52,53
EndSplineSet
EndChar

StartChar: dieresis
Encoding: 168 168 105
Width: 424
GlyphClass: 2
Flags: W
LayerCount: 2
Fore
SplineSet
85 564 m 128,-1,1
 68 564 68 564 68 581.5 c 128,-1,2
 68 599 68 599 85 599 c 128,-1,3
 102 599 102 599 102 581.5 c 128,-1,0
 102 564 102 564 85 564 c 128,-1,1
322 582 m 0,4,5
 322 599 322 599 339.5 599 c 128,-1,6
 357 599 357 599 357 581.5 c 128,-1,7
 357 564 357 564 340 564 c 0,8,9
 332 564 332 564 327 569 c 128,-1,10
 322 574 322 574 322 582 c 0,4,5
EndSplineSet
Substitution2: "'smcp' Lowercase to Small Capitals lookup 1 subtable" dieresis.smcp
EndChar

StartChar: copyright
Encoding: 169 169 106
Width: 864
GlyphClass: 2
Flags: W
LayerCount: 2
Fore
SplineSet
86.5 253 m 128,-1,1
 74 312 74 312 74 366.5 c 128,-1,2
 74 421 74 421 80.5 469 c 128,-1,3
 87 517 87 517 104 566 c 128,-1,4
 121 615 121 615 147 651 c 128,-1,5
 173 687 173 687 216.5 709.5 c 128,-1,6
 260 732 260 732 315 732 c 2,7,-1
 571 732 l 2,8,9
 627 732 627 732 669 705.5 c 128,-1,10
 711 679 711 679 733 640.5 c 128,-1,11
 755 602 755 602 769 549 c 0,12,13
 790 470 790 470 790 369 c 128,-1,14
 790 268 790 268 767.5 187 c 128,-1,15
 745 106 745 106 694 53 c 128,-1,16
 643 0 643 0 571 0 c 2,17,-1
 315 0 l 2,18,19
 250 0 250 0 200.5 38 c 128,-1,20
 151 76 151 76 125 135 c 128,-1,0
 99 194 99 194 86.5 253 c 128,-1,1
88 360 m 0,21,22
 88 238 88 238 142 132 c 0,23,24
 169 80 169 80 214 47 c 128,-1,25
 259 14 259 14 315 14 c 2,26,-1
 571 14 l 2,27,28
 660 14 660 14 718 107.5 c 128,-1,29
 776 201 776 201 776 368 c 0,30,31
 776 469 776 469 757 544.5 c 128,-1,32
 738 620 738 620 690.5 669 c 128,-1,33
 643 718 643 718 571 718 c 2,34,-1
 315 718 l 2,35,36
 242 718 242 718 188 672 c 0,37,38
 88 587 88 587 88 360 c 0,21,22
288.5 194.5 m 128,-1,40
 250 242 250 242 250 360.5 c 128,-1,41
 250 479 250 479 289 531 c 128,-1,42
 328 583 328 583 394 583 c 0,43,44
 477 583 477 583 572 566 c 1,45,-1
 572 557 l 1,46,47
 488 569 488 569 394 569 c 0,48,49
 264 569 264 569 264 362 c 0,50,51
 264 263 264 263 294.5 212 c 128,-1,52
 325 161 325 161 394 161 c 0,53,54
 510 161 510 161 578 177 c 1,55,-1
 578 168 l 1,56,57
 503 147 503 147 394 147 c 0,58,39
 327 147 327 147 288.5 194.5 c 128,-1,40
EndSplineSet
EndChar

StartChar: ordfeminine
Encoding: 170 170 107
Width: 360
GlyphClass: 3
Flags: W
LayerCount: 2
Fore
SplineSet
40 291 m 1,0,-1
 40 304 l 1,1,-1
 320 304 l 1,2,-1
 320 291 l 1,3,-1
 40 291 l 1,0,-1
52 717 m 1,4,5
 121 739 121 739 206 739 c 0,6,7
 254 739 254 739 286 713.5 c 128,-1,8
 318 688 318 688 318 636 c 2,9,-1
 318 378 l 1,10,-1
 308 378 l 1,11,-1
 302 427 l 1,12,-1
 291 422 l 1,13,14
 196 374 196 374 147.5 374 c 128,-1,15
 99 374 99 374 69.5 397.5 c 128,-1,16
 40 421 40 421 40 463 c 2,17,-1
 40 509 l 2,18,19
 40 550 40 550 67 574.5 c 128,-1,20
 94 599 94 599 140 599 c 0,21,22
 221 598 221 598 261.5 598 c 128,-1,23
 302 598 302 598 302 599 c 0,24,25
 302 614 302 614 302 622 c 128,-1,26
 302 630 302 630 302 631 c 0,27,28
 302 723 302 723 194 723 c 0,29,30
 128 723 128 723 52 707 c 1,31,-1
 52 717 l 1,4,5
57 466 m 2,32,33
 57 390 57 390 146 390 c 0,34,35
 173 390 173 390 212 402 c 128,-1,36
 251 414 251 414 276 426 c 2,37,-1
 302 438 l 1,38,-1
 302 589 l 1,39,-1
 146 585 l 1,40,41
 57 585 57 585 57 503 c 2,42,-1
 57 466 l 2,32,33
EndSplineSet
Substitution2: "'smcp' Lowercase to Small Capitals lookup 1 subtable" ordfeminine.smcp
Ligature2: "'ordn' Ordinals lookup 0 subtable" a
EndChar

StartChar: guillemotleft
Encoding: 171 171 108
Width: 548
GlyphClass: 2
Flags: W
LayerCount: 2
Fore
SplineSet
68 354 m 1,0,-1
 272 558 l 1,1,-1
 290 541 l 1,2,-1
 102 354 l 1,3,-1
 296 163 l 1,4,-1
 278 145 l 1,5,-1
 68 354 l 1,0,-1
252 354 m 1,6,-1
 458 558 l 1,7,-1
 474 541 l 1,8,-1
 286 354 l 1,9,-1
 480 163 l 1,10,-1
 462 145 l 1,11,-1
 252 354 l 1,6,-1
EndSplineSet
EndChar

StartChar: logicalnot
Encoding: 172 172 109
Width: 532
GlyphClass: 2
Flags: W
LayerCount: 2
Fore
SplineSet
68 281 m 1,0,-1
 68 305 l 1,1,-1
 464 305 l 1,2,-1
 464 159 l 1,3,-1
 440 159 l 1,4,-1
 440 281 l 1,5,-1
 68 281 l 1,0,-1
EndSplineSet
EndChar

StartChar: uni00AD
Encoding: 173 173 110
Width: 368
GlyphClass: 2
Flags: W
LayerCount: 2
Fore
SplineSet
27 278 m 1,0,-1
 27 302 l 1,1,-1
 341 302 l 1,2,-1
 341 278 l 1,3,-1
 27 278 l 1,0,-1
EndSplineSet
Substitution2: "'case' Case-Sensitive Forms lookup 18 subtable" uni00AD.alt
Substitution2: "'c2sc' Capitals to Small Capitals in Latin lookup 2 subtable" uni00AD.smcp
Substitution2: "'smcp' Lowercase to Small Capitals lookup 1 subtable" uni00AD.smcp
EndChar

StartChar: registered
Encoding: 174 174 111
Width: 864
GlyphClass: 2
Flags: W
LayerCount: 2
Fore
SplineSet
86.5 253 m 128,-1,1
 74 312 74 312 74 366.5 c 128,-1,2
 74 421 74 421 80.5 469 c 128,-1,3
 87 517 87 517 104 566 c 128,-1,4
 121 615 121 615 147 651 c 128,-1,5
 173 687 173 687 216.5 709.5 c 128,-1,6
 260 732 260 732 315 732 c 2,7,-1
 571 732 l 2,8,9
 627 732 627 732 669 705.5 c 128,-1,10
 711 679 711 679 733 640.5 c 128,-1,11
 755 602 755 602 769 549 c 0,12,13
 790 470 790 470 790 369 c 128,-1,14
 790 268 790 268 767.5 187 c 128,-1,15
 745 106 745 106 694 53 c 128,-1,16
 643 0 643 0 571 0 c 2,17,-1
 315 0 l 2,18,19
 250 0 250 0 200.5 38 c 128,-1,20
 151 76 151 76 125 135 c 128,-1,0
 99 194 99 194 86.5 253 c 128,-1,1
88 360 m 0,21,22
 88 238 88 238 142 132 c 0,23,24
 169 80 169 80 214 47 c 128,-1,25
 259 14 259 14 315 14 c 2,26,-1
 571 14 l 2,27,28
 660 14 660 14 718 107.5 c 128,-1,29
 776 201 776 201 776 368 c 0,30,31
 776 469 776 469 757 544.5 c 128,-1,32
 738 620 738 620 690.5 669 c 128,-1,33
 643 718 643 718 571 718 c 2,34,-1
 315 718 l 2,35,36
 242 718 242 718 188 672 c 0,37,38
 88 587 88 587 88 360 c 0,21,22
285 153 m 1,39,-1
 285 580 l 1,40,-1
 462 580 l 2,41,42
 520 580 520 580 553 553.5 c 128,-1,43
 586 527 586 527 586 454 c 0,44,45
 586 404 586 404 570 383 c 0,46,47
 561 372 561 372 553.5 364.5 c 128,-1,48
 546 357 546 357 532.5 353.5 c 128,-1,49
 519 350 519 350 512 348 c 0,50,51
 500 346 500 346 475 346 c 1,52,-1
 586 153 l 1,53,-1
 569 153 l 1,54,-1
 458 345 l 1,55,-1
 299 350 l 1,56,-1
 299 153 l 1,57,-1
 285 153 l 1,39,-1
299 359 m 1,58,-1
 468 359 l 2,59,60
 523 359 523 359 547.5 377.5 c 128,-1,61
 572 396 572 396 572 455.5 c 128,-1,62
 572 515 572 515 545.5 540.5 c 128,-1,63
 519 566 519 566 468 566 c 2,64,-1
 299 566 l 1,65,-1
 299 359 l 1,58,-1
EndSplineSet
EndChar

StartChar: macron
Encoding: 175 175 112
Width: 387
GlyphClass: 2
Flags: W
LayerCount: 2
Fore
SplineSet
68 531 m 1,0,-1
 68 546 l 1,1,-1
 320 546 l 1,2,-1
 320 531 l 1,3,-1
 68 531 l 1,0,-1
EndSplineSet
Substitution2: "'smcp' Lowercase to Small Capitals lookup 1 subtable" macron.smcp
EndChar

StartChar: degree
Encoding: 176 176 113
Width: 338
GlyphClass: 2
Flags: W
LayerCount: 2
Fore
SplineSet
68 632 m 128,-1,1
 68 675 68 675 98 705 c 128,-1,2
 128 735 128 735 170 735 c 128,-1,3
 212 735 212 735 241 705 c 128,-1,4
 270 675 270 675 270 632 c 128,-1,5
 270 589 270 589 241 559.5 c 128,-1,6
 212 530 212 530 170 530 c 128,-1,7
 128 530 128 530 98 559.5 c 128,-1,0
 68 589 68 589 68 632 c 128,-1,1
82 632 m 128,-1,9
 82 596 82 596 108 570.5 c 128,-1,10
 134 545 134 545 170 545 c 128,-1,11
 206 545 206 545 231 570.5 c 128,-1,12
 256 596 256 596 256 632 c 128,-1,13
 256 668 256 668 231 694 c 128,-1,14
 206 720 206 720 170 720 c 128,-1,15
 134 720 134 720 108 694 c 128,-1,8
 82 668 82 668 82 632 c 128,-1,9
EndSplineSet
Substitution2: "'smcp' Lowercase to Small Capitals lookup 1 subtable" degree.smcp
EndChar

StartChar: plusminus
Encoding: 177 177 114
Width: 535
GlyphClass: 2
Flags: W
LayerCount: 2
Fore
SplineSet
76 137 m 1,0,-1
 76 161 l 1,1,-1
 462 161 l 1,2,-1
 462 137 l 1,3,-1
 76 137 l 1,0,-1
76 411 m 1,4,-1
 76 435 l 1,5,-1
 257 435 l 1,6,-1
 257 616 l 1,7,-1
 281 616 l 1,8,-1
 281 435 l 1,9,-1
 462 435 l 1,10,-1
 462 411 l 1,11,-1
 281 411 l 1,12,-1
 281 230 l 1,13,-1
 257 230 l 1,14,-1
 257 411 l 1,15,-1
 76 411 l 1,4,-1
EndSplineSet
EndChar

StartChar: twosuperior
Encoding: 178 178 115
Width: 411
GlyphClass: 2
Flags: W
LayerCount: 2
Fore
SplineSet
225 838 m 0,0,1
 355 838 355 838 355 702 c 0,2,3
 355 649 355 649 302 583 c 0,4,5
 244 509 244 509 155 434 c 0,6,7
 133 416 133 416 122.5 408 c 128,-1,8
 112 400 112 400 96 387 c 2,9,-1
 79 374 l 1,10,-1
 354 374 l 1,11,-1
 354 356 l 1,12,-1
 45 356 l 1,13,-1
 45 370 l 1,14,15
 60 380 60 380 91 406 c 128,-1,16
 122 432 122 432 149.5 455 c 128,-1,17
 177 478 177 478 194.5 495 c 128,-1,18
 212 512 212 512 236.5 535.5 c 128,-1,19
 261 559 261 559 276 579 c 128,-1,20
 291 599 291 599 306 620 c 0,21,22
 336 661 336 661 336 699 c 0,23,24
 336 757 336 757 311 788.5 c 128,-1,25
 286 820 286 820 219 820 c 2,26,-1
 42 820 l 1,27,-1
 41 830 l 1,28,-1
 42 831 l 1,29,30
 100 838 100 838 225 838 c 0,0,1
EndSplineSet
EndChar

StartChar: threesuperior
Encoding: 179 179 116
Width: 437
GlyphClass: 2
Flags: W
LayerCount: 2
Fore
SplineSet
40 815 m 1,0,-1
 40 825 l 1,1,2
 81 833 81 833 236 833 c 0,3,4
 298 833 298 833 327.5 802.5 c 128,-1,5
 357 772 357 772 357 723 c 2,6,-1
 357 688 l 2,7,8
 357 650 357 650 327.5 624.5 c 128,-1,9
 298 599 298 599 274 597 c 1,10,11
 298 592 298 592 327.5 566 c 128,-1,12
 357 540 357 540 357 499 c 2,13,-1
 357 471 l 2,14,15
 357 413 357 413 328.5 382.5 c 128,-1,16
 300 352 300 352 230 352 c 0,17,18
 95 352 95 352 44 363 c 1,19,-1
 44 370 l 1,20,-1
 222 370 l 2,21,22
 285 370 285 370 311.5 392.5 c 128,-1,23
 338 415 338 415 338 475 c 2,24,-1
 338 498 l 2,25,26
 338 540 338 540 304 563.5 c 128,-1,27
 270 587 270 587 226 588 c 2,28,-1
 84 592 l 1,29,-1
 84 602 l 1,30,-1
 226 606 l 2,31,32
 274 608 274 608 307 630.5 c 128,-1,33
 340 653 340 653 340 689 c 2,34,-1
 340 724 l 2,35,36
 340 815 340 815 234 815 c 2,37,-1
 40 815 l 1,0,-1
EndSplineSet
EndChar

StartChar: acute
Encoding: 180 180 117
Width: 201
GlyphClass: 2
Flags: W
LayerCount: 2
Fore
SplineSet
27 531 m 1,0,-1
 148 664 l 1,1,-1
 174 664 l 1,2,-1
 41 531 l 1,3,-1
 27 531 l 1,0,-1
EndSplineSet
Substitution2: "'smcp' Lowercase to Small Capitals lookup 1 subtable" acute.smcp
EndChar

StartChar: uni00B5
Encoding: 181 181 118
Width: 620
GlyphClass: 2
Flags: W
LayerCount: 2
Fore
SplineSet
122 -270 m 1,0,-1
 122 532 l 1,1,-1
 146 532 l 1,2,-1
 146 162 l 2,3,4
 146 100 146 100 184 58 c 128,-1,5
 222 16 222 16 285 16 c 128,-1,6
 348 16 348 16 395 30 c 128,-1,7
 442 44 442 44 502 77 c 1,8,-1
 502 532 l 1,9,-1
 526 532 l 1,10,-1
 526 1 l 1,11,-1
 512 1 l 1,12,-1
 502 63 l 1,13,14
 394 -8 394 -8 292 -8 c 128,-1,15
 190 -8 190 -8 146 69 c 1,16,-1
 146 -270 l 1,17,-1
 122 -270 l 1,0,-1
EndSplineSet
EndChar

StartChar: paragraph
Encoding: 182 182 119
Width: 572
GlyphClass: 2
Flags: W
LayerCount: 2
Fore
SplineSet
54 499 m 2,0,-1
 54 592 l 2,1,2
 54 659 54 659 100.5 695.5 c 128,-1,3
 147 732 147 732 210 732 c 2,4,-1
 545 732 l 1,5,-1
 545 706 l 1,6,-1
 476 706 l 1,7,-1
 476 0 l 1,8,-1
 452 0 l 1,9,-1
 452 708 l 1,10,-1
 288 708 l 1,11,-1
 288 -270 l 1,12,-1
 264 -270 l 1,13,-1
 264 365 l 1,14,15
 249 355 249 355 216 355 c 0,16,17
 213 355 213 355 210 355 c 0,18,19
 136 355 136 355 95 396 c 128,-1,20
 54 437 54 437 54 499 c 2,0,-1
78 501 m 2,21,22
 78 463 78 463 94 436.5 c 128,-1,23
 110 410 110 410 134 398 c 1,24,25
 176 379 176 379 210 379 c 2,26,-1
 264 379 l 1,27,-1
 264 708 l 1,28,-1
 210 708 l 2,29,30
 148 708 148 708 113 674.5 c 128,-1,31
 78 641 78 641 78 590 c 2,32,-1
 78 501 l 2,21,22
EndSplineSet
EndChar

StartChar: periodcentered
Encoding: 183 183 120
Width: 264
GlyphClass: 2
Flags: W
LayerCount: 2
Fore
SplineSet
115 376 m 2,0,-1
 115 388 l 2,1,2
 115 400 115 400 127 400 c 2,3,-1
 138 400 l 2,4,5
 150 400 150 400 150 388 c 2,6,-1
 150 376 l 2,7,8
 150 364 150 364 138 364 c 2,9,-1
 127 364 l 2,10,11
 115 364 115 364 115 376 c 2,0,-1
EndSplineSet
Substitution2: "'smcp' Lowercase to Small Capitals lookup 1 subtable" periodcentered.smcp
EndChar

StartChar: cedilla
Encoding: 184 184 121
Width: 267
GlyphClass: 2
Flags: W
LayerCount: 2
Fore
SplineSet
161 -137 m 128,-1,1
 174 -125 174 -125 178 -102.5 c 128,-1,2
 182 -80 182 -80 182 -62 c 128,-1,3
 182 -44 182 -44 182 -37 c 1,4,-1
 199 -37 l 1,5,6
 199 -114 199 -114 179 -143.5 c 128,-1,7
 159 -173 159 -173 98 -173 c 2,8,-1
 68 -173 l 1,9,-1
 68 -166 l 1,10,-1
 100 -161 l 2,11,12
 124 -157 124 -157 136 -153 c 128,-1,0
 148 -149 148 -149 161 -137 c 128,-1,1
EndSplineSet
EndChar

StartChar: onesuperior
Encoding: 185 185 122
Width: 255
GlyphClass: 2
Flags: W
LayerCount: 2
Fore
SplineSet
168 832 m 1,0,-1
 168 356 l 1,1,-1
 150 356 l 1,2,-1
 150 814 l 1,3,-1
 22 768 l 1,4,-1
 22 777 l 1,5,-1
 150 832 l 1,6,-1
 168 832 l 1,0,-1
EndSplineSet
EndChar

StartChar: ordmasculine
Encoding: 186 186 123
Width: 381
GlyphClass: 3
Flags: W
LayerCount: 2
Fore
SplineSet
70 411.5 m 128,-1,1
 40 450 40 450 40 555 c 128,-1,2
 40 660 40 660 69.5 698.5 c 128,-1,3
 99 737 99 737 191.5 737 c 128,-1,4
 284 737 284 737 312 699 c 128,-1,5
 340 661 340 661 340 555 c 128,-1,6
 340 449 340 449 311.5 411 c 128,-1,7
 283 373 283 373 191.5 373 c 128,-1,0
 100 373 100 373 70 411.5 c 128,-1,1
52 291 m 1,8,-1
 52 304 l 1,9,-1
 332 304 l 1,10,-1
 332 291 l 1,11,-1
 52 291 l 1,8,-1
69 660 m 128,-1,13
 56 624 56 624 56 539 c 128,-1,14
 56 454 56 454 83.5 421.5 c 128,-1,15
 111 389 111 389 191 389 c 128,-1,16
 271 389 271 389 297.5 419.5 c 128,-1,17
 324 450 324 450 324 552 c 128,-1,18
 324 654 324 654 299.5 687.5 c 128,-1,19
 275 721 275 721 192 721 c 0,20,21
 136 721 136 721 109 708.5 c 128,-1,12
 82 696 82 696 69 660 c 128,-1,13
EndSplineSet
Substitution2: "'smcp' Lowercase to Small Capitals lookup 1 subtable" ordmasculine.smcp
Ligature2: "'ordn' Ordinals lookup 0 subtable" o
EndChar

StartChar: guillemotright
Encoding: 187 187 124
Width: 548
GlyphClass: 2
Flags: W
LayerCount: 2
Fore
SplineSet
68 163 m 1,0,-1
 262 354 l 1,1,-1
 74 541 l 1,2,-1
 90 558 l 1,3,-1
 296 354 l 1,4,-1
 86 145 l 1,5,-1
 68 163 l 1,0,-1
252 163 m 1,6,-1
 446 354 l 1,7,-1
 258 541 l 1,8,-1
 276 558 l 1,9,-1
 480 354 l 1,10,-1
 270 145 l 1,11,-1
 252 163 l 1,6,-1
EndSplineSet
EndChar

StartChar: onequarter
Encoding: 188 188 125
Width: 876
GlyphClass: 3
Flags: W
LayerCount: 2
Fore
SplineSet
168 732 m 1,0,-1
 168 256 l 1,1,-1
 150 256 l 1,2,-1
 150 714 l 1,3,-1
 22 668 l 1,4,-1
 22 677 l 1,5,-1
 150 732 l 1,6,-1
 168 732 l 1,0,-1
212 0 m 1,7,-1
 598 770 l 1,8,-1
 616 770 l 1,9,-1
 230 0 l 1,10,-1
 212 0 l 1,7,-1
772 186 m 1,11,-1
 772 307 l 1,12,-1
 781 355 l 1,13,-1
 790 355 l 1,14,-1
 790 186 l 1,15,-1
 849 186 l 1,16,-1
 849 178 l 1,17,-1
 790 167 l 1,18,-1
 790 1 l 1,19,-1
 772 1 l 1,20,-1
 772 167 l 1,21,-1
 485 167 l 1,22,-1
 481 177 l 1,23,-1
 671 475 l 1,24,-1
 691 475 l 1,25,-1
 507 186 l 1,26,-1
 772 186 l 1,11,-1
EndSplineSet
Ligature2: "'frac' Diagonal Fractions lookup 7 subtable" one fraction four
Ligature2: "'frac' Diagonal Fractions lookup 7 subtable" one slash four
EndChar

StartChar: onehalf
Encoding: 189 189 126
Width: 944
GlyphClass: 3
Flags: W
LayerCount: 2
Fore
SplineSet
168 732 m 1,0,-1
 168 256 l 1,1,-1
 150 256 l 1,2,-1
 150 714 l 1,3,-1
 22 668 l 1,4,-1
 22 677 l 1,5,-1
 150 732 l 1,6,-1
 168 732 l 1,0,-1
199 0 m 1,7,-1
 585 770 l 1,8,-1
 603 770 l 1,9,-1
 217 0 l 1,10,-1
 199 0 l 1,7,-1
760 483 m 0,11,12
 890 483 890 483 890 347 c 0,13,14
 890 294 890 294 838 228 c 0,15,16
 779 154 779 154 690 80 c 0,17,18
 668 61 668 61 657.5 53 c 128,-1,19
 647 45 647 45 630 32 c 2,20,-1
 614 19 l 1,21,-1
 889 19 l 1,22,-1
 889 1 l 1,23,-1
 580 1 l 1,24,-1
 580 15 l 1,25,26
 595 25 595 25 626 51 c 128,-1,27
 657 77 657 77 684.5 100 c 128,-1,28
 712 123 712 123 729.5 140 c 128,-1,29
 747 157 747 157 771.5 180.5 c 128,-1,30
 796 204 796 204 811 224 c 128,-1,31
 826 244 826 244 842 266 c 0,32,33
 871 306 871 306 871 344 c 0,34,35
 871 402 871 402 846 433.5 c 128,-1,36
 821 465 821 465 754 465 c 2,37,-1
 577 465 l 1,38,-1
 576 475 l 1,39,-1
 577 476 l 1,40,41
 635 483 635 483 760 483 c 0,11,12
EndSplineSet
Ligature2: "'frac' Diagonal Fractions lookup 7 subtable" one fraction two
Ligature2: "'frac' Diagonal Fractions lookup 7 subtable" one slash two
EndChar

StartChar: threequarters
Encoding: 190 190 127
Width: 1001
GlyphClass: 3
Flags: W
LayerCount: 2
Fore
SplineSet
40 715 m 1,0,-1
 40 725 l 1,1,2
 81 733 81 733 236 733 c 0,3,4
 298 733 298 733 327.5 702.5 c 128,-1,5
 357 672 357 672 357 623 c 2,6,-1
 357 588 l 2,7,8
 357 550 357 550 327.5 524.5 c 128,-1,9
 298 499 298 499 274 497 c 1,10,11
 298 492 298 492 327.5 466 c 128,-1,12
 357 440 357 440 357 399 c 2,13,-1
 357 371 l 2,14,15
 357 313 357 313 328.5 282.5 c 128,-1,16
 300 252 300 252 230 252 c 0,17,18
 95 252 95 252 44 263 c 1,19,-1
 44 270 l 1,20,-1
 222 270 l 2,21,22
 285 270 285 270 311.5 292.5 c 128,-1,23
 338 315 338 315 338 375 c 2,24,-1
 338 398 l 2,25,26
 338 440 338 440 304 463.5 c 128,-1,27
 270 487 270 487 226 488 c 2,28,-1
 84 492 l 1,29,-1
 84 502 l 1,30,-1
 226 506 l 2,31,32
 274 508 274 508 307 530.5 c 128,-1,33
 340 553 340 553 340 589 c 2,34,-1
 340 624 l 2,35,36
 340 715 340 715 234 715 c 2,37,-1
 40 715 l 1,0,-1
330 0 m 1,38,-1
 716 770 l 1,39,-1
 734 770 l 1,40,-1
 348 0 l 1,41,-1
 330 0 l 1,38,-1
854 186 m 1,42,-1
 854 307 l 1,43,-1
 864 355 l 1,44,-1
 872 355 l 1,45,-1
 872 186 l 1,46,-1
 932 186 l 1,47,-1
 932 178 l 1,48,-1
 872 167 l 1,49,-1
 872 1 l 1,50,-1
 854 1 l 1,51,-1
 854 167 l 1,52,-1
 568 167 l 1,53,-1
 564 177 l 1,54,-1
 754 475 l 1,55,-1
 774 475 l 1,56,-1
 590 186 l 1,57,-1
 854 186 l 1,42,-1
EndSplineSet
Ligature2: "'frac' Diagonal Fractions lookup 7 subtable" three fraction four
Ligature2: "'frac' Diagonal Fractions lookup 7 subtable" three slash four
EndChar

StartChar: questiondown
Encoding: 191 191 128
Width: 530
GlyphClass: 2
Flags: W
LayerCount: 2
Fore
SplineSet
53 18 m 2,0,1
 53 118 53 118 115 153 c 0,2,3
 159 178 159 178 245 178 c 0,4,5
 279 178 279 178 320 174 c 1,6,-1
 320 276 l 1,7,-1
 346 276 l 1,8,-1
 346 154 l 1,9,-1
 240 154 l 2,10,11
 159 154 159 154 118 122.5 c 128,-1,12
 77 91 77 91 77 18 c 2,13,-1
 77 -84 l 2,14,15
 77 -173 77 -173 117.5 -208.5 c 128,-1,16
 158 -244 158 -244 253 -244 c 2,17,-1
 504 -244 l 1,18,-1
 504 -258 l 1,19,20
 417 -268 417 -268 252 -268 c 0,21,22
 247 -268 247 -268 243 -268 c 0,23,24
 138 -268 138 -268 95.5 -223.5 c 128,-1,25
 53 -179 53 -179 53 -84 c 2,26,-1
 53 18 l 2,0,1
316 396 m 2,27,-1
 316 458 l 2,28,29
 316 470 316 470 327 470 c 2,30,-1
 339 470 l 2,31,32
 351 470 351 470 351 458 c 2,33,-1
 351 396 l 2,34,35
 351 384 351 384 339 384 c 2,36,-1
 327 384 l 2,37,38
 316 384 316 384 316 396 c 2,27,-1
EndSplineSet
Substitution2: "'case' Case-Sensitive Forms lookup 18 subtable" questiondown.alt
Substitution2: "'smcp' Lowercase to Small Capitals lookup 1 subtable" questiondown.smcp
EndChar

StartChar: Agrave
Encoding: 192 192 129
Width: 659
GlyphClass: 2
Flags: W
LayerCount: 2
Fore
SplineSet
212 930 m 1,0,-1
 238 930 l 1,1,-1
 359 797 l 1,2,-1
 345 797 l 1,3,-1
 212 930 l 1,0,-1
61 0 m 1,4,-1
 335 732 l 1,5,-1
 369 732 l 1,6,-1
 631 0 l 1,7,-1
 605 0 l 1,8,-1
 514 253 l 1,9,-1
 181 253 l 1,10,-1
 87 0 l 1,11,-1
 61 0 l 1,4,-1
190 277 m 1,12,-1
 505 277 l 1,13,-1
 352 708 l 1,14,-1
 190 277 l 1,12,-1
EndSplineSet
Substitution2: "'c2sc' Capitals to Small Capitals in Latin lookup 2 subtable" agrave.smcp
EndChar

StartChar: Aacute
Encoding: 193 193 130
Width: 659
GlyphClass: 2
Flags: W
LayerCount: 2
Fore
SplineSet
345 797 m 1,0,-1
 466 930 l 1,1,-1
 492 930 l 1,2,-1
 359 797 l 1,3,-1
 345 797 l 1,0,-1
61 0 m 1,4,-1
 335 732 l 1,5,-1
 369 732 l 1,6,-1
 631 0 l 1,7,-1
 605 0 l 1,8,-1
 514 253 l 1,9,-1
 181 253 l 1,10,-1
 87 0 l 1,11,-1
 61 0 l 1,4,-1
190 277 m 1,12,-1
 505 277 l 1,13,-1
 352 708 l 1,14,-1
 190 277 l 1,12,-1
EndSplineSet
Substitution2: "'c2sc' Capitals to Small Capitals in Latin lookup 2 subtable" aacute.smcp
EndChar

StartChar: Acircumflex
Encoding: 194 194 131
Width: 659
GlyphClass: 2
Flags: W
LayerCount: 2
Fore
SplineSet
216 797 m 1,0,-1
 348 927 l 1,1,-1
 368 927 l 1,2,-1
 488 797 l 1,3,-1
 470 797 l 1,4,-1
 358 912 l 1,5,-1
 234 797 l 1,6,-1
 216 797 l 1,0,-1
61 0 m 1,7,-1
 335 732 l 1,8,-1
 369 732 l 1,9,-1
 631 0 l 1,10,-1
 605 0 l 1,11,-1
 514 253 l 1,12,-1
 181 253 l 1,13,-1
 87 0 l 1,14,-1
 61 0 l 1,7,-1
190 277 m 1,15,-1
 505 277 l 1,16,-1
 352 708 l 1,17,-1
 190 277 l 1,15,-1
EndSplineSet
Substitution2: "'c2sc' Capitals to Small Capitals in Latin lookup 2 subtable" acircumflex.smcp
EndChar

StartChar: Atilde
Encoding: 195 195 132
Width: 659
GlyphClass: 2
Flags: W
LayerCount: 2
Fore
SplineSet
290 886 m 128,-1,1
 309 886 309 886 354.5 849.5 c 128,-1,2
 400 813 400 813 415 813 c 0,3,4
 451 813 451 813 515 866 c 1,5,-1
 521 859 l 1,6,7
 501 839 501 839 488 828 c 0,8,9
 452 797 452 797 415 797 c 0,10,11
 393 797 393 797 348.5 833.5 c 128,-1,12
 304 870 304 870 292.5 870 c 128,-1,13
 281 870 281 870 273.5 869 c 128,-1,14
 266 868 266 868 258 864.5 c 128,-1,15
 250 861 250 861 245 859 c 128,-1,16
 240 857 240 857 230 850.5 c 128,-1,17
 220 844 220 844 216.5 841.5 c 128,-1,18
 213 839 213 839 201.5 830.5 c 128,-1,19
 190 822 190 822 187 820 c 1,20,-1
 183 828 l 1,21,22
 225 864 225 864 248 875 c 128,-1,0
 271 886 271 886 290 886 c 128,-1,1
61 0 m 1,23,-1
 335 732 l 1,24,-1
 369 732 l 1,25,-1
 631 0 l 1,26,-1
 605 0 l 1,27,-1
 514 253 l 1,28,-1
 181 253 l 1,29,-1
 87 0 l 1,30,-1
 61 0 l 1,23,-1
190 277 m 1,31,-1
 505 277 l 1,32,-1
 352 708 l 1,33,-1
 190 277 l 1,31,-1
EndSplineSet
Substitution2: "'c2sc' Capitals to Small Capitals in Latin lookup 2 subtable" atilde.smcp
EndChar

StartChar: Adieresis
Encoding: 196 196 133
Width: 659
GlyphClass: 2
Flags: W
LayerCount: 2
Fore
SplineSet
208 814.5 m 128,-1,1
 208 822 208 822 212.5 827 c 128,-1,2
 217 832 217 832 224.5 832 c 128,-1,3
 232 832 232 832 237 827 c 128,-1,4
 242 822 242 822 242 816 c 128,-1,5
 242 810 242 810 239 806 c 1,6,7
 235 797 235 797 226 797 c 128,-1,8
 217 797 217 797 212.5 802 c 128,-1,0
 208 807 208 807 208 814.5 c 128,-1,1
462 815 m 128,-1,10
 462 822 462 822 467 827 c 128,-1,11
 472 832 472 832 479.5 832 c 128,-1,12
 487 832 487 832 491.5 827 c 128,-1,13
 496 822 496 822 496 816.5 c 128,-1,14
 496 811 496 811 495 808 c 128,-1,15
 494 805 494 805 492 802 c 0,16,17
 487 797 487 797 479.5 797 c 128,-1,18
 472 797 472 797 467 802.5 c 128,-1,9
 462 808 462 808 462 815 c 128,-1,10
61 0 m 1,19,-1
 335 732 l 1,20,-1
 369 732 l 1,21,-1
 631 0 l 1,22,-1
 605 0 l 1,23,-1
 514 253 l 1,24,-1
 181 253 l 1,25,-1
 87 0 l 1,26,-1
 61 0 l 1,19,-1
190 277 m 1,27,-1
 505 277 l 1,28,-1
 352 708 l 1,29,-1
 190 277 l 1,27,-1
EndSplineSet
Substitution2: "'c2sc' Capitals to Small Capitals in Latin lookup 2 subtable" adieresis.smcp
EndChar

StartChar: Aring
Encoding: 197 197 134
Width: 659
GlyphClass: 2
Flags: W
LayerCount: 2
Fore
SplineSet
264.5 780.5 m 128,-1,1
 278 757 278 757 301.5 743.5 c 128,-1,2
 325 730 325 730 360 730 c 128,-1,3
 395 730 395 730 424 759.5 c 128,-1,4
 453 789 453 789 453 832 c 128,-1,5
 453 875 453 875 424 905 c 128,-1,6
 395 935 395 935 353 935 c 128,-1,7
 311 935 311 935 281 905 c 128,-1,8
 251 875 251 875 251 839.5 c 128,-1,0
 251 804 251 804 264.5 780.5 c 128,-1,1
265 832 m 128,-1,10
 265 868 265 868 291 894 c 128,-1,11
 317 920 317 920 353 920 c 128,-1,12
 389 920 389 920 414 894 c 128,-1,13
 439 868 439 868 439 832 c 128,-1,14
 439 796 439 796 414 770.5 c 128,-1,15
 389 745 389 745 353 745 c 128,-1,16
 317 745 317 745 291 770.5 c 128,-1,9
 265 796 265 796 265 832 c 128,-1,10
61 0 m 1,17,-1
 335 732 l 1,18,-1
 369 732 l 1,19,-1
 631 0 l 1,20,-1
 605 0 l 1,21,-1
 514 253 l 1,22,-1
 181 253 l 1,23,-1
 87 0 l 1,24,-1
 61 0 l 1,17,-1
190 277 m 1,25,-1
 505 277 l 1,26,-1
 352 708 l 1,27,-1
 190 277 l 1,25,-1
EndSplineSet
Substitution2: "'c2sc' Capitals to Small Capitals in Latin lookup 2 subtable" aring.smcp
EndChar

StartChar: AE
Encoding: 198 198 135
Width: 933
GlyphClass: 2
Flags: W
LayerCount: 2
Fore
SplineSet
602 732 m 0,0,1
 608 732 608 732 614 732 c 2,2,-1
 882 722 l 1,3,-1
 882 708 l 1,4,-1
 614 708 l 2,5,6
 570 708 570 708 557 703 c 128,-1,7
 544 698 544 698 536 695 c 128,-1,8
 528 692 528 692 523.5 684 c 128,-1,9
 519 676 519 676 516.5 671.5 c 128,-1,10
 514 667 514 667 513 655 c 2,11,-1
 512 637 l 2,12,13
 511 631 511 631 511.5 615.5 c 128,-1,14
 512 600 512 600 512 592 c 2,15,-1
 512 375 l 1,16,-1
 842 370 l 1,17,-1
 842 356 l 1,18,-1
 512 351 l 1,19,-1
 512 123 l 2,20,21
 512 61 512 61 542 41 c 128,-1,22
 572 21 572 21 624 21 c 2,23,-1
 882 21 l 1,24,-1
 882 7 l 1,25,-1
 624 -3 l 2,26,27
 620 -3 620 -3 615 -3 c 0,28,29
 561 -3 561 -3 524.5 21 c 128,-1,30
 488 45 488 45 488 121 c 2,31,-1
 488 252 l 1,32,-1
 230 252 l 1,33,-1
 70 0 l 1,34,-1
 40 0 l 1,35,-1
 416 590 l 2,36,37
 468 672 468 672 490 693 c 0,38,39
 530 732 530 732 602 732 c 0,0,1
488 276 m 1,40,-1
 488 657 l 1,41,-1
 246 276 l 1,42,-1
 488 276 l 1,40,-1
EndSplineSet
EndChar

StartChar: Ccedilla
Encoding: 199 199 136
Width: 570
GlyphClass: 2
Flags: W
LayerCount: 2
Fore
SplineSet
306 -136 m 128,-1,1
 319 -124 319 -124 323 -101.5 c 128,-1,2
 327 -79 327 -79 327 -61 c 128,-1,3
 327 -43 327 -43 327 -36 c 1,4,-1
 344 -36 l 1,5,6
 344 -113 344 -113 324 -142.5 c 128,-1,7
 304 -172 304 -172 243 -172 c 2,8,-1
 213 -172 l 1,9,-1
 213 -165 l 1,10,-1
 245 -160 l 2,11,12
 269 -156 269 -156 281 -152 c 128,-1,0
 293 -148 293 -148 306 -136 c 128,-1,1
74 368 m 0,13,14
 74 461 74 461 83.5 524.5 c 128,-1,15
 93 588 93 588 119 640 c 0,16,17
 170 740 170 740 317 740 c 0,18,19
 402 740 402 740 531 716 c 1,20,-1
 531 702 l 1,21,22
 517 704 517 704 504.5 705 c 128,-1,23
 492 706 492 706 475.5 707.5 c 128,-1,24
 459 709 459 709 439.5 710.5 c 128,-1,25
 420 712 420 712 400 713 c 0,26,27
 340 716 340 716 317 716 c 0,28,29
 239 716 239 716 194 688 c 0,30,31
 98 628 98 628 98 366 c 0,32,33
 98 18 98 18 318 18 c 0,34,35
 411 18 411 18 501 27 c 2,36,-1
 531 30 l 1,37,-1
 531 16 l 1,38,39
 413 -6 413 -6 317 -6 c 0,40,41
 74 -6 74 -6 74 368 c 0,13,14
EndSplineSet
Substitution2: "'c2sc' Capitals to Small Capitals in Latin lookup 2 subtable" ccedilla.smcp
EndChar

StartChar: Egrave
Encoding: 200 200 137
Width: 582
GlyphClass: 2
Flags: W
LayerCount: 2
Fore
SplineSet
200 925 m 1,0,-1
 226 925 l 1,1,-1
 347 792 l 1,2,-1
 333 792 l 1,3,-1
 200 925 l 1,0,-1
108 123 m 2,4,-1
 108 602 l 2,5,6
 108 671 108 671 143 701.5 c 128,-1,7
 178 732 178 732 228 732 c 0,8,9
 231 732 231 732 234 732 c 2,10,-1
 531 722 l 1,11,-1
 531 708 l 1,12,-1
 234 708 l 2,13,14
 132 708 132 708 132 602 c 2,15,-1
 132 375 l 1,16,-1
 491 370 l 1,17,-1
 491 356 l 1,18,-1
 132 351 l 1,19,-1
 132 123 l 2,20,21
 132 61 132 61 162 41 c 128,-1,22
 192 21 192 21 244 21 c 2,23,-1
 531 21 l 1,24,-1
 531 7 l 1,25,-1
 245 -3 l 2,26,27
 239 -3 239 -3 226 -3 c 128,-1,28
 213 -3 213 -3 193.5 0.5 c 128,-1,29
 174 4 174 4 152 16 c 0,30,31
 108 42 108 42 108 123 c 2,4,-1
EndSplineSet
Substitution2: "'c2sc' Capitals to Small Capitals in Latin lookup 2 subtable" egrave.smcp
EndChar

StartChar: Eacute
Encoding: 201 201 138
Width: 582
GlyphClass: 2
Flags: W
LayerCount: 2
Fore
SplineSet
332 792 m 1,0,-1
 453 925 l 1,1,-1
 479 925 l 1,2,-1
 346 792 l 1,3,-1
 332 792 l 1,0,-1
108 123 m 2,4,-1
 108 602 l 2,5,6
 108 671 108 671 143 701.5 c 128,-1,7
 178 732 178 732 228 732 c 0,8,9
 231 732 231 732 234 732 c 2,10,-1
 531 722 l 1,11,-1
 531 708 l 1,12,-1
 234 708 l 2,13,14
 132 708 132 708 132 602 c 2,15,-1
 132 375 l 1,16,-1
 491 370 l 1,17,-1
 491 356 l 1,18,-1
 132 351 l 1,19,-1
 132 123 l 2,20,21
 132 61 132 61 162 41 c 128,-1,22
 192 21 192 21 244 21 c 2,23,-1
 531 21 l 1,24,-1
 531 7 l 1,25,-1
 245 -3 l 2,26,27
 239 -3 239 -3 226 -3 c 128,-1,28
 213 -3 213 -3 193.5 0.5 c 128,-1,29
 174 4 174 4 152 16 c 0,30,31
 108 42 108 42 108 123 c 2,4,-1
EndSplineSet
Substitution2: "'c2sc' Capitals to Small Capitals in Latin lookup 2 subtable" eacute.smcp
EndChar

StartChar: Ecircumflex
Encoding: 202 202 139
Width: 582
GlyphClass: 2
Flags: W
LayerCount: 2
Fore
SplineSet
200 797 m 1,0,-1
 332 927 l 1,1,-1
 352 927 l 1,2,-1
 472 797 l 1,3,-1
 454 797 l 1,4,-1
 342 912 l 1,5,-1
 218 797 l 1,6,-1
 200 797 l 1,0,-1
108 123 m 2,7,-1
 108 602 l 2,8,9
 108 671 108 671 143 701.5 c 128,-1,10
 178 732 178 732 228 732 c 0,11,12
 231 732 231 732 234 732 c 2,13,-1
 531 722 l 1,14,-1
 531 708 l 1,15,-1
 234 708 l 2,16,17
 132 708 132 708 132 602 c 2,18,-1
 132 375 l 1,19,-1
 491 370 l 1,20,-1
 491 356 l 1,21,-1
 132 351 l 1,22,-1
 132 123 l 2,23,24
 132 61 132 61 162 41 c 128,-1,25
 192 21 192 21 244 21 c 2,26,-1
 531 21 l 1,27,-1
 531 7 l 1,28,-1
 245 -3 l 2,29,30
 239 -3 239 -3 226 -3 c 128,-1,31
 213 -3 213 -3 193.5 0.5 c 128,-1,32
 174 4 174 4 152 16 c 0,33,34
 108 42 108 42 108 123 c 2,7,-1
EndSplineSet
Substitution2: "'c2sc' Capitals to Small Capitals in Latin lookup 2 subtable" ecircumflex.smcp
EndChar

StartChar: Edieresis
Encoding: 203 203 140
Width: 582
GlyphClass: 2
Flags: W
LayerCount: 2
Fore
SplineSet
196 825 m 128,-1,1
 179 825 179 825 179 842.5 c 128,-1,2
 179 860 179 860 196 860 c 128,-1,3
 213 860 213 860 213 842.5 c 128,-1,0
 213 825 213 825 196 825 c 128,-1,1
433 843 m 0,4,5
 433 860 433 860 450.5 860 c 128,-1,6
 468 860 468 860 468 842.5 c 128,-1,7
 468 825 468 825 451 825 c 0,8,9
 444 825 444 825 438.5 830.5 c 128,-1,10
 433 836 433 836 433 843 c 0,4,5
108 123 m 2,11,-1
 108 602 l 2,12,13
 108 671 108 671 143 701.5 c 128,-1,14
 178 732 178 732 228 732 c 0,15,16
 231 732 231 732 234 732 c 2,17,-1
 531 722 l 1,18,-1
 531 708 l 1,19,-1
 234 708 l 2,20,21
 132 708 132 708 132 602 c 2,22,-1
 132 375 l 1,23,-1
 491 370 l 1,24,-1
 491 356 l 1,25,-1
 132 351 l 1,26,-1
 132 123 l 2,27,28
 132 61 132 61 162 41 c 128,-1,29
 192 21 192 21 244 21 c 2,30,-1
 531 21 l 1,31,-1
 531 7 l 1,32,-1
 245 -3 l 2,33,34
 239 -3 239 -3 226 -3 c 128,-1,35
 213 -3 213 -3 193.5 0.5 c 128,-1,36
 174 4 174 4 152 16 c 0,37,38
 108 42 108 42 108 123 c 2,11,-1
EndSplineSet
Substitution2: "'c2sc' Capitals to Small Capitals in Latin lookup 2 subtable" edieresis.smcp
EndChar

StartChar: Igrave
Encoding: 204 204 141
Width: 200
GlyphClass: 2
Flags: W
LayerCount: 2
Fore
SplineSet
-20 930 m 1,0,-1
 6 930 l 1,1,-1
 127 797 l 1,2,-1
 113 797 l 1,3,-1
 -20 930 l 1,0,-1
108 0 m 1,4,-1
 108 732 l 1,5,-1
 132 732 l 1,6,-1
 132 0 l 1,7,-1
 108 0 l 1,4,-1
EndSplineSet
Substitution2: "'c2sc' Capitals to Small Capitals in Latin lookup 2 subtable" igrave.smcp
EndChar

StartChar: Iacute
Encoding: 205 205 142
Width: 200
GlyphClass: 2
Flags: W
LayerCount: 2
Fore
SplineSet
113 797 m 1,0,-1
 234 930 l 1,1,-1
 260 930 l 1,2,-1
 127 797 l 1,3,-1
 113 797 l 1,0,-1
108 0 m 1,4,-1
 108 732 l 1,5,-1
 132 732 l 1,6,-1
 132 0 l 1,7,-1
 108 0 l 1,4,-1
EndSplineSet
Substitution2: "'c2sc' Capitals to Small Capitals in Latin lookup 2 subtable" iacute.smcp
EndChar

StartChar: Icircumflex
Encoding: 206 206 143
Width: 200
GlyphClass: 2
Flags: W
LayerCount: 2
Fore
SplineSet
-16 797 m 1,0,-1
 116 927 l 1,1,-1
 136 927 l 1,2,-1
 256 797 l 1,3,-1
 238 797 l 1,4,-1
 126 912 l 1,5,-1
 2 797 l 1,6,-1
 -16 797 l 1,0,-1
108 0 m 1,7,-1
 108 732 l 1,8,-1
 132 732 l 1,9,-1
 132 0 l 1,10,-1
 108 0 l 1,7,-1
EndSplineSet
Substitution2: "'c2sc' Capitals to Small Capitals in Latin lookup 2 subtable" icircumflex.smcp
EndChar

StartChar: Idieresis
Encoding: 207 207 144
Width: 200
GlyphClass: 2
Flags: W
LayerCount: 2
Fore
SplineSet
-23 808 m 128,-1,1
 -24 811 -24 811 -24 816.5 c 128,-1,2
 -24 822 -24 822 -19.5 827 c 128,-1,3
 -15 832 -15 832 -7.5 832 c 128,-1,4
 0 832 0 832 5 827 c 128,-1,5
 10 822 10 822 10 816.5 c 128,-1,6
 10 811 10 811 8.5 808 c 128,-1,7
 7 805 7 805 5 802.5 c 128,-1,8
 3 800 3 800 -0.5 798.5 c 128,-1,9
 -4 797 -4 797 -7.5 797 c 128,-1,10
 -11 797 -11 797 -14.5 798.5 c 128,-1,11
 -18 800 -18 800 -20 802.5 c 128,-1,0
 -22 805 -22 805 -23 808 c 128,-1,1
230 815 m 128,-1,13
 230 822 230 822 235 827 c 128,-1,14
 240 832 240 832 247.5 832 c 128,-1,15
 255 832 255 832 259.5 827 c 128,-1,16
 264 822 264 822 264 816.5 c 128,-1,17
 264 811 264 811 263 808 c 128,-1,18
 262 805 262 805 260 802 c 0,19,20
 255 797 255 797 247.5 797 c 128,-1,21
 240 797 240 797 235 802.5 c 128,-1,12
 230 808 230 808 230 815 c 128,-1,13
108 0 m 1,22,-1
 108 732 l 1,23,-1
 132 732 l 1,24,-1
 132 0 l 1,25,-1
 108 0 l 1,22,-1
EndSplineSet
Substitution2: "'c2sc' Capitals to Small Capitals in Latin lookup 2 subtable" idieresis.smcp
EndChar

StartChar: Eth
Encoding: 208 208 145
Width: 671
GlyphClass: 2
Flags: W
LayerCount: 2
Fore
SplineSet
43 366 m 1,0,-1
 43 380 l 1,1,-1
 108 380 l 1,2,-1
 108 732 l 1,3,-1
 351 732 l 2,4,5
 416 732 416 732 464.5 707.5 c 128,-1,6
 513 683 513 683 540 646 c 128,-1,7
 567 609 567 609 584 557 c 0,8,9
 610 473 610 473 610 385.5 c 128,-1,10
 610 298 610 298 595 236 c 128,-1,11
 580 174 580 174 550.5 120 c 128,-1,12
 521 66 521 66 469 33 c 128,-1,13
 417 0 417 0 351 0 c 2,14,-1
 108 0 l 1,15,-1
 108 366 l 1,16,-1
 43 366 l 1,0,-1
132 24 m 1,17,-1
 351 24 l 2,18,19
 411 24 411 24 458 56 c 128,-1,20
 505 88 505 88 532 139 c 0,21,22
 586 241 586 241 586 364 c 0,23,24
 586 537 586 537 525.5 622.5 c 128,-1,25
 465 708 465 708 351 708 c 2,26,-1
 132 708 l 1,27,-1
 132 380 l 1,28,-1
 291 380 l 1,29,-1
 291 366 l 1,30,-1
 132 366 l 1,31,-1
 132 24 l 1,17,-1
EndSplineSet
Substitution2: "'c2sc' Capitals to Small Capitals in Latin lookup 2 subtable" eth.smcp
EndChar

StartChar: Ntilde
Encoding: 209 209 146
Width: 665
GlyphClass: 2
Flags: W
LayerCount: 2
Fore
SplineSet
293 886 m 128,-1,1
 310 886 310 886 355 849.5 c 128,-1,2
 400 813 400 813 416.5 813 c 128,-1,3
 433 813 433 813 455.5 824 c 128,-1,4
 478 835 478 835 486.5 842 c 128,-1,5
 495 849 495 849 516 866 c 1,6,-1
 522 859 l 1,7,8
 474 811 474 811 445 802 c 0,9,10
 431 797 431 797 412 797 c 128,-1,11
 393 797 393 797 349 833.5 c 128,-1,12
 305 870 305 870 293.5 870 c 128,-1,13
 282 870 282 870 274.5 869 c 128,-1,14
 267 868 267 868 258.5 864.5 c 128,-1,15
 250 861 250 861 245 859 c 128,-1,16
 240 857 240 857 230.5 850.5 c 128,-1,17
 221 844 221 844 217.5 841.5 c 128,-1,18
 214 839 214 839 202 830.5 c 128,-1,19
 190 822 190 822 188 820 c 1,20,-1
 184 828 l 1,21,22
 234 873 234 873 255 879.5 c 128,-1,0
 276 886 276 886 293 886 c 128,-1,1
108 0 m 1,23,-1
 108 732 l 1,24,-1
 133 732 l 1,25,-1
 573 46 l 1,26,-1
 573 732 l 1,27,-1
 597 732 l 1,28,-1
 597 0 l 1,29,-1
 573 0 l 1,30,-1
 132 686 l 1,31,-1
 132 0 l 1,32,-1
 108 0 l 1,23,-1
EndSplineSet
AlternateSubs2: "'salt' Stylistic Alternatives in Latin lookup 16 subtable" Ntilde.salt
Substitution2: "'c2sc' Capitals to Small Capitals in Latin lookup 2 subtable" ntilde.smcp
EndChar

StartChar: Ograve
Encoding: 210 210 147
Width: 675
GlyphClass: 2
Flags: W
LayerCount: 2
Fore
SplineSet
216 930 m 1,0,-1
 242 930 l 1,1,-1
 363 797 l 1,2,-1
 349 797 l 1,3,-1
 216 930 l 1,0,-1
99.5 195 m 128,-1,5
 88 262 88 262 88 362 c 128,-1,6
 88 462 88 462 100 531.5 c 128,-1,7
 112 601 112 601 132 641.5 c 128,-1,8
 152 682 152 682 188.5 703.5 c 128,-1,9
 225 725 225 725 261.5 731 c 128,-1,10
 298 737 298 737 351 737 c 128,-1,11
 404 737 404 737 436.5 733 c 128,-1,12
 469 729 469 729 502 716 c 128,-1,13
 535 703 535 703 555.5 677.5 c 128,-1,14
 576 652 576 652 592 611 c 0,15,16
 624 533 624 533 624 361 c 0,17,18
 624 178 624 178 582 93 c 0,19,20
 563 53 563 53 527.5 31.5 c 128,-1,21
 492 10 492 10 453.5 3 c 128,-1,22
 415 -4 415 -4 355 -4 c 128,-1,23
 295 -4 295 -4 258 2 c 128,-1,24
 221 8 221 8 185 28.5 c 128,-1,25
 149 49 149 49 130 88.5 c 128,-1,4
 111 128 111 128 99.5 195 c 128,-1,5
116 472.5 m 128,-1,27
 112 423 112 423 112 347 c 128,-1,28
 112 271 112 271 121 211 c 128,-1,29
 130 151 130 151 146 112.5 c 128,-1,30
 162 74 162 74 193.5 54 c 128,-1,31
 225 34 225 34 261.5 27 c 128,-1,32
 298 20 298 20 362 20 c 128,-1,33
 426 20 426 20 467.5 32 c 128,-1,34
 509 44 509 44 541.5 79.5 c 128,-1,35
 574 115 574 115 587 183 c 128,-1,36
 600 251 600 251 600 346 c 128,-1,37
 600 441 600 441 593.5 499.5 c 128,-1,38
 587 558 587 558 572 596.5 c 128,-1,39
 557 635 557 635 538.5 658.5 c 128,-1,40
 520 682 520 682 489.5 694 c 128,-1,41
 459 706 459 706 430 709.5 c 128,-1,42
 401 713 401 713 362 713 c 128,-1,43
 323 713 323 713 302.5 711.5 c 128,-1,44
 282 710 282 710 256 705.5 c 128,-1,45
 230 701 230 701 213.5 690.5 c 128,-1,46
 197 680 197 680 179 663.5 c 128,-1,47
 161 647 161 647 150 620.5 c 128,-1,48
 139 594 139 594 129.5 558 c 128,-1,26
 120 522 120 522 116 472.5 c 128,-1,27
EndSplineSet
Substitution2: "'c2sc' Capitals to Small Capitals in Latin lookup 2 subtable" ograve.smcp
EndChar

StartChar: Oacute
Encoding: 211 211 148
Width: 675
GlyphClass: 2
Flags: W
LayerCount: 2
Fore
SplineSet
349 797 m 1,0,-1
 470 930 l 1,1,-1
 496 930 l 1,2,-1
 363 797 l 1,3,-1
 349 797 l 1,0,-1
99.5 195 m 128,-1,5
 88 262 88 262 88 362 c 128,-1,6
 88 462 88 462 100 531.5 c 128,-1,7
 112 601 112 601 132 641.5 c 128,-1,8
 152 682 152 682 188.5 703.5 c 128,-1,9
 225 725 225 725 261.5 731 c 128,-1,10
 298 737 298 737 351 737 c 128,-1,11
 404 737 404 737 436.5 733 c 128,-1,12
 469 729 469 729 502 716 c 128,-1,13
 535 703 535 703 555.5 677.5 c 128,-1,14
 576 652 576 652 592 611 c 0,15,16
 624 533 624 533 624 361 c 0,17,18
 624 178 624 178 582 93 c 0,19,20
 563 53 563 53 527.5 31.5 c 128,-1,21
 492 10 492 10 453.5 3 c 128,-1,22
 415 -4 415 -4 355 -4 c 128,-1,23
 295 -4 295 -4 258 2 c 128,-1,24
 221 8 221 8 185 28.5 c 128,-1,25
 149 49 149 49 130 88.5 c 128,-1,4
 111 128 111 128 99.5 195 c 128,-1,5
116 472.5 m 128,-1,27
 112 423 112 423 112 347 c 128,-1,28
 112 271 112 271 121 211 c 128,-1,29
 130 151 130 151 146 112.5 c 128,-1,30
 162 74 162 74 193.5 54 c 128,-1,31
 225 34 225 34 261.5 27 c 128,-1,32
 298 20 298 20 362 20 c 128,-1,33
 426 20 426 20 467.5 32 c 128,-1,34
 509 44 509 44 541.5 79.5 c 128,-1,35
 574 115 574 115 587 183 c 128,-1,36
 600 251 600 251 600 346 c 128,-1,37
 600 441 600 441 593.5 499.5 c 128,-1,38
 587 558 587 558 572 596.5 c 128,-1,39
 557 635 557 635 538.5 658.5 c 128,-1,40
 520 682 520 682 489.5 694 c 128,-1,41
 459 706 459 706 430 709.5 c 128,-1,42
 401 713 401 713 362 713 c 128,-1,43
 323 713 323 713 302.5 711.5 c 128,-1,44
 282 710 282 710 256 705.5 c 128,-1,45
 230 701 230 701 213.5 690.5 c 128,-1,46
 197 680 197 680 179 663.5 c 128,-1,47
 161 647 161 647 150 620.5 c 128,-1,48
 139 594 139 594 129.5 558 c 128,-1,26
 120 522 120 522 116 472.5 c 128,-1,27
EndSplineSet
Substitution2: "'c2sc' Capitals to Small Capitals in Latin lookup 2 subtable" oacute.smcp
EndChar

StartChar: Ocircumflex
Encoding: 212 212 149
Width: 675
GlyphClass: 2
Flags: W
LayerCount: 2
Fore
SplineSet
220 797 m 1,0,-1
 352 927 l 1,1,-1
 372 927 l 1,2,-1
 492 797 l 1,3,-1
 474 797 l 1,4,-1
 362 912 l 1,5,-1
 238 797 l 1,6,-1
 220 797 l 1,0,-1
99.5 195 m 128,-1,8
 88 262 88 262 88 362 c 128,-1,9
 88 462 88 462 100 531.5 c 128,-1,10
 112 601 112 601 132 641.5 c 128,-1,11
 152 682 152 682 188.5 703.5 c 128,-1,12
 225 725 225 725 261.5 731 c 128,-1,13
 298 737 298 737 351 737 c 128,-1,14
 404 737 404 737 436.5 733 c 128,-1,15
 469 729 469 729 502 716 c 128,-1,16
 535 703 535 703 555.5 677.5 c 128,-1,17
 576 652 576 652 592 611 c 0,18,19
 624 533 624 533 624 361 c 0,20,21
 624 178 624 178 582 93 c 0,22,23
 563 53 563 53 527.5 31.5 c 128,-1,24
 492 10 492 10 453.5 3 c 128,-1,25
 415 -4 415 -4 355 -4 c 128,-1,26
 295 -4 295 -4 258 2 c 128,-1,27
 221 8 221 8 185 28.5 c 128,-1,28
 149 49 149 49 130 88.5 c 128,-1,7
 111 128 111 128 99.5 195 c 128,-1,8
116 472.5 m 128,-1,30
 112 423 112 423 112 347 c 128,-1,31
 112 271 112 271 121 211 c 128,-1,32
 130 151 130 151 146 112.5 c 128,-1,33
 162 74 162 74 193.5 54 c 128,-1,34
 225 34 225 34 261.5 27 c 128,-1,35
 298 20 298 20 362 20 c 128,-1,36
 426 20 426 20 467.5 32 c 128,-1,37
 509 44 509 44 541.5 79.5 c 128,-1,38
 574 115 574 115 587 183 c 128,-1,39
 600 251 600 251 600 346 c 128,-1,40
 600 441 600 441 593.5 499.5 c 128,-1,41
 587 558 587 558 572 596.5 c 128,-1,42
 557 635 557 635 538.5 658.5 c 128,-1,43
 520 682 520 682 489.5 694 c 128,-1,44
 459 706 459 706 430 709.5 c 128,-1,45
 401 713 401 713 362 713 c 128,-1,46
 323 713 323 713 302.5 711.5 c 128,-1,47
 282 710 282 710 256 705.5 c 128,-1,48
 230 701 230 701 213.5 690.5 c 128,-1,49
 197 680 197 680 179 663.5 c 128,-1,50
 161 647 161 647 150 620.5 c 128,-1,51
 139 594 139 594 129.5 558 c 128,-1,29
 120 522 120 522 116 472.5 c 128,-1,30
EndSplineSet
Substitution2: "'c2sc' Capitals to Small Capitals in Latin lookup 2 subtable" ocircumflex.smcp
EndChar

StartChar: Otilde
Encoding: 213 213 150
Width: 675
GlyphClass: 2
Flags: W
LayerCount: 2
Fore
SplineSet
294 886 m 128,-1,1
 313 886 313 886 358.5 849.5 c 128,-1,2
 404 813 404 813 419 813 c 0,3,4
 455 813 455 813 519 866 c 1,5,-1
 525 859 l 1,6,7
 505 839 505 839 492 828 c 0,8,9
 456 797 456 797 419 797 c 0,10,11
 397 797 397 797 352.5 833.5 c 128,-1,12
 308 870 308 870 296.5 870 c 128,-1,13
 285 870 285 870 277.5 869 c 128,-1,14
 270 868 270 868 262 864.5 c 128,-1,15
 254 861 254 861 249 859 c 128,-1,16
 244 857 244 857 234 850.5 c 128,-1,17
 224 844 224 844 220.5 841.5 c 128,-1,18
 217 839 217 839 205.5 830.5 c 128,-1,19
 194 822 194 822 191 820 c 1,20,-1
 187 828 l 1,21,22
 229 864 229 864 252 875 c 128,-1,0
 275 886 275 886 294 886 c 128,-1,1
99.5 195 m 128,-1,24
 88 262 88 262 88 362 c 128,-1,25
 88 462 88 462 100 531.5 c 128,-1,26
 112 601 112 601 132 641.5 c 128,-1,27
 152 682 152 682 188.5 703.5 c 128,-1,28
 225 725 225 725 261.5 731 c 128,-1,29
 298 737 298 737 351 737 c 128,-1,30
 404 737 404 737 436.5 733 c 128,-1,31
 469 729 469 729 502 716 c 128,-1,32
 535 703 535 703 555.5 677.5 c 128,-1,33
 576 652 576 652 592 611 c 0,34,35
 624 533 624 533 624 361 c 0,36,37
 624 178 624 178 582 93 c 0,38,39
 563 53 563 53 527.5 31.5 c 128,-1,40
 492 10 492 10 453.5 3 c 128,-1,41
 415 -4 415 -4 355 -4 c 128,-1,42
 295 -4 295 -4 258 2 c 128,-1,43
 221 8 221 8 185 28.5 c 128,-1,44
 149 49 149 49 130 88.5 c 128,-1,23
 111 128 111 128 99.5 195 c 128,-1,24
116 472.5 m 128,-1,46
 112 423 112 423 112 347 c 128,-1,47
 112 271 112 271 121 211 c 128,-1,48
 130 151 130 151 146 112.5 c 128,-1,49
 162 74 162 74 193.5 54 c 128,-1,50
 225 34 225 34 261.5 27 c 128,-1,51
 298 20 298 20 362 20 c 128,-1,52
 426 20 426 20 467.5 32 c 128,-1,53
 509 44 509 44 541.5 79.5 c 128,-1,54
 574 115 574 115 587 183 c 128,-1,55
 600 251 600 251 600 346 c 128,-1,56
 600 441 600 441 593.5 499.5 c 128,-1,57
 587 558 587 558 572 596.5 c 128,-1,58
 557 635 557 635 538.5 658.5 c 128,-1,59
 520 682 520 682 489.5 694 c 128,-1,60
 459 706 459 706 430 709.5 c 128,-1,61
 401 713 401 713 362 713 c 128,-1,62
 323 713 323 713 302.5 711.5 c 128,-1,63
 282 710 282 710 256 705.5 c 128,-1,64
 230 701 230 701 213.5 690.5 c 128,-1,65
 197 680 197 680 179 663.5 c 128,-1,66
 161 647 161 647 150 620.5 c 128,-1,67
 139 594 139 594 129.5 558 c 128,-1,45
 120 522 120 522 116 472.5 c 128,-1,46
EndSplineSet
Substitution2: "'c2sc' Capitals to Small Capitals in Latin lookup 2 subtable" otilde.smcp
EndChar

StartChar: Odieresis
Encoding: 214 214 151
Width: 675
GlyphClass: 2
Flags: W
LayerCount: 2
Fore
SplineSet
212 814.5 m 128,-1,1
 212 822 212 822 216.5 827 c 128,-1,2
 221 832 221 832 228.5 832 c 128,-1,3
 236 832 236 832 241 827 c 128,-1,4
 246 822 246 822 246 816 c 128,-1,5
 246 810 246 810 243 806 c 1,6,7
 239 797 239 797 230 797 c 128,-1,8
 221 797 221 797 216.5 802 c 128,-1,0
 212 807 212 807 212 814.5 c 128,-1,1
466 815 m 128,-1,10
 466 822 466 822 471 827 c 128,-1,11
 476 832 476 832 483.5 832 c 128,-1,12
 491 832 491 832 495.5 827 c 128,-1,13
 500 822 500 822 500 816.5 c 128,-1,14
 500 811 500 811 499 808 c 128,-1,15
 498 805 498 805 496 802 c 0,16,17
 491 797 491 797 483.5 797 c 128,-1,18
 476 797 476 797 471 802.5 c 128,-1,9
 466 808 466 808 466 815 c 128,-1,10
99.5 195 m 128,-1,20
 88 262 88 262 88 362 c 128,-1,21
 88 462 88 462 100 531.5 c 128,-1,22
 112 601 112 601 132 641.5 c 128,-1,23
 152 682 152 682 188.5 703.5 c 128,-1,24
 225 725 225 725 261.5 731 c 128,-1,25
 298 737 298 737 351 737 c 128,-1,26
 404 737 404 737 436.5 733 c 128,-1,27
 469 729 469 729 502 716 c 128,-1,28
 535 703 535 703 555.5 677.5 c 128,-1,29
 576 652 576 652 592 611 c 0,30,31
 624 533 624 533 624 361 c 0,32,33
 624 178 624 178 582 93 c 0,34,35
 563 53 563 53 527.5 31.5 c 128,-1,36
 492 10 492 10 453.5 3 c 128,-1,37
 415 -4 415 -4 355 -4 c 128,-1,38
 295 -4 295 -4 258 2 c 128,-1,39
 221 8 221 8 185 28.5 c 128,-1,40
 149 49 149 49 130 88.5 c 128,-1,19
 111 128 111 128 99.5 195 c 128,-1,20
116 472.5 m 128,-1,42
 112 423 112 423 112 347 c 128,-1,43
 112 271 112 271 121 211 c 128,-1,44
 130 151 130 151 146 112.5 c 128,-1,45
 162 74 162 74 193.5 54 c 128,-1,46
 225 34 225 34 261.5 27 c 128,-1,47
 298 20 298 20 362 20 c 128,-1,48
 426 20 426 20 467.5 32 c 128,-1,49
 509 44 509 44 541.5 79.5 c 128,-1,50
 574 115 574 115 587 183 c 128,-1,51
 600 251 600 251 600 346 c 128,-1,52
 600 441 600 441 593.5 499.5 c 128,-1,53
 587 558 587 558 572 596.5 c 128,-1,54
 557 635 557 635 538.5 658.5 c 128,-1,55
 520 682 520 682 489.5 694 c 128,-1,56
 459 706 459 706 430 709.5 c 128,-1,57
 401 713 401 713 362 713 c 128,-1,58
 323 713 323 713 302.5 711.5 c 128,-1,59
 282 710 282 710 256 705.5 c 128,-1,60
 230 701 230 701 213.5 690.5 c 128,-1,61
 197 680 197 680 179 663.5 c 128,-1,62
 161 647 161 647 150 620.5 c 128,-1,63
 139 594 139 594 129.5 558 c 128,-1,41
 120 522 120 522 116 472.5 c 128,-1,42
EndSplineSet
Substitution2: "'c2sc' Capitals to Small Capitals in Latin lookup 2 subtable" odieresis.smcp
EndChar

StartChar: multiply
Encoding: 215 215 152
Width: 438
GlyphClass: 2
Flags: W
LayerCount: 2
Fore
SplineSet
76 228 m 1,0,-1
 204 356 l 1,1,-1
 76 484 l 1,2,-1
 93 501 l 1,3,-1
 221 373 l 1,4,-1
 349 501 l 1,5,-1
 366 484 l 1,6,-1
 238 356 l 1,7,-1
 366 228 l 1,8,-1
 349 211 l 1,9,-1
 221 339 l 1,10,-1
 93 211 l 1,11,-1
 76 228 l 1,0,-1
EndSplineSet
EndChar

StartChar: Oslash
Encoding: 216 216 153
Width: 675
GlyphClass: 2
Flags: W
LayerCount: 2
Fore
SplineSet
132 642 m 0,0,1
 152 682 152 682 188.5 703.5 c 128,-1,2
 225 725 225 725 261.5 731 c 128,-1,3
 298 737 298 737 362.5 737 c 128,-1,4
 427 737 427 737 473.5 726 c 128,-1,5
 520 715 520 715 551 682 c 1,6,-1
 583 732 l 1,7,-1
 601 732 l 1,8,-1
 561 670 l 1,9,10
 624 589 624 589 624 361 c 0,11,12
 624 178 624 178 582 93 c 0,13,14
 563 53 563 53 527.5 31.5 c 128,-1,15
 492 10 492 10 453.5 3 c 128,-1,16
 415 -4 415 -4 349 -4 c 128,-1,17
 283 -4 283 -4 237.5 6 c 128,-1,18
 192 16 192 16 161 47 c 1,19,-1
 130 0 l 1,20,-1
 112 0 l 1,21,-1
 150 59 l 1,22,23
 88 136 88 136 88 344 c 128,-1,24
 88 552 88 552 132 642 c 0,0,1
112 361 m 0,25,26
 112 152 112 152 165 82 c 1,27,-1
 537 660 l 1,28,29
 509 692 509 692 466 702.5 c 128,-1,30
 423 713 423 713 373 713 c 128,-1,31
 323 713 323 713 302.5 711.5 c 128,-1,32
 282 710 282 710 256 705.5 c 128,-1,33
 230 701 230 701 213.5 690.5 c 128,-1,34
 197 680 197 680 179 663.5 c 128,-1,35
 161 647 161 647 150 620.5 c 128,-1,36
 139 594 139 594 130 558 c 0,37,38
 112 492 112 492 112 361 c 0,25,26
245.5 31 m 128,-1,40
 288 20 288 20 357 20 c 128,-1,41
 426 20 426 20 467.5 32 c 128,-1,42
 509 44 509 44 541.5 79.5 c 128,-1,43
 574 115 574 115 587 183 c 128,-1,44
 600 251 600 251 600 361 c 0,45,46
 600 571 600 571 547 647 c 1,47,-1
 175 70 l 1,48,39
 203 42 203 42 245.5 31 c 128,-1,40
EndSplineSet
Substitution2: "'c2sc' Capitals to Small Capitals in Latin lookup 2 subtable" oslash.smcp
EndChar

StartChar: Ugrave
Encoding: 217 217 154
Width: 683
GlyphClass: 2
Flags: W
LayerCount: 2
Fore
SplineSet
222 930 m 1,0,-1
 248 930 l 1,1,-1
 368 797 l 1,2,-1
 354 797 l 1,3,-1
 222 930 l 1,0,-1
108 320 m 2,4,-1
 108 732 l 1,5,-1
 132 732 l 1,6,-1
 132 320 l 2,7,8
 132 224 132 224 141 184.5 c 128,-1,9
 150 145 150 145 156 123 c 128,-1,10
 162 101 162 101 174.5 85 c 128,-1,11
 187 69 187 69 196.5 57.5 c 128,-1,12
 206 46 206 46 224 39 c 128,-1,13
 242 32 242 32 254 27.5 c 128,-1,14
 266 23 266 23 288 22 c 0,15,16
 325 19 325 19 363 19 c 128,-1,17
 401 19 401 19 425 21.5 c 128,-1,18
 449 24 449 24 478 33.5 c 128,-1,19
 507 43 507 43 525 63 c 128,-1,20
 543 83 543 83 560 115 c 0,21,22
 591 176 591 176 591 320 c 2,23,-1
 591 732 l 1,24,-1
 615 732 l 1,25,-1
 615 320 l 2,26,27
 615 218 615 218 603.5 175 c 128,-1,28
 592 132 592 132 584 107.5 c 128,-1,29
 576 83 576 83 561.5 66 c 128,-1,30
 547 49 547 49 535.5 36.5 c 128,-1,31
 524 24 524 24 504.5 16.5 c 128,-1,32
 485 9 485 9 472 4.5 c 128,-1,33
 459 0 459 0 436 -2 c 0,34,35
 403 -5 403 -5 334.5 -5 c 128,-1,36
 266 -5 266 -5 227 10 c 0,37,38
 141 42 141 42 118 181 c 0,39,40
 108 239 108 239 108 320 c 2,4,-1
EndSplineSet
Substitution2: "'c2sc' Capitals to Small Capitals in Latin lookup 2 subtable" ugrave.smcp
EndChar

StartChar: Uacute
Encoding: 218 218 155
Width: 683
GlyphClass: 2
Flags: W
LayerCount: 2
Fore
SplineSet
354 797 m 1,0,-1
 476 930 l 1,1,-1
 502 930 l 1,2,-1
 368 797 l 1,3,-1
 354 797 l 1,0,-1
108 320 m 2,4,-1
 108 732 l 1,5,-1
 132 732 l 1,6,-1
 132 320 l 2,7,8
 132 224 132 224 141 184.5 c 128,-1,9
 150 145 150 145 156 123 c 128,-1,10
 162 101 162 101 174.5 85 c 128,-1,11
 187 69 187 69 196.5 57.5 c 128,-1,12
 206 46 206 46 224 39 c 128,-1,13
 242 32 242 32 254 27.5 c 128,-1,14
 266 23 266 23 288 22 c 0,15,16
 325 19 325 19 363 19 c 128,-1,17
 401 19 401 19 425 21.5 c 128,-1,18
 449 24 449 24 478 33.5 c 128,-1,19
 507 43 507 43 525 63 c 128,-1,20
 543 83 543 83 560 115 c 0,21,22
 591 176 591 176 591 320 c 2,23,-1
 591 732 l 1,24,-1
 615 732 l 1,25,-1
 615 320 l 2,26,27
 615 218 615 218 603.5 175 c 128,-1,28
 592 132 592 132 584 107.5 c 128,-1,29
 576 83 576 83 561.5 66 c 128,-1,30
 547 49 547 49 535.5 36.5 c 128,-1,31
 524 24 524 24 504.5 16.5 c 128,-1,32
 485 9 485 9 472 4.5 c 128,-1,33
 459 0 459 0 436 -2 c 0,34,35
 403 -5 403 -5 334.5 -5 c 128,-1,36
 266 -5 266 -5 227 10 c 0,37,38
 141 42 141 42 118 181 c 0,39,40
 108 239 108 239 108 320 c 2,4,-1
EndSplineSet
Substitution2: "'c2sc' Capitals to Small Capitals in Latin lookup 2 subtable" uacute.smcp
EndChar

StartChar: Ucircumflex
Encoding: 219 219 156
Width: 683
GlyphClass: 2
Flags: W
LayerCount: 2
Fore
SplineSet
226 797 m 1,0,-1
 358 927 l 1,1,-1
 378 927 l 1,2,-1
 498 797 l 1,3,-1
 480 797 l 1,4,-1
 368 912 l 1,5,-1
 244 797 l 1,6,-1
 226 797 l 1,0,-1
108 320 m 2,7,-1
 108 732 l 1,8,-1
 132 732 l 1,9,-1
 132 320 l 2,10,11
 132 224 132 224 141 184.5 c 128,-1,12
 150 145 150 145 156 123 c 128,-1,13
 162 101 162 101 174.5 85 c 128,-1,14
 187 69 187 69 196.5 57.5 c 128,-1,15
 206 46 206 46 224 39 c 128,-1,16
 242 32 242 32 254 27.5 c 128,-1,17
 266 23 266 23 288 22 c 0,18,19
 325 19 325 19 363 19 c 128,-1,20
 401 19 401 19 425 21.5 c 128,-1,21
 449 24 449 24 478 33.5 c 128,-1,22
 507 43 507 43 525 63 c 128,-1,23
 543 83 543 83 560 115 c 0,24,25
 591 176 591 176 591 320 c 2,26,-1
 591 732 l 1,27,-1
 615 732 l 1,28,-1
 615 320 l 2,29,30
 615 218 615 218 603.5 175 c 128,-1,31
 592 132 592 132 584 107.5 c 128,-1,32
 576 83 576 83 561.5 66 c 128,-1,33
 547 49 547 49 535.5 36.5 c 128,-1,34
 524 24 524 24 504.5 16.5 c 128,-1,35
 485 9 485 9 472 4.5 c 128,-1,36
 459 0 459 0 436 -2 c 0,37,38
 403 -5 403 -5 334.5 -5 c 128,-1,39
 266 -5 266 -5 227 10 c 0,40,41
 141 42 141 42 118 181 c 0,42,43
 108 239 108 239 108 320 c 2,7,-1
EndSplineSet
Substitution2: "'c2sc' Capitals to Small Capitals in Latin lookup 2 subtable" ucircumflex.smcp
EndChar

StartChar: Udieresis
Encoding: 220 220 157
Width: 683
GlyphClass: 2
Flags: W
LayerCount: 2
Fore
SplineSet
234 797 m 128,-1,1
 217 797 217 797 217 814.5 c 128,-1,2
 217 832 217 832 234 832 c 128,-1,3
 251 832 251 832 251 814.5 c 128,-1,0
 251 797 251 797 234 797 c 128,-1,1
471 815 m 0,4,5
 471 832 471 832 488.5 832 c 128,-1,6
 506 832 506 832 506 814.5 c 128,-1,7
 506 797 506 797 489 797 c 0,8,9
 482 797 482 797 476.5 802.5 c 128,-1,10
 471 808 471 808 471 815 c 0,4,5
108 320 m 2,11,-1
 108 732 l 1,12,-1
 132 732 l 1,13,-1
 132 320 l 2,14,15
 132 224 132 224 141 184.5 c 128,-1,16
 150 145 150 145 156 123 c 128,-1,17
 162 101 162 101 174.5 85 c 128,-1,18
 187 69 187 69 196.5 57.5 c 128,-1,19
 206 46 206 46 224 39 c 128,-1,20
 242 32 242 32 254 27.5 c 128,-1,21
 266 23 266 23 288 22 c 0,22,23
 325 19 325 19 363 19 c 128,-1,24
 401 19 401 19 425 21.5 c 128,-1,25
 449 24 449 24 478 33.5 c 128,-1,26
 507 43 507 43 525 63 c 128,-1,27
 543 83 543 83 560 115 c 0,28,29
 591 176 591 176 591 320 c 2,30,-1
 591 732 l 1,31,-1
 615 732 l 1,32,-1
 615 320 l 2,33,34
 615 218 615 218 603.5 175 c 128,-1,35
 592 132 592 132 584 107.5 c 128,-1,36
 576 83 576 83 561.5 66 c 128,-1,37
 547 49 547 49 535.5 36.5 c 128,-1,38
 524 24 524 24 504.5 16.5 c 128,-1,39
 485 9 485 9 472 4.5 c 128,-1,40
 459 0 459 0 436 -2 c 0,41,42
 403 -5 403 -5 334.5 -5 c 128,-1,43
 266 -5 266 -5 227 10 c 0,44,45
 141 42 141 42 118 181 c 0,46,47
 108 239 108 239 108 320 c 2,11,-1
EndSplineSet
Substitution2: "'c2sc' Capitals to Small Capitals in Latin lookup 2 subtable" udieresis.smcp
EndChar

StartChar: Yacute
Encoding: 221 221 158
Width: 619
GlyphClass: 2
Flags: W
LayerCount: 2
Fore
SplineSet
319 797 m 1,0,-1
 440 930 l 1,1,-1
 466 930 l 1,2,-1
 333 797 l 1,3,-1
 319 797 l 1,0,-1
328 0 m 1,4,-1
 304 0 l 1,5,-1
 304 260 l 1,6,-1
 61 732 l 1,7,-1
 88 732 l 1,8,-1
 316 291 l 1,9,-1
 564 732 l 1,10,-1
 591 732 l 1,11,-1
 328 260 l 1,12,-1
 328 0 l 1,4,-1
EndSplineSet
Substitution2: "'c2sc' Capitals to Small Capitals in Latin lookup 2 subtable" yacute.smcp
EndChar

StartChar: Thorn
Encoding: 222 222 159
Width: 554
GlyphClass: 2
Flags: W
LayerCount: 2
Fore
SplineSet
81 0 m 1,0,-1
 81 729 l 1,1,-1
 105 729 l 1,2,-1
 105 588 l 1,3,-1
 322 588 l 2,4,5
 498 588 498 588 498 375 c 0,6,7
 498 215 498 215 416 170 c 0,8,9
 390 156 390 156 369 152.5 c 128,-1,10
 348 149 348 149 322 149 c 0,11,12
 144 153 144 153 105 159 c 1,13,-1
 105 0 l 1,14,-1
 81 0 l 1,0,-1
105 173 m 1,15,-1
 322 173 l 2,16,17
 397 173 397 173 435.5 219 c 128,-1,18
 474 265 474 265 474 377 c 0,19,20
 474 507 474 507 404 544 c 0,21,22
 367 564 367 564 322 564 c 2,23,-1
 105 564 l 1,24,-1
 105 173 l 1,15,-1
EndSplineSet
Substitution2: "'c2sc' Capitals to Small Capitals in Latin lookup 2 subtable" thorn.smcp
EndChar

StartChar: germandbls
Encoding: 223 223 160
Width: 566
GlyphClass: 2
Flags: W
LayerCount: 2
Fore
SplineSet
81 0 m 1,0,-1
 81 566 l 2,1,2
 81 658 81 658 134 717.5 c 128,-1,3
 187 777 187 777 289 777 c 0,4,5
 360 777 360 777 407.5 759.5 c 128,-1,6
 455 742 455 742 474 714 c 1,7,8
 498 681 498 681 498 646 c 128,-1,9
 498 611 498 611 487 580.5 c 128,-1,10
 476 550 476 550 453.5 520 c 128,-1,11
 431 490 431 490 404 471 c 1,12,13
 385 456 385 456 355.5 436 c 128,-1,14
 326 416 326 416 314 407 c 0,15,16
 282 383 282 383 282 350 c 128,-1,17
 282 317 282 317 308.5 301.5 c 128,-1,18
 335 286 335 286 373 281.5 c 128,-1,19
 411 277 411 277 449 270.5 c 128,-1,20
 487 264 487 264 514 242 c 128,-1,21
 541 220 541 220 541 179 c 2,22,-1
 541 132 l 2,23,24
 541 65 541 65 498.5 28.5 c 128,-1,25
 456 -8 456 -8 383 -8 c 0,26,27
 285 -8 285 -8 210 7 c 1,28,-1
 210 21 l 1,29,30
 305 16 305 16 364 16 c 128,-1,31
 423 16 423 16 451.5 27.5 c 128,-1,32
 480 39 480 39 493 58 c 0,33,34
 517 93 517 93 517 132 c 2,35,-1
 517 179 l 1,36,37
 518 213 518 213 491.5 230 c 128,-1,38
 465 247 465 247 426.5 251.5 c 128,-1,39
 388 256 388 256 350 261.5 c 128,-1,40
 312 267 312 267 285 287.5 c 128,-1,41
 258 308 258 308 258 345.5 c 128,-1,42
 258 383 258 383 277.5 404 c 128,-1,43
 297 425 297 425 339 454 c 128,-1,44
 381 483 381 483 399 495.5 c 128,-1,45
 417 508 417 508 440 541 c 0,46,47
 475 590 475 590 475 638.5 c 128,-1,48
 475 687 475 687 440 715 c 0,49,50
 393 753 393 753 297.5 753 c 128,-1,51
 202 753 202 753 153.5 704 c 128,-1,52
 105 655 105 655 105 566 c 2,53,-1
 105 0 l 1,54,-1
 81 0 l 1,0,-1
EndSplineSet
Substitution2: "'smcp' Lowercase to Small Capitals lookup 1 subtable" germandbls.smcp
EndChar

StartChar: agrave
Encoding: 224 224 161
Width: 520
GlyphClass: 2
Flags: W
LayerCount: 2
Fore
SplineSet
131 734 m 1,0,-1
 157 734 l 1,1,-1
 278 601 l 1,2,-1
 264 601 l 1,3,-1
 131 734 l 1,0,-1
71 510 m 1,4,5
 197 541 197 541 303 541 c 0,6,7
 368 541 368 541 410.5 503 c 128,-1,8
 453 465 453 465 453 387 c 2,9,-1
 453 0 l 1,10,-1
 438 0 l 1,11,-1
 429 64 l 1,12,-1
 413 57 l 2,13,14
 269 -6 269 -6 187 -6 c 0,15,16
 130 -6 130 -6 92 29 c 128,-1,17
 54 64 54 64 54 126 c 2,18,-1
 54 187 l 2,19,20
 54 250 54 250 89.5 285 c 128,-1,21
 125 320 125 320 187 320 c 0,22,23
 308 320 308 320 368.5 320 c 128,-1,24
 429 320 429 320 429 320 c 1,25,26
 430 353 430 353 430 369.5 c 128,-1,27
 430 386 430 386 429 387 c 1,28,29
 429 519 429 519 293 519 c 0,30,31
 221 519 221 519 71 496 c 1,32,-1
 71 510 l 1,4,5
78 131 m 2,33,34
 78 73 78 73 110 46 c 0,35,36
 144 18 144 18 185.5 18 c 128,-1,37
 227 18 227 18 285.5 32.5 c 128,-1,38
 344 47 344 47 386 62 c 2,39,-1
 429 78 l 1,40,-1
 429 306 l 1,41,-1
 187 296 l 2,42,43
 78 292 78 292 78 187 c 2,44,-1
 78 131 l 2,33,34
EndSplineSet
AlternateSubs2: "'salt' Stylistic Alternatives in Latin lookup 16 subtable" agrave.salt
Substitution2: "'smcp' Lowercase to Small Capitals lookup 1 subtable" agrave.smcp
EndChar

StartChar: aacute
Encoding: 225 225 162
Width: 520
GlyphClass: 2
Flags: W
LayerCount: 2
Fore
SplineSet
258 601 m 1,0,-1
 379 734 l 1,1,-1
 405 734 l 1,2,-1
 272 601 l 1,3,-1
 258 601 l 1,0,-1
71 510 m 1,4,5
 197 541 197 541 303 541 c 0,6,7
 368 541 368 541 410.5 503 c 128,-1,8
 453 465 453 465 453 387 c 2,9,-1
 453 0 l 1,10,-1
 438 0 l 1,11,-1
 429 64 l 1,12,-1
 413 57 l 2,13,14
 269 -6 269 -6 187 -6 c 0,15,16
 130 -6 130 -6 92 29 c 128,-1,17
 54 64 54 64 54 126 c 2,18,-1
 54 187 l 2,19,20
 54 250 54 250 89.5 285 c 128,-1,21
 125 320 125 320 187 320 c 0,22,23
 308 320 308 320 368.5 320 c 128,-1,24
 429 320 429 320 429 320 c 1,25,26
 430 353 430 353 430 369.5 c 128,-1,27
 430 386 430 386 429 387 c 1,28,29
 429 519 429 519 293 519 c 0,30,31
 221 519 221 519 71 496 c 1,32,-1
 71 510 l 1,4,5
78 131 m 2,33,34
 78 73 78 73 110 46 c 0,35,36
 144 18 144 18 185.5 18 c 128,-1,37
 227 18 227 18 285.5 32.5 c 128,-1,38
 344 47 344 47 386 62 c 2,39,-1
 429 78 l 1,40,-1
 429 306 l 1,41,-1
 187 296 l 2,42,43
 78 292 78 292 78 187 c 2,44,-1
 78 131 l 2,33,34
EndSplineSet
AlternateSubs2: "'salt' Stylistic Alternatives in Latin lookup 16 subtable" aacute.salt
Substitution2: "'smcp' Lowercase to Small Capitals lookup 1 subtable" aacute.smcp
EndChar

StartChar: acircumflex
Encoding: 226 226 163
Width: 520
GlyphClass: 2
Flags: W
LayerCount: 2
Fore
SplineSet
133 601 m 1,0,-1
 265 731 l 1,1,-1
 285 731 l 1,2,-1
 405 601 l 1,3,-1
 387 601 l 1,4,-1
 275 716 l 1,5,-1
 151 601 l 1,6,-1
 133 601 l 1,0,-1
71 510 m 1,7,8
 197 541 197 541 303 541 c 0,9,10
 368 541 368 541 410.5 503 c 128,-1,11
 453 465 453 465 453 387 c 2,12,-1
 453 0 l 1,13,-1
 438 0 l 1,14,-1
 429 64 l 1,15,-1
 413 57 l 2,16,17
 269 -6 269 -6 187 -6 c 0,18,19
 130 -6 130 -6 92 29 c 128,-1,20
 54 64 54 64 54 126 c 2,21,-1
 54 187 l 2,22,23
 54 250 54 250 89.5 285 c 128,-1,24
 125 320 125 320 187 320 c 0,25,26
 308 320 308 320 368.5 320 c 128,-1,27
 429 320 429 320 429 320 c 1,28,29
 430 353 430 353 430 369.5 c 128,-1,30
 430 386 430 386 429 387 c 1,31,32
 429 519 429 519 293 519 c 0,33,34
 221 519 221 519 71 496 c 1,35,-1
 71 510 l 1,7,8
78 131 m 2,36,37
 78 73 78 73 110 46 c 0,38,39
 144 18 144 18 185.5 18 c 128,-1,40
 227 18 227 18 285.5 32.5 c 128,-1,41
 344 47 344 47 386 62 c 2,42,-1
 429 78 l 1,43,-1
 429 306 l 1,44,-1
 187 296 l 2,45,46
 78 292 78 292 78 187 c 2,47,-1
 78 131 l 2,36,37
EndSplineSet
AlternateSubs2: "'salt' Stylistic Alternatives in Latin lookup 16 subtable" acircumflex.salt
Substitution2: "'smcp' Lowercase to Small Capitals lookup 1 subtable" acircumflex.smcp
EndChar

StartChar: atilde
Encoding: 227 227 164
Width: 520
GlyphClass: 2
Flags: W
LayerCount: 2
Fore
SplineSet
202 700 m 128,-1,1
 221 700 221 700 266.5 663.5 c 128,-1,2
 312 627 312 627 327 627 c 0,3,4
 363 627 363 627 427 680 c 1,5,-1
 433 673 l 1,6,7
 413 653 413 653 400 642 c 0,8,9
 364 611 364 611 327 611 c 0,10,11
 305 611 305 611 260.5 647.5 c 128,-1,12
 216 684 216 684 204.5 684 c 128,-1,13
 193 684 193 684 185.5 683 c 128,-1,14
 178 682 178 682 170 678.5 c 128,-1,15
 162 675 162 675 157 673 c 128,-1,16
 152 671 152 671 142 664.5 c 128,-1,17
 132 658 132 658 128.5 655.5 c 128,-1,18
 125 653 125 653 113.5 644.5 c 128,-1,19
 102 636 102 636 99 634 c 1,20,-1
 95 642 l 1,21,22
 137 678 137 678 160 689 c 128,-1,0
 183 700 183 700 202 700 c 128,-1,1
71 510 m 1,23,24
 197 541 197 541 303 541 c 0,25,26
 368 541 368 541 410.5 503 c 128,-1,27
 453 465 453 465 453 387 c 2,28,-1
 453 0 l 1,29,-1
 438 0 l 1,30,-1
 429 64 l 1,31,-1
 413 57 l 2,32,33
 269 -6 269 -6 187 -6 c 0,34,35
 130 -6 130 -6 92 29 c 128,-1,36
 54 64 54 64 54 126 c 2,37,-1
 54 187 l 2,38,39
 54 250 54 250 89.5 285 c 128,-1,40
 125 320 125 320 187 320 c 0,41,42
 308 320 308 320 368.5 320 c 128,-1,43
 429 320 429 320 429 320 c 1,44,45
 430 353 430 353 430 369.5 c 128,-1,46
 430 386 430 386 429 387 c 1,47,48
 429 519 429 519 293 519 c 0,49,50
 221 519 221 519 71 496 c 1,51,-1
 71 510 l 1,23,24
78 131 m 2,52,53
 78 73 78 73 110 46 c 0,54,55
 144 18 144 18 185.5 18 c 128,-1,56
 227 18 227 18 285.5 32.5 c 128,-1,57
 344 47 344 47 386 62 c 2,58,-1
 429 78 l 1,59,-1
 429 306 l 1,60,-1
 187 296 l 2,61,62
 78 292 78 292 78 187 c 2,63,-1
 78 131 l 2,52,53
EndSplineSet
AlternateSubs2: "'salt' Stylistic Alternatives in Latin lookup 16 subtable" atilde.salt
Substitution2: "'smcp' Lowercase to Small Capitals lookup 1 subtable" atilde.smcp
EndChar

StartChar: adieresis
Encoding: 228 228 165
Width: 520
GlyphClass: 2
Flags: W
LayerCount: 2
Fore
SplineSet
141 634 m 128,-1,1
 124 634 124 634 124 651.5 c 128,-1,2
 124 669 124 669 141 669 c 128,-1,3
 158 669 158 669 158 651.5 c 128,-1,0
 158 634 158 634 141 634 c 128,-1,1
378 652 m 0,4,5
 378 669 378 669 395.5 669 c 128,-1,6
 413 669 413 669 413 651.5 c 128,-1,7
 413 634 413 634 396 634 c 0,8,9
 388 634 388 634 383 639 c 128,-1,10
 378 644 378 644 378 652 c 0,4,5
71 510 m 1,11,12
 197 541 197 541 303 541 c 0,13,14
 368 541 368 541 410.5 503 c 128,-1,15
 453 465 453 465 453 387 c 2,16,-1
 453 0 l 1,17,-1
 438 0 l 1,18,-1
 429 64 l 1,19,-1
 413 57 l 2,20,21
 269 -6 269 -6 187 -6 c 0,22,23
 130 -6 130 -6 92 29 c 128,-1,24
 54 64 54 64 54 126 c 2,25,-1
 54 187 l 2,26,27
 54 250 54 250 89.5 285 c 128,-1,28
 125 320 125 320 187 320 c 0,29,30
 308 320 308 320 368.5 320 c 128,-1,31
 429 320 429 320 429 320 c 1,32,33
 430 353 430 353 430 369.5 c 128,-1,34
 430 386 430 386 429 387 c 1,35,36
 429 519 429 519 293 519 c 0,37,38
 221 519 221 519 71 496 c 1,39,-1
 71 510 l 1,11,12
78 131 m 2,40,41
 78 73 78 73 110 46 c 0,42,43
 144 18 144 18 185.5 18 c 128,-1,44
 227 18 227 18 285.5 32.5 c 128,-1,45
 344 47 344 47 386 62 c 2,46,-1
 429 78 l 1,47,-1
 429 306 l 1,48,-1
 187 296 l 2,49,50
 78 292 78 292 78 187 c 2,51,-1
 78 131 l 2,40,41
EndSplineSet
AlternateSubs2: "'salt' Stylistic Alternatives in Latin lookup 16 subtable" adieresis.salt
Substitution2: "'smcp' Lowercase to Small Capitals lookup 1 subtable" adieresis.smcp
EndChar

StartChar: aring
Encoding: 229 229 166
Width: 520
GlyphClass: 2
Flags: W
LayerCount: 2
Fore
SplineSet
163 673 m 128,-1,1
 163 716 163 716 193 746 c 128,-1,2
 223 776 223 776 265 776 c 128,-1,3
 307 776 307 776 336 746 c 128,-1,4
 365 716 365 716 365 673 c 128,-1,5
 365 630 365 630 336 600.5 c 128,-1,6
 307 571 307 571 265 571 c 128,-1,7
 223 571 223 571 193 600.5 c 128,-1,0
 163 630 163 630 163 673 c 128,-1,1
177 673 m 128,-1,9
 177 637 177 637 203 611.5 c 128,-1,10
 229 586 229 586 265 586 c 128,-1,11
 301 586 301 586 326 611.5 c 128,-1,12
 351 637 351 637 351 673 c 128,-1,13
 351 709 351 709 326 735 c 128,-1,14
 301 761 301 761 265 761 c 128,-1,15
 229 761 229 761 203 735 c 128,-1,8
 177 709 177 709 177 673 c 128,-1,9
71 510 m 1,16,17
 197 541 197 541 303 541 c 0,18,19
 368 541 368 541 410.5 503 c 128,-1,20
 453 465 453 465 453 387 c 2,21,-1
 453 0 l 1,22,-1
 438 0 l 1,23,-1
 429 64 l 1,24,-1
 413 57 l 2,25,26
 269 -6 269 -6 187 -6 c 0,27,28
 130 -6 130 -6 92 29 c 128,-1,29
 54 64 54 64 54 126 c 2,30,-1
 54 187 l 2,31,32
 54 250 54 250 89.5 285 c 128,-1,33
 125 320 125 320 187 320 c 0,34,35
 308 320 308 320 368.5 320 c 128,-1,36
 429 320 429 320 429 320 c 1,37,38
 430 353 430 353 430 369.5 c 128,-1,39
 430 386 430 386 429 387 c 1,40,41
 429 519 429 519 293 519 c 0,42,43
 221 519 221 519 71 496 c 1,44,-1
 71 510 l 1,16,17
78 131 m 2,45,46
 78 73 78 73 110 46 c 0,47,48
 144 18 144 18 185.5 18 c 128,-1,49
 227 18 227 18 285.5 32.5 c 128,-1,50
 344 47 344 47 386 62 c 2,51,-1
 429 78 l 1,52,-1
 429 306 l 1,53,-1
 187 296 l 2,54,55
 78 292 78 292 78 187 c 2,56,-1
 78 131 l 2,45,46
EndSplineSet
AlternateSubs2: "'salt' Stylistic Alternatives in Latin lookup 16 subtable" aring.salt
Substitution2: "'smcp' Lowercase to Small Capitals lookup 1 subtable" aring.smcp
EndChar

StartChar: ae
Encoding: 230 230 167
Width: 889
GlyphClass: 2
Flags: W
LayerCount: 2
Fore
SplineSet
71 510 m 1,0,1
 197 541 197 541 304 541 c 0,2,3
 356 541 356 541 395.5 515 c 128,-1,4
 435 489 435 489 448 435 c 1,5,6
 462 492 462 492 506 513 c 128,-1,7
 550 534 550 534 632 534 c 0,8,9
 738 534 738 534 764 520 c 0,10,11
 805 499 805 499 816 470 c 1,12,13
 835 425 835 425 835 364 c 128,-1,14
 835 303 835 303 801.5 282.5 c 128,-1,15
 768 262 768 262 698 262 c 2,16,-1
 454 262 l 1,17,18
 453 234 453 234 453 209 c 128,-1,19
 453 184 453 184 454.5 153 c 128,-1,20
 456 122 456 122 461 94.5 c 128,-1,21
 466 67 466 67 483 50 c 128,-1,22
 500 33 500 33 528 26 c 0,23,24
 609 6 609 6 825 38 c 1,25,-1
 825 22 l 1,26,27
 726 -6 726 -6 605 -6 c 0,28,29
 512 -6 512 -6 478 22 c 0,30,31
 462 36 462 36 456 43 c 128,-1,32
 450 50 450 50 444 63 c 1,33,-1
 426 56 l 1,34,35
 272 -6 272 -6 187 -6 c 0,36,37
 130 -6 130 -6 92 29 c 128,-1,38
 54 64 54 64 54 126 c 2,39,-1
 54 155 l 2,40,41
 54 218 54 218 89.5 253 c 128,-1,42
 125 288 125 288 187 288 c 0,43,44
 308 288 308 288 368.5 288 c 128,-1,45
 429 288 429 288 429 288 c 1,46,47
 430 337 430 337 430 361.5 c 128,-1,48
 430 386 430 386 429 387 c 1,49,50
 429 519 429 519 293 519 c 0,51,52
 221 519 221 519 71 496 c 1,53,-1
 71 510 l 1,0,1
78 131 m 2,54,55
 78 73 78 73 110 46 c 0,56,57
 144 18 144 18 185 18 c 128,-1,58
 226 18 226 18 285 34.5 c 128,-1,59
 344 51 344 51 386 68 c 2,60,-1
 429 85 l 1,61,-1
 429 270 l 1,62,-1
 187 264 l 2,63,64
 78 261 78 261 78 155 c 2,65,-1
 78 131 l 2,54,55
698 285 m 2,66,67
 786 285 786 285 803 318 c 0,68,69
 811 334 811 334 811 365 c 128,-1,70
 811 396 811 396 807 422 c 128,-1,71
 803 448 803 448 791.5 465 c 128,-1,72
 780 482 780 482 769.5 491 c 128,-1,73
 759 500 759 500 734 504 c 0,74,75
 695 510 695 510 633 510 c 0,76,77
 522 510 522 510 489 468 c 128,-1,78
 456 426 456 426 454 285 c 1,79,-1
 698 285 l 2,66,67
EndSplineSet
Substitution2: "'smcp' Lowercase to Small Capitals lookup 1 subtable" ae.smcp
EndChar

StartChar: ccedilla
Encoding: 231 231 168
Width: 501
GlyphClass: 2
Flags: W
LayerCount: 2
Fore
SplineSet
68 266 m 128,-1,1
 68 350 68 350 80 405.5 c 128,-1,2
 92 461 92 461 117 488.5 c 128,-1,3
 142 516 142 516 171 526 c 128,-1,4
 200 536 200 536 262.5 536 c 128,-1,5
 325 536 325 536 440 510 c 1,6,-1
 440 496 l 1,7,8
 331 512 331 512 267.5 512 c 128,-1,9
 204 512 204 512 179.5 503 c 128,-1,10
 155 494 155 494 134 468 c 0,11,12
 92 419 92 419 92 262 c 0,13,14
 92 114 92 114 136 63 c 0,15,16
 157 38 157 38 182 28.5 c 128,-1,17
 207 19 207 19 245 19 c 0,18,19
 318 19 318 19 417 35 c 2,20,-1
 448 40 l 1,21,-1
 448 24 l 1,22,23
 350 -4 350 -4 242 -5 c 0,24,25
 201 -5 201 -5 172.5 5 c 128,-1,26
 144 15 144 15 118.5 42.5 c 128,-1,27
 93 70 93 70 80.5 126 c 128,-1,0
 68 182 68 182 68 266 c 128,-1,1
253 -135 m 128,-1,29
 266 -123 266 -123 270 -100.5 c 128,-1,30
 274 -78 274 -78 274 -60 c 128,-1,31
 274 -42 274 -42 274 -35 c 1,32,-1
 291 -35 l 1,33,34
 291 -112 291 -112 271 -141.5 c 128,-1,35
 251 -171 251 -171 190 -171 c 2,36,-1
 159 -171 l 1,37,-1
 159 -164 l 1,38,-1
 192 -159 l 2,39,40
 216 -155 216 -155 228 -151 c 128,-1,28
 240 -147 240 -147 253 -135 c 128,-1,29
EndSplineSet
Substitution2: "'smcp' Lowercase to Small Capitals lookup 1 subtable" ccedilla.smcp
EndChar

StartChar: egrave
Encoding: 232 232 169
Width: 526
GlyphClass: 2
Flags: W
LayerCount: 2
Fore
SplineSet
145 724 m 1,0,-1
 171 724 l 1,1,-1
 292 591 l 1,2,-1
 278 591 l 1,3,-1
 145 724 l 1,0,-1
96 463 m 0,4,5
 119 516 119 516 192 530 c 0,6,7
 222 535 222 535 267 535 c 128,-1,8
 312 535 312 535 338 532.5 c 128,-1,9
 364 530 364 530 392.5 519.5 c 128,-1,10
 421 509 421 509 436 490 c 0,11,12
 472 445 472 445 472 347 c 0,13,14
 472 291 472 291 439 270.5 c 128,-1,15
 406 250 406 250 336 250 c 2,16,-1
 92 250 l 1,17,18
 92 104 92 104 135 58 c 0,19,20
 157 35 157 35 181.5 27 c 128,-1,21
 206 19 206 19 266 19 c 128,-1,22
 326 19 326 19 462 39 c 1,23,-1
 462 23 l 1,24,25
 361 -5 361 -5 250 -5 c 0,26,27
 143 -5 143 -5 105.5 56.5 c 128,-1,28
 68 118 68 118 68 258 c 128,-1,29
 68 398 68 398 96 463 c 0,4,5
92 273 m 1,30,-1
 336 273 l 2,31,32
 420 273 420 273 439 306 c 0,33,34
 448 322 448 322 448 362 c 128,-1,35
 448 402 448 402 437.5 435.5 c 128,-1,36
 427 469 427 469 402 485.5 c 128,-1,37
 377 502 377 502 348.5 506.5 c 128,-1,38
 320 511 320 511 258 511 c 128,-1,39
 196 511 196 511 160.5 494.5 c 128,-1,40
 125 478 125 478 108.5 428 c 128,-1,41
 92 378 92 378 92 273 c 1,30,-1
EndSplineSet
Substitution2: "'smcp' Lowercase to Small Capitals lookup 1 subtable" egrave.smcp
EndChar

StartChar: eacute
Encoding: 233 233 170
Width: 526
GlyphClass: 2
Flags: W
LayerCount: 2
Fore
SplineSet
272 591 m 1,0,-1
 393 724 l 1,1,-1
 419 724 l 1,2,-1
 286 591 l 1,3,-1
 272 591 l 1,0,-1
96 463 m 0,4,5
 119 516 119 516 192 530 c 0,6,7
 222 535 222 535 267 535 c 128,-1,8
 312 535 312 535 338 532.5 c 128,-1,9
 364 530 364 530 392.5 519.5 c 128,-1,10
 421 509 421 509 436 490 c 0,11,12
 472 445 472 445 472 347 c 0,13,14
 472 291 472 291 439 270.5 c 128,-1,15
 406 250 406 250 336 250 c 2,16,-1
 92 250 l 1,17,18
 92 104 92 104 135 58 c 0,19,20
 157 35 157 35 181.5 27 c 128,-1,21
 206 19 206 19 266 19 c 128,-1,22
 326 19 326 19 462 39 c 1,23,-1
 462 23 l 1,24,25
 361 -5 361 -5 250 -5 c 0,26,27
 143 -5 143 -5 105.5 56.5 c 128,-1,28
 68 118 68 118 68 258 c 128,-1,29
 68 398 68 398 96 463 c 0,4,5
92 273 m 1,30,-1
 336 273 l 2,31,32
 420 273 420 273 439 306 c 0,33,34
 448 322 448 322 448 362 c 128,-1,35
 448 402 448 402 437.5 435.5 c 128,-1,36
 427 469 427 469 402 485.5 c 128,-1,37
 377 502 377 502 348.5 506.5 c 128,-1,38
 320 511 320 511 258 511 c 128,-1,39
 196 511 196 511 160.5 494.5 c 128,-1,40
 125 478 125 478 108.5 428 c 128,-1,41
 92 378 92 378 92 273 c 1,30,-1
EndSplineSet
Substitution2: "'smcp' Lowercase to Small Capitals lookup 1 subtable" eacute.smcp
EndChar

StartChar: ecircumflex
Encoding: 234 234 171
Width: 526
GlyphClass: 2
Flags: W
LayerCount: 2
Fore
SplineSet
135 591 m 1,0,-1
 267 721 l 1,1,-1
 287 721 l 1,2,-1
 407 591 l 1,3,-1
 389 591 l 1,4,-1
 277 706 l 1,5,-1
 153 591 l 1,6,-1
 135 591 l 1,0,-1
96 463 m 0,7,8
 119 516 119 516 192 530 c 0,9,10
 222 535 222 535 267 535 c 128,-1,11
 312 535 312 535 338 532.5 c 128,-1,12
 364 530 364 530 392.5 519.5 c 128,-1,13
 421 509 421 509 436 490 c 0,14,15
 472 445 472 445 472 347 c 0,16,17
 472 291 472 291 439 270.5 c 128,-1,18
 406 250 406 250 336 250 c 2,19,-1
 92 250 l 1,20,21
 92 104 92 104 135 58 c 0,22,23
 157 35 157 35 181.5 27 c 128,-1,24
 206 19 206 19 266 19 c 128,-1,25
 326 19 326 19 462 39 c 1,26,-1
 462 23 l 1,27,28
 361 -5 361 -5 250 -5 c 0,29,30
 143 -5 143 -5 105.5 56.5 c 128,-1,31
 68 118 68 118 68 258 c 128,-1,32
 68 398 68 398 96 463 c 0,7,8
92 273 m 1,33,-1
 336 273 l 2,34,35
 420 273 420 273 439 306 c 0,36,37
 448 322 448 322 448 362 c 128,-1,38
 448 402 448 402 437.5 435.5 c 128,-1,39
 427 469 427 469 402 485.5 c 128,-1,40
 377 502 377 502 348.5 506.5 c 128,-1,41
 320 511 320 511 258 511 c 128,-1,42
 196 511 196 511 160.5 494.5 c 128,-1,43
 125 478 125 478 108.5 428 c 128,-1,44
 92 378 92 378 92 273 c 1,33,-1
EndSplineSet
Substitution2: "'smcp' Lowercase to Small Capitals lookup 1 subtable" ecircumflex.smcp
EndChar

StartChar: edieresis
Encoding: 235 235 172
Width: 526
GlyphClass: 2
Flags: W
LayerCount: 2
Fore
SplineSet
150 624 m 128,-1,1
 133 624 133 624 133 641.5 c 128,-1,2
 133 659 133 659 150 659 c 128,-1,3
 167 659 167 659 167 641.5 c 128,-1,0
 167 624 167 624 150 624 c 128,-1,1
387 642 m 0,4,5
 387 659 387 659 404.5 659 c 128,-1,6
 422 659 422 659 422 641.5 c 128,-1,7
 422 624 422 624 405 624 c 0,8,9
 398 624 398 624 392.5 629 c 128,-1,10
 387 634 387 634 387 642 c 0,4,5
96 463 m 0,11,12
 119 516 119 516 192 530 c 0,13,14
 222 535 222 535 267 535 c 128,-1,15
 312 535 312 535 338 532.5 c 128,-1,16
 364 530 364 530 392.5 519.5 c 128,-1,17
 421 509 421 509 436 490 c 0,18,19
 472 445 472 445 472 347 c 0,20,21
 472 291 472 291 439 270.5 c 128,-1,22
 406 250 406 250 336 250 c 2,23,-1
 92 250 l 1,24,25
 92 104 92 104 135 58 c 0,26,27
 157 35 157 35 181.5 27 c 128,-1,28
 206 19 206 19 266 19 c 128,-1,29
 326 19 326 19 462 39 c 1,30,-1
 462 23 l 1,31,32
 361 -5 361 -5 250 -5 c 0,33,34
 143 -5 143 -5 105.5 56.5 c 128,-1,35
 68 118 68 118 68 258 c 128,-1,36
 68 398 68 398 96 463 c 0,11,12
92 273 m 1,37,-1
 336 273 l 2,38,39
 420 273 420 273 439 306 c 0,40,41
 448 322 448 322 448 362 c 128,-1,42
 448 402 448 402 437.5 435.5 c 128,-1,43
 427 469 427 469 402 485.5 c 128,-1,44
 377 502 377 502 348.5 506.5 c 128,-1,45
 320 511 320 511 258 511 c 128,-1,46
 196 511 196 511 160.5 494.5 c 128,-1,47
 125 478 125 478 108.5 428 c 128,-1,48
 92 378 92 378 92 273 c 1,37,-1
EndSplineSet
Substitution2: "'smcp' Lowercase to Small Capitals lookup 1 subtable" edieresis.smcp
EndChar

StartChar: igrave
Encoding: 236 236 173
Width: 186
GlyphClass: 2
Flags: W
LayerCount: 2
Fore
SplineSet
-47 729 m 1,0,-1
 -21 729 l 1,1,-1
 100 596 l 1,2,-1
 86 596 l 1,3,-1
 -47 729 l 1,0,-1
81 0 m 1,4,-1
 81 531 l 1,5,-1
 105 531 l 1,6,-1
 105 0 l 1,7,-1
 81 0 l 1,4,-1
EndSplineSet
Substitution2: "'smcp' Lowercase to Small Capitals lookup 1 subtable" igrave.smcp
EndChar

StartChar: iacute
Encoding: 237 237 174
Width: 186
GlyphClass: 2
Flags: W
LayerCount: 2
Fore
SplineSet
86 596 m 1,0,-1
 207 729 l 1,1,-1
 233 729 l 1,2,-1
 100 596 l 1,3,-1
 86 596 l 1,0,-1
81 0 m 1,4,-1
 81 531 l 1,5,-1
 105 531 l 1,6,-1
 105 0 l 1,7,-1
 81 0 l 1,4,-1
EndSplineSet
Substitution2: "'smcp' Lowercase to Small Capitals lookup 1 subtable" iacute.smcp
EndChar

StartChar: icircumflex
Encoding: 238 238 175
Width: 186
GlyphClass: 2
Flags: W
LayerCount: 2
Fore
SplineSet
-43 596 m 1,0,-1
 89 726 l 1,1,-1
 109 726 l 1,2,-1
 229 596 l 1,3,-1
 211 596 l 1,4,-1
 99 711 l 1,5,-1
 -25 596 l 1,6,-1
 -43 596 l 1,0,-1
81 0 m 1,7,-1
 81 531 l 1,8,-1
 105 531 l 1,9,-1
 105 0 l 1,10,-1
 81 0 l 1,7,-1
EndSplineSet
Substitution2: "'smcp' Lowercase to Small Capitals lookup 1 subtable" icircumflex.smcp
EndChar

StartChar: idieresis
Encoding: 239 239 176
Width: 186
GlyphClass: 2
Flags: W
LayerCount: 2
Fore
SplineSet
-52 614 m 128,-1,1
 -52 622 -52 622 -47 626.5 c 128,-1,2
 -42 631 -42 631 -34.5 631 c 128,-1,3
 -27 631 -27 631 -22.5 626.5 c 128,-1,4
 -18 622 -18 622 -18 615.5 c 128,-1,5
 -18 609 -18 609 -20 605 c 0,6,7
 -24 596 -24 596 -33 596 c 128,-1,8
 -42 596 -42 596 -47 601 c 128,-1,0
 -52 606 -52 606 -52 614 c 128,-1,1
202 613.5 m 128,-1,10
 202 621 202 621 207.5 626 c 128,-1,11
 213 631 213 631 220.5 631 c 128,-1,12
 228 631 228 631 233 626.5 c 128,-1,13
 238 622 238 622 238 615.5 c 128,-1,14
 238 609 238 609 235 605 c 1,15,16
 231 596 231 596 222 596 c 128,-1,17
 213 596 213 596 207.5 601 c 128,-1,9
 202 606 202 606 202 613.5 c 128,-1,10
81 0 m 1,18,-1
 81 531 l 1,19,-1
 105 531 l 1,20,-1
 105 0 l 1,21,-1
 81 0 l 1,18,-1
EndSplineSet
Substitution2: "'smcp' Lowercase to Small Capitals lookup 1 subtable" idieresis.smcp
EndChar

StartChar: eth
Encoding: 240 240 177
Width: 540
GlyphClass: 2
Flags: W
LayerCount: 2
Fore
SplineSet
93 62.5 m 128,-1,1
 54 125 54 125 54 261.5 c 128,-1,2
 54 398 54 398 94.5 464.5 c 128,-1,3
 135 531 135 531 232 531 c 2,4,-1
 302 531 l 2,5,6
 359 531 359 531 395.5 508.5 c 128,-1,7
 432 486 432 486 442 465 c 1,8,9
 415 609 415 609 340 684 c 1,10,-1
 179 620 l 1,11,-1
 174 634 l 1,12,-1
 328 695 l 1,13,14
 250 761 250 761 138 762 c 1,15,-1
 138 783 l 1,16,17
 265 783 265 783 352 704 c 1,18,-1
 480 755 l 1,19,-1
 486 741 l 1,20,-1
 364 693 l 1,21,22
 482 568 482 568 482 264 c 0,23,24
 482 122 482 122 435 61 c 128,-1,25
 388 0 388 0 302 0 c 2,26,-1
 232 0 l 2,27,0
 132 0 132 0 93 62.5 c 128,-1,1
89 386.5 m 128,-1,29
 78 337 78 337 78 263.5 c 128,-1,30
 78 190 78 190 88 142 c 128,-1,31
 98 94 98 94 119 69 c 128,-1,32
 140 44 140 44 166.5 35 c 128,-1,33
 193 26 193 26 232 26 c 2,34,-1
 302 26 l 2,35,36
 394 26 394 26 428 96 c 0,37,38
 458 160 458 160 458 264 c 0,39,40
 458 399 458 399 419 454 c 0,41,42
 403 476 403 476 373 491.5 c 128,-1,43
 343 507 343 507 302 507 c 2,44,-1
 232 507 l 2,45,46
 196 507 196 507 170 497 c 128,-1,47
 144 487 144 487 122 461.5 c 128,-1,28
 100 436 100 436 89 386.5 c 128,-1,29
EndSplineSet
Substitution2: "'smcp' Lowercase to Small Capitals lookup 1 subtable" eth.smcp
EndChar

StartChar: ntilde
Encoding: 241 241 178
Width: 552
GlyphClass: 2
Flags: W
LayerCount: 2
Fore
SplineSet
221 689 m 128,-1,1
 240 689 240 689 285.5 652.5 c 128,-1,2
 331 616 331 616 346 616 c 0,3,4
 382 616 382 616 446 669 c 1,5,-1
 452 662 l 1,6,7
 432 642 432 642 418 630 c 0,8,9
 383 600 383 600 346 600 c 0,10,11
 324 600 324 600 279.5 636.5 c 128,-1,12
 235 673 235 673 223.5 673 c 128,-1,13
 212 673 212 673 204.5 672 c 128,-1,14
 197 671 197 671 189 667.5 c 128,-1,15
 181 664 181 664 176 662 c 128,-1,16
 171 660 171 660 161 653.5 c 128,-1,17
 151 647 151 647 147.5 644.5 c 128,-1,18
 144 642 144 642 132.5 633.5 c 128,-1,19
 121 625 121 625 118 623 c 1,20,-1
 114 631 l 1,21,22
 156 667 156 667 179 678 c 128,-1,0
 202 689 202 689 221 689 c 128,-1,1
81 0 m 1,23,-1
 81 531 l 1,24,-1
 95 531 l 1,25,-1
 105 469 l 1,26,27
 213 540 213 540 321 540 c 0,28,29
 397 540 397 540 441 490 c 128,-1,30
 485 440 485 440 485 370 c 2,31,-1
 485 0 l 1,32,-1
 461 0 l 1,33,-1
 461 370 l 2,34,35
 461 432 461 432 423 474 c 128,-1,36
 385 516 385 516 322 516 c 128,-1,37
 259 516 259 516 212 502 c 128,-1,38
 165 488 165 488 105 455 c 1,39,-1
 105 0 l 1,40,-1
 81 0 l 1,23,-1
EndSplineSet
AlternateSubs2: "'salt' Stylistic Alternatives in Latin lookup 16 subtable" ntilde.salt
Substitution2: "'smcp' Lowercase to Small Capitals lookup 1 subtable" ntilde.smcp
EndChar

StartChar: ograve
Encoding: 242 242 179
Width: 573
GlyphClass: 2
Flags: W
LayerCount: 2
Fore
SplineSet
146 729 m 1,0,-1
 172 729 l 1,1,-1
 293 596 l 1,2,-1
 279 596 l 1,3,-1
 146 729 l 1,0,-1
113 53 m 128,-1,5
 68 111 68 111 68 264.5 c 128,-1,6
 68 418 68 418 116 477 c 128,-1,7
 164 536 164 536 287.5 536 c 128,-1,8
 411 536 411 536 458.5 470.5 c 128,-1,9
 506 405 506 405 506 258 c 128,-1,10
 506 111 506 111 458.5 53 c 128,-1,11
 411 -5 411 -5 284.5 -5 c 128,-1,4
 158 -5 158 -5 113 53 c 128,-1,5
104.5 395.5 m 128,-1,13
 92 343 92 343 92 261.5 c 128,-1,14
 92 180 92 180 103.5 131.5 c 128,-1,15
 115 83 115 83 142 59 c 128,-1,16
 169 35 169 35 201 27 c 128,-1,17
 233 19 233 19 285.5 19 c 128,-1,18
 338 19 338 19 371.5 28 c 128,-1,19
 405 37 405 37 432 62 c 1,20,21
 482 111 482 111 482 258 c 0,22,23
 482 415 482 415 428 466 c 1,24,25
 401 493 401 493 368.5 502.5 c 128,-1,26
 336 512 336 512 285.5 512 c 128,-1,27
 235 512 235 512 204 504.5 c 128,-1,28
 173 497 173 497 145 472.5 c 128,-1,12
 117 448 117 448 104.5 395.5 c 128,-1,13
EndSplineSet
Substitution2: "'smcp' Lowercase to Small Capitals lookup 1 subtable" ograve.smcp
EndChar

StartChar: oacute
Encoding: 243 243 180
Width: 573
GlyphClass: 2
Flags: W
LayerCount: 2
Fore
SplineSet
279 596 m 1,0,-1
 400 729 l 1,1,-1
 426 729 l 1,2,-1
 293 596 l 1,3,-1
 279 596 l 1,0,-1
113 53 m 128,-1,5
 68 111 68 111 68 264.5 c 128,-1,6
 68 418 68 418 116 477 c 128,-1,7
 164 536 164 536 287.5 536 c 128,-1,8
 411 536 411 536 458.5 470.5 c 128,-1,9
 506 405 506 405 506 258 c 128,-1,10
 506 111 506 111 458.5 53 c 128,-1,11
 411 -5 411 -5 284.5 -5 c 128,-1,4
 158 -5 158 -5 113 53 c 128,-1,5
104.5 395.5 m 128,-1,13
 92 343 92 343 92 261.5 c 128,-1,14
 92 180 92 180 103.5 131.5 c 128,-1,15
 115 83 115 83 142 59 c 128,-1,16
 169 35 169 35 201 27 c 128,-1,17
 233 19 233 19 285.5 19 c 128,-1,18
 338 19 338 19 371.5 28 c 128,-1,19
 405 37 405 37 432 62 c 1,20,21
 482 111 482 111 482 258 c 0,22,23
 482 415 482 415 428 466 c 1,24,25
 401 493 401 493 368.5 502.5 c 128,-1,26
 336 512 336 512 285.5 512 c 128,-1,27
 235 512 235 512 204 504.5 c 128,-1,28
 173 497 173 497 145 472.5 c 128,-1,12
 117 448 117 448 104.5 395.5 c 128,-1,13
EndSplineSet
Substitution2: "'smcp' Lowercase to Small Capitals lookup 1 subtable" oacute.smcp
EndChar

StartChar: ocircumflex
Encoding: 244 244 181
Width: 573
GlyphClass: 2
Flags: W
LayerCount: 2
Fore
SplineSet
150 596 m 1,0,-1
 282 726 l 1,1,-1
 302 726 l 1,2,-1
 422 596 l 1,3,-1
 404 596 l 1,4,-1
 292 711 l 1,5,-1
 168 596 l 1,6,-1
 150 596 l 1,0,-1
113 53 m 128,-1,8
 68 111 68 111 68 264.5 c 128,-1,9
 68 418 68 418 116 477 c 128,-1,10
 164 536 164 536 287.5 536 c 128,-1,11
 411 536 411 536 458.5 470.5 c 128,-1,12
 506 405 506 405 506 258 c 128,-1,13
 506 111 506 111 458.5 53 c 128,-1,14
 411 -5 411 -5 284.5 -5 c 128,-1,7
 158 -5 158 -5 113 53 c 128,-1,8
104.5 395.5 m 128,-1,16
 92 343 92 343 92 261.5 c 128,-1,17
 92 180 92 180 103.5 131.5 c 128,-1,18
 115 83 115 83 142 59 c 128,-1,19
 169 35 169 35 201 27 c 128,-1,20
 233 19 233 19 285.5 19 c 128,-1,21
 338 19 338 19 371.5 28 c 128,-1,22
 405 37 405 37 432 62 c 1,23,24
 482 111 482 111 482 258 c 0,25,26
 482 415 482 415 428 466 c 1,27,28
 401 493 401 493 368.5 502.5 c 128,-1,29
 336 512 336 512 285.5 512 c 128,-1,30
 235 512 235 512 204 504.5 c 128,-1,31
 173 497 173 497 145 472.5 c 128,-1,15
 117 448 117 448 104.5 395.5 c 128,-1,16
EndSplineSet
Substitution2: "'smcp' Lowercase to Small Capitals lookup 1 subtable" ocircumflex.smcp
EndChar

StartChar: otilde
Encoding: 245 245 182
Width: 573
GlyphClass: 2
Flags: W
LayerCount: 2
Fore
SplineSet
224 685 m 128,-1,1
 243 685 243 685 288.5 648.5 c 128,-1,2
 334 612 334 612 349 612 c 0,3,4
 385 612 385 612 449 665 c 1,5,-1
 455 658 l 1,6,7
 435 638 435 638 422 626 c 0,8,9
 386 596 386 596 349 596 c 0,10,11
 327 596 327 596 282.5 632.5 c 128,-1,12
 238 669 238 669 226.5 669 c 128,-1,13
 215 669 215 669 207.5 668 c 128,-1,14
 200 667 200 667 192 663.5 c 128,-1,15
 184 660 184 660 179 658 c 128,-1,16
 174 656 174 656 164 649.5 c 128,-1,17
 154 643 154 643 150.5 640.5 c 128,-1,18
 147 638 147 638 135.5 629.5 c 128,-1,19
 124 621 124 621 121 619 c 1,20,-1
 117 627 l 1,21,22
 159 663 159 663 182 674 c 128,-1,0
 205 685 205 685 224 685 c 128,-1,1
113 53 m 128,-1,24
 68 111 68 111 68 264.5 c 128,-1,25
 68 418 68 418 116 477 c 128,-1,26
 164 536 164 536 287.5 536 c 128,-1,27
 411 536 411 536 458.5 470.5 c 128,-1,28
 506 405 506 405 506 258 c 128,-1,29
 506 111 506 111 458.5 53 c 128,-1,30
 411 -5 411 -5 284.5 -5 c 128,-1,23
 158 -5 158 -5 113 53 c 128,-1,24
104.5 395.5 m 128,-1,32
 92 343 92 343 92 261.5 c 128,-1,33
 92 180 92 180 103.5 131.5 c 128,-1,34
 115 83 115 83 142 59 c 128,-1,35
 169 35 169 35 201 27 c 128,-1,36
 233 19 233 19 285.5 19 c 128,-1,37
 338 19 338 19 371.5 28 c 128,-1,38
 405 37 405 37 432 62 c 1,39,40
 482 111 482 111 482 258 c 0,41,42
 482 415 482 415 428 466 c 1,43,44
 401 493 401 493 368.5 502.5 c 128,-1,45
 336 512 336 512 285.5 512 c 128,-1,46
 235 512 235 512 204 504.5 c 128,-1,47
 173 497 173 497 145 472.5 c 128,-1,31
 117 448 117 448 104.5 395.5 c 128,-1,32
EndSplineSet
Substitution2: "'smcp' Lowercase to Small Capitals lookup 1 subtable" otilde.smcp
EndChar

StartChar: odieresis
Encoding: 246 246 183
Width: 573
GlyphClass: 2
Flags: W
LayerCount: 2
Fore
SplineSet
144 605 m 128,-1,1
 142 609 142 609 142 615.5 c 128,-1,2
 142 622 142 622 146.5 626.5 c 128,-1,3
 151 631 151 631 158.5 631 c 128,-1,4
 166 631 166 631 171 626.5 c 128,-1,5
 176 622 176 622 176 615.5 c 128,-1,6
 176 609 176 609 173.5 605 c 128,-1,7
 171 601 171 601 167 598.5 c 128,-1,8
 163 596 163 596 158.5 596 c 128,-1,9
 154 596 154 596 150 598.5 c 128,-1,0
 146 601 146 601 144 605 c 128,-1,1
401 601 m 128,-1,11
 396 606 396 606 396 612.5 c 128,-1,12
 396 619 396 619 398 623 c 0,13,14
 403 631 403 631 412 631 c 0,15,16
 430 631 430 631 430 614 c 0,17,18
 430 603 430 603 424 599.5 c 128,-1,19
 418 596 418 596 412 596 c 128,-1,10
 406 596 406 596 401 601 c 128,-1,11
113 53 m 128,-1,21
 68 111 68 111 68 264.5 c 128,-1,22
 68 418 68 418 116 477 c 128,-1,23
 164 536 164 536 287.5 536 c 128,-1,24
 411 536 411 536 458.5 470.5 c 128,-1,25
 506 405 506 405 506 258 c 128,-1,26
 506 111 506 111 458.5 53 c 128,-1,27
 411 -5 411 -5 284.5 -5 c 128,-1,20
 158 -5 158 -5 113 53 c 128,-1,21
104.5 395.5 m 128,-1,29
 92 343 92 343 92 261.5 c 128,-1,30
 92 180 92 180 103.5 131.5 c 128,-1,31
 115 83 115 83 142 59 c 128,-1,32
 169 35 169 35 201 27 c 128,-1,33
 233 19 233 19 285.5 19 c 128,-1,34
 338 19 338 19 371.5 28 c 128,-1,35
 405 37 405 37 432 62 c 1,36,37
 482 111 482 111 482 258 c 0,38,39
 482 415 482 415 428 466 c 1,40,41
 401 493 401 493 368.5 502.5 c 128,-1,42
 336 512 336 512 285.5 512 c 128,-1,43
 235 512 235 512 204 504.5 c 128,-1,44
 173 497 173 497 145 472.5 c 128,-1,28
 117 448 117 448 104.5 395.5 c 128,-1,29
EndSplineSet
Substitution2: "'smcp' Lowercase to Small Capitals lookup 1 subtable" odieresis.smcp
EndChar

StartChar: divide
Encoding: 247 247 184
Width: 551
GlyphClass: 2
Flags: W
LayerCount: 2
Fore
SplineSet
68 341 m 1,0,-1
 68 365 l 1,1,-1
 484 365 l 1,2,-1
 484 341 l 1,3,-1
 68 341 l 1,0,-1
262 159 m 2,4,-1
 262 201 l 2,5,6
 262 213 262 213 274 213 c 2,7,-1
 285 213 l 2,8,9
 297 213 297 213 297 201 c 2,10,-1
 297 159 l 2,11,12
 297 147 297 147 285 147 c 2,13,-1
 274 147 l 2,14,15
 262 147 262 147 262 159 c 2,4,-1
262 494 m 2,16,-1
 262 537 l 2,17,18
 262 549 262 549 274 549 c 2,19,-1
 285 549 l 2,20,21
 297 549 297 549 297 537 c 2,22,-1
 297 494 l 2,23,24
 297 483 297 483 285 483 c 2,25,-1
 274 483 l 2,26,27
 262 483 262 483 262 494 c 2,16,-1
EndSplineSet
EndChar

StartChar: oslash
Encoding: 248 248 185
Width: 573
GlyphClass: 2
Flags: W
LayerCount: 2
Fore
SplineSet
115 50 m 1,0,1
 68 105 68 105 68 261.5 c 128,-1,2
 68 418 68 418 116 477 c 128,-1,3
 164 536 164 536 277.5 536 c 128,-1,4
 391 536 391 536 441 490 c 1,5,-1
 472 531 l 1,6,-1
 490 531 l 1,7,-1
 451 479 l 1,8,9
 506 417 506 417 506 264 c 128,-1,10
 506 111 506 111 458.5 53 c 128,-1,11
 411 -5 411 -5 292.5 -5 c 128,-1,12
 174 -5 174 -5 125 40 c 1,13,-1
 96 0 l 1,14,-1
 78 0 l 1,15,-1
 115 50 l 1,0,1
92 258 m 0,16,17
 92 125 92 125 131 72 c 1,18,-1
 427 471 l 1,19,20
 386 512 386 512 286 512 c 0,21,22
 235 512 235 512 204 504.5 c 128,-1,23
 173 497 173 497 145 472 c 0,24,25
 92 425 92 425 92 258 c 0,16,17
286 19 m 0,26,27
 338 19 338 19 371 27.5 c 128,-1,28
 404 36 404 36 431 61 c 0,29,30
 482 108 482 108 482 254.5 c 128,-1,31
 482 401 482 401 436 460 c 1,32,-1
 140 60 l 1,33,34
 180 19 180 19 286 19 c 0,26,27
EndSplineSet
Substitution2: "'smcp' Lowercase to Small Capitals lookup 1 subtable" oslash.smcp
EndChar

StartChar: ugrave
Encoding: 249 249 186
Width: 552
GlyphClass: 2
Flags: W
LayerCount: 2
Fore
SplineSet
130 729 m 1,0,-1
 156 729 l 1,1,-1
 277 596 l 1,2,-1
 263 596 l 1,3,-1
 130 729 l 1,0,-1
68 162 m 2,4,-1
 68 532 l 1,5,-1
 92 532 l 1,6,-1
 92 162 l 2,7,8
 92 100 92 100 130 58 c 128,-1,9
 168 16 168 16 231 16 c 128,-1,10
 294 16 294 16 341 30 c 128,-1,11
 388 44 388 44 448 77 c 1,12,-1
 448 532 l 1,13,-1
 472 532 l 1,14,-1
 472 1 l 1,15,-1
 458 1 l 1,16,-1
 448 63 l 1,17,18
 340 -8 340 -8 232 -8 c 0,19,20
 156 -8 156 -8 112 42 c 128,-1,21
 68 92 68 92 68 162 c 2,4,-1
EndSplineSet
AlternateSubs2: "'salt' Stylistic Alternatives in Latin lookup 16 subtable" ugrave.salt
Substitution2: "'smcp' Lowercase to Small Capitals lookup 1 subtable" ugrave.smcp
EndChar

StartChar: uacute
Encoding: 250 250 187
Width: 552
GlyphClass: 2
Flags: W
LayerCount: 2
Fore
SplineSet
263 596 m 1,0,-1
 384 729 l 1,1,-1
 410 729 l 1,2,-1
 277 596 l 1,3,-1
 263 596 l 1,0,-1
68 162 m 2,4,-1
 68 532 l 1,5,-1
 92 532 l 1,6,-1
 92 162 l 2,7,8
 92 100 92 100 130 58 c 128,-1,9
 168 16 168 16 231 16 c 128,-1,10
 294 16 294 16 341 30 c 128,-1,11
 388 44 388 44 448 77 c 1,12,-1
 448 532 l 1,13,-1
 472 532 l 1,14,-1
 472 1 l 1,15,-1
 458 1 l 1,16,-1
 448 63 l 1,17,18
 340 -8 340 -8 232 -8 c 0,19,20
 156 -8 156 -8 112 42 c 128,-1,21
 68 92 68 92 68 162 c 2,4,-1
EndSplineSet
AlternateSubs2: "'salt' Stylistic Alternatives in Latin lookup 16 subtable" uacute.salt
Substitution2: "'smcp' Lowercase to Small Capitals lookup 1 subtable" uacute.smcp
EndChar

StartChar: ucircumflex
Encoding: 251 251 188
Width: 552
GlyphClass: 2
Flags: W
LayerCount: 2
Fore
SplineSet
134 596 m 1,0,-1
 266 726 l 1,1,-1
 286 726 l 1,2,-1
 406 596 l 1,3,-1
 388 596 l 1,4,-1
 276 711 l 1,5,-1
 152 596 l 1,6,-1
 134 596 l 1,0,-1
68 162 m 2,7,-1
 68 532 l 1,8,-1
 92 532 l 1,9,-1
 92 162 l 2,10,11
 92 100 92 100 130 58 c 128,-1,12
 168 16 168 16 231 16 c 128,-1,13
 294 16 294 16 341 30 c 128,-1,14
 388 44 388 44 448 77 c 1,15,-1
 448 532 l 1,16,-1
 472 532 l 1,17,-1
 472 1 l 1,18,-1
 458 1 l 1,19,-1
 448 63 l 1,20,21
 340 -8 340 -8 232 -8 c 0,22,23
 156 -8 156 -8 112 42 c 128,-1,24
 68 92 68 92 68 162 c 2,7,-1
EndSplineSet
AlternateSubs2: "'salt' Stylistic Alternatives in Latin lookup 16 subtable" ucircumflex.salt
Substitution2: "'smcp' Lowercase to Small Capitals lookup 1 subtable" ucircumflex.smcp
EndChar

StartChar: udieresis
Encoding: 252 252 189
Width: 552
GlyphClass: 2
Flags: W
LayerCount: 2
Fore
SplineSet
126 614 m 128,-1,1
 126 622 126 622 130.5 626.5 c 128,-1,2
 135 631 135 631 142.5 631 c 128,-1,3
 150 631 150 631 155 626.5 c 128,-1,4
 160 622 160 622 160 615.5 c 128,-1,5
 160 609 160 609 157 605 c 1,6,7
 153 596 153 596 144 596 c 128,-1,8
 135 596 135 596 130.5 601 c 128,-1,0
 126 606 126 606 126 614 c 128,-1,1
385 601 m 128,-1,10
 380 606 380 606 380 612.5 c 128,-1,11
 380 619 380 619 382 623 c 0,12,13
 387 631 387 631 396 631 c 0,14,15
 414 631 414 631 414 614 c 0,16,17
 414 603 414 603 408 599.5 c 128,-1,18
 402 596 402 596 396 596 c 128,-1,9
 390 596 390 596 385 601 c 128,-1,10
68 162 m 2,19,-1
 68 532 l 1,20,-1
 92 532 l 1,21,-1
 92 162 l 2,22,23
 92 100 92 100 130 58 c 128,-1,24
 168 16 168 16 231 16 c 128,-1,25
 294 16 294 16 341 30 c 128,-1,26
 388 44 388 44 448 77 c 1,27,-1
 448 532 l 1,28,-1
 472 532 l 1,29,-1
 472 1 l 1,30,-1
 458 1 l 1,31,-1
 448 63 l 1,32,33
 340 -8 340 -8 232 -8 c 0,34,35
 156 -8 156 -8 112 42 c 128,-1,36
 68 92 68 92 68 162 c 2,19,-1
EndSplineSet
AlternateSubs2: "'salt' Stylistic Alternatives in Latin lookup 16 subtable" udieresis.salt
Substitution2: "'smcp' Lowercase to Small Capitals lookup 1 subtable" udieresis.smcp
EndChar

StartChar: yacute
Encoding: 253 253 190
Width: 529
GlyphClass: 2
Flags: W
LayerCount: 2
Fore
SplineSet
256 596 m 1,0,-1
 378 729 l 1,1,-1
 404 729 l 1,2,-1
 270 596 l 1,3,-1
 256 596 l 1,0,-1
28 531 m 1,4,-1
 54 531 l 1,5,-1
 202 116 l 2,6,7
 235 25 235 25 303 25 c 1,8,-1
 474 531 l 1,9,-1
 499 531 l 1,10,-1
 266 -168 l 1,11,-1
 220 -270 l 1,12,-1
 208 -270 l 1,13,-1
 295 0 l 1,14,15
 211 4 211 4 178 110 c 1,16,-1
 28 531 l 1,4,-1
EndSplineSet
Substitution2: "'smcp' Lowercase to Small Capitals lookup 1 subtable" yacute.smcp
EndChar

StartChar: thorn
Encoding: 254 254 191
Width: 562
GlyphClass: 2
Flags: W
LayerCount: 2
Fore
SplineSet
94 -270 m 1,0,-1
 94 782 l 1,1,-1
 118 782 l 1,2,-1
 118 471 l 1,3,4
 142 489 142 489 215 514.5 c 128,-1,5
 288 540 288 540 335.5 540 c 128,-1,6
 383 540 383 540 418.5 517 c 128,-1,7
 454 494 454 494 472 454 c 0,8,9
 508 377 508 377 508 267 c 0,10,11
 508 114 508 114 462 48 c 0,12,13
 444 23 444 23 411 6.5 c 128,-1,14
 378 -10 378 -10 336 -10 c 128,-1,15
 294 -10 294 -10 228 0.5 c 128,-1,16
 162 11 162 11 118 29 c 1,17,-1
 118 -270 l 1,18,-1
 94 -270 l 1,0,-1
334 14 m 0,19,20
 414 14 414 14 449 75 c 128,-1,21
 484 136 484 136 484 265 c 128,-1,22
 484 394 484 394 443.5 455 c 128,-1,23
 403 516 403 516 334 516 c 0,24,25
 321 516 321 516 306 514 c 128,-1,26
 291 512 291 512 279.5 510.5 c 128,-1,27
 268 509 268 509 250 503.5 c 128,-1,28
 232 498 232 498 223.5 495.5 c 128,-1,29
 215 493 215 493 194 485.5 c 128,-1,30
 173 478 173 478 168.5 476.5 c 128,-1,31
 164 475 164 475 141.5 466 c 128,-1,32
 119 457 119 457 118 457 c 1,33,-1
 118 43 l 1,34,35
 221 14 221 14 334 14 c 0,19,20
EndSplineSet
Substitution2: "'smcp' Lowercase to Small Capitals lookup 1 subtable" thorn.smcp
EndChar

StartChar: ydieresis
Encoding: 255 255 192
Width: 529
GlyphClass: 2
Flags: W
LayerCount: 2
Fore
SplineSet
136 596 m 128,-1,1
 119 596 119 596 119 613.5 c 128,-1,2
 119 631 119 631 136 631 c 128,-1,3
 153 631 153 631 153 613.5 c 128,-1,0
 153 596 153 596 136 596 c 128,-1,1
373 614 m 0,4,5
 373 631 373 631 390.5 631 c 128,-1,6
 408 631 408 631 408 613.5 c 128,-1,7
 408 596 408 596 391 596 c 0,8,9
 384 596 384 596 378.5 601 c 128,-1,10
 373 606 373 606 373 614 c 0,4,5
28 531 m 1,11,-1
 54 531 l 1,12,-1
 202 116 l 2,13,14
 235 25 235 25 303 25 c 1,15,-1
 474 531 l 1,16,-1
 499 531 l 1,17,-1
 266 -168 l 1,18,-1
 220 -270 l 1,19,-1
 208 -270 l 1,20,-1
 295 0 l 1,21,22
 211 4 211 4 178 110 c 1,23,-1
 28 531 l 1,11,-1
EndSplineSet
Substitution2: "'smcp' Lowercase to Small Capitals lookup 1 subtable" ydieresis.smcp
EndChar

StartChar: Amacron
Encoding: 256 256 193
Width: 659
GlyphClass: 2
Flags: W
LayerCount: 2
Fore
SplineSet
226 797 m 1,0,-1
 226 812 l 1,1,-1
 478 812 l 1,2,-1
 478 797 l 1,3,-1
 226 797 l 1,0,-1
61 0 m 1,4,-1
 335 732 l 1,5,-1
 369 732 l 1,6,-1
 631 0 l 1,7,-1
 605 0 l 1,8,-1
 514 253 l 1,9,-1
 181 253 l 1,10,-1
 87 0 l 1,11,-1
 61 0 l 1,4,-1
190 277 m 1,12,-1
 505 277 l 1,13,-1
 352 708 l 1,14,-1
 190 277 l 1,12,-1
EndSplineSet
Substitution2: "'c2sc' Capitals to Small Capitals in Latin lookup 2 subtable" amacron.smcp
EndChar

StartChar: amacron
Encoding: 257 257 194
Width: 520
GlyphClass: 2
Flags: W
LayerCount: 2
Fore
SplineSet
139 601 m 1,0,-1
 139 616 l 1,1,-1
 391 616 l 1,2,-1
 391 601 l 1,3,-1
 139 601 l 1,0,-1
71 510 m 1,4,5
 197 541 197 541 303 541 c 0,6,7
 368 541 368 541 410.5 503 c 128,-1,8
 453 465 453 465 453 387 c 2,9,-1
 453 0 l 1,10,-1
 438 0 l 1,11,-1
 429 64 l 1,12,-1
 413 57 l 2,13,14
 269 -6 269 -6 187 -6 c 0,15,16
 130 -6 130 -6 92 29 c 128,-1,17
 54 64 54 64 54 126 c 2,18,-1
 54 187 l 2,19,20
 54 250 54 250 89.5 285 c 128,-1,21
 125 320 125 320 187 320 c 0,22,23
 308 320 308 320 368.5 320 c 128,-1,24
 429 320 429 320 429 320 c 1,25,26
 430 353 430 353 430 369.5 c 128,-1,27
 430 386 430 386 429 387 c 1,28,29
 429 519 429 519 293 519 c 0,30,31
 221 519 221 519 71 496 c 1,32,-1
 71 510 l 1,4,5
78 131 m 2,33,34
 78 73 78 73 110 46 c 0,35,36
 144 18 144 18 185.5 18 c 128,-1,37
 227 18 227 18 285.5 32.5 c 128,-1,38
 344 47 344 47 386 62 c 2,39,-1
 429 78 l 1,40,-1
 429 306 l 1,41,-1
 187 296 l 2,42,43
 78 292 78 292 78 187 c 2,44,-1
 78 131 l 2,33,34
EndSplineSet
AlternateSubs2: "'salt' Stylistic Alternatives in Latin lookup 16 subtable" amacron.salt
Substitution2: "'smcp' Lowercase to Small Capitals lookup 1 subtable" amacron.smcp
EndChar

StartChar: Abreve
Encoding: 258 258 195
Width: 659
GlyphClass: 2
Flags: W
LayerCount: 2
Fore
SplineSet
245 911 m 1,0,-1
 259 911 l 1,1,2
 259 869 259 869 288 840 c 128,-1,3
 317 811 317 811 356 811 c 0,4,5
 402 811 402 811 431.5 839.5 c 128,-1,6
 461 868 461 868 461 911 c 1,7,-1
 475 911 l 1,8,9
 475 858 475 858 439.5 827.5 c 128,-1,10
 404 797 404 797 359.5 797 c 128,-1,11
 315 797 315 797 280 828.5 c 128,-1,12
 245 860 245 860 245 911 c 1,0,-1
61 0 m 1,13,-1
 335 732 l 1,14,-1
 369 732 l 1,15,-1
 631 0 l 1,16,-1
 605 0 l 1,17,-1
 514 253 l 1,18,-1
 181 253 l 1,19,-1
 87 0 l 1,20,-1
 61 0 l 1,13,-1
190 277 m 1,21,-1
 505 277 l 1,22,-1
 352 708 l 1,23,-1
 190 277 l 1,21,-1
EndSplineSet
Substitution2: "'c2sc' Capitals to Small Capitals in Latin lookup 2 subtable" abreve.smcp
EndChar

StartChar: abreve
Encoding: 259 259 196
Width: 520
GlyphClass: 2
Flags: W
LayerCount: 2
Fore
SplineSet
155 715 m 1,0,-1
 169 715 l 1,1,2
 169 673 169 673 198.5 644 c 128,-1,3
 228 615 228 615 267 615 c 0,4,5
 313 615 313 615 342 643.5 c 128,-1,6
 371 672 371 672 371 715 c 1,7,-1
 385 715 l 1,8,9
 385 662 385 662 350 631.5 c 128,-1,10
 315 601 315 601 270 601 c 128,-1,11
 225 601 225 601 190 632.5 c 128,-1,12
 155 664 155 664 155 715 c 1,0,-1
71 510 m 1,13,14
 197 541 197 541 303 541 c 0,15,16
 368 541 368 541 410.5 503 c 128,-1,17
 453 465 453 465 453 387 c 2,18,-1
 453 0 l 1,19,-1
 438 0 l 1,20,-1
 429 64 l 1,21,-1
 413 57 l 2,22,23
 269 -6 269 -6 187 -6 c 0,24,25
 130 -6 130 -6 92 29 c 128,-1,26
 54 64 54 64 54 126 c 2,27,-1
 54 187 l 2,28,29
 54 250 54 250 89.5 285 c 128,-1,30
 125 320 125 320 187 320 c 0,31,32
 308 320 308 320 368.5 320 c 128,-1,33
 429 320 429 320 429 320 c 1,34,35
 430 353 430 353 430 369.5 c 128,-1,36
 430 386 430 386 429 387 c 1,37,38
 429 519 429 519 293 519 c 0,39,40
 221 519 221 519 71 496 c 1,41,-1
 71 510 l 1,13,14
78 131 m 2,42,43
 78 73 78 73 110 46 c 0,44,45
 144 18 144 18 185.5 18 c 128,-1,46
 227 18 227 18 285.5 32.5 c 128,-1,47
 344 47 344 47 386 62 c 2,48,-1
 429 78 l 1,49,-1
 429 306 l 1,50,-1
 187 296 l 2,51,52
 78 292 78 292 78 187 c 2,53,-1
 78 131 l 2,42,43
EndSplineSet
Substitution2: "'smcp' Lowercase to Small Capitals lookup 1 subtable" abreve.smcp
EndChar

StartChar: Aogonek
Encoding: 260 260 197
Width: 659
GlyphClass: 2
Flags: W
LayerCount: 2
Fore
SplineSet
625 0 m 1,0,1
 593 -13 593 -13 571.5 -36.5 c 128,-1,2
 550 -60 550 -60 550 -95 c 0,3,4
 550 -106 550 -106 558 -124.5 c 128,-1,5
 566 -143 566 -143 592 -155 c 128,-1,6
 618 -167 618 -167 652 -167 c 0,7,8
 655 -167 655 -167 657 -167 c 1,9,-1
 657 -181 l 1,10,11
 647 -182 647 -182 631 -182 c 128,-1,12
 615 -182 615 -182 589.5 -173 c 128,-1,13
 564 -164 564 -164 549 -143 c 0,14,15
 531 -118 531 -118 531 -93.5 c 128,-1,16
 531 -69 531 -69 550.5 -44 c 128,-1,17
 570 -19 570 -19 613 0 c 1,18,-1
 625 0 l 1,0,1
61 0 m 1,19,-1
 335 732 l 1,20,-1
 369 732 l 1,21,-1
 631 0 l 1,22,-1
 605 0 l 1,23,-1
 514 253 l 1,24,-1
 181 253 l 1,25,-1
 87 0 l 1,26,-1
 61 0 l 1,19,-1
190 277 m 1,27,-1
 505 277 l 1,28,-1
 352 708 l 1,29,-1
 190 277 l 1,27,-1
EndSplineSet
Substitution2: "'c2sc' Capitals to Small Capitals in Latin lookup 2 subtable" aogonek.smcp
EndChar

StartChar: aogonek
Encoding: 261 261 198
Width: 561
GlyphClass: 2
Flags: W
LayerCount: 2
Fore
SplineSet
426 -146.5 m 128,-1,1
 456 -167 456 -167 499 -167 c 0,2,3
 502 -167 502 -167 504 -167 c 1,4,-1
 504 -181 l 1,5,6
 494 -182 494 -182 474 -182 c 128,-1,7
 454 -182 454 -182 424.5 -166 c 128,-1,8
 395 -150 395 -150 382 -122 c 0,9,10
 377 -110 377 -110 377 -94.5 c 128,-1,11
 377 -79 377 -79 388 -58 c 0,12,13
 407 -23 407 -23 460 0 c 1,14,-1
 472 0 l 1,15,16
 432 -16 432 -16 414 -43.5 c 128,-1,17
 396 -71 396 -71 396 -98.5 c 128,-1,0
 396 -126 396 -126 426 -146.5 c 128,-1,1
90 510 m 1,18,19
 216 541 216 541 322 541 c 0,20,21
 387 541 387 541 429.5 503 c 128,-1,22
 472 465 472 465 472 387 c 2,23,-1
 472 0 l 1,24,-1
 457 0 l 1,25,-1
 448 64 l 1,26,-1
 432 57 l 2,27,28
 288 -6 288 -6 206 -6 c 0,29,30
 149 -6 149 -6 111 29 c 128,-1,31
 73 64 73 64 73 126 c 2,32,-1
 73 187 l 2,33,34
 73 250 73 250 108.5 285 c 128,-1,35
 144 320 144 320 206 320 c 0,36,37
 327 320 327 320 387.5 320 c 128,-1,38
 448 320 448 320 448 320 c 1,39,40
 448 353 448 353 448 369.5 c 128,-1,41
 448 386 448 386 448 387 c 0,42,43
 448 519 448 519 312 519 c 0,44,45
 240 519 240 519 90 496 c 1,46,-1
 90 510 l 1,18,19
97 131 m 2,47,48
 97 73 97 73 130 46 c 0,49,50
 163 18 163 18 204.5 18 c 128,-1,51
 246 18 246 18 304.5 32.5 c 128,-1,52
 363 47 363 47 406 62 c 1,53,-1
 448 78 l 1,54,-1
 448 306 l 1,55,-1
 206 296 l 2,56,57
 97 292 97 292 97 187 c 2,58,-1
 97 131 l 2,47,48
EndSplineSet
AlternateSubs2: "'salt' Stylistic Alternatives in Latin lookup 16 subtable" aogonek.salt
Substitution2: "'smcp' Lowercase to Small Capitals lookup 1 subtable" aogonek.smcp
EndChar

StartChar: Cacute
Encoding: 262 262 199
Width: 570
GlyphClass: 2
Flags: W
LayerCount: 2
Fore
SplineSet
317 800 m 1,0,-1
 438 933 l 1,1,-1
 464 933 l 1,2,-1
 331 800 l 1,3,-1
 317 800 l 1,0,-1
74 368 m 0,4,5
 74 461 74 461 83.5 524.5 c 128,-1,6
 93 588 93 588 119 640 c 0,7,8
 170 740 170 740 317 740 c 0,9,10
 402 740 402 740 531 716 c 1,11,-1
 531 702 l 1,12,13
 517 704 517 704 504.5 705 c 128,-1,14
 492 706 492 706 475.5 707.5 c 128,-1,15
 459 709 459 709 439.5 710.5 c 128,-1,16
 420 712 420 712 400 713 c 0,17,18
 340 716 340 716 317 716 c 0,19,20
 239 716 239 716 194 688 c 0,21,22
 98 628 98 628 98 366 c 0,23,24
 98 18 98 18 318 18 c 0,25,26
 411 18 411 18 501 27 c 2,27,-1
 531 30 l 1,28,-1
 531 16 l 1,29,30
 413 -6 413 -6 317 -6 c 0,31,32
 74 -6 74 -6 74 368 c 0,4,5
EndSplineSet
Substitution2: "'c2sc' Capitals to Small Capitals in Latin lookup 2 subtable" cacute.smcp
EndChar

StartChar: cacute
Encoding: 263 263 200
Width: 501
GlyphClass: 2
Flags: W
LayerCount: 2
Fore
SplineSet
265 596 m 1,0,-1
 386 729 l 1,1,-1
 412 729 l 1,2,-1
 279 596 l 1,3,-1
 265 596 l 1,0,-1
68 266 m 128,-1,5
 68 350 68 350 80 405.5 c 128,-1,6
 92 461 92 461 117 488.5 c 128,-1,7
 142 516 142 516 171 526 c 128,-1,8
 200 536 200 536 262.5 536 c 128,-1,9
 325 536 325 536 440 510 c 1,10,-1
 440 496 l 1,11,12
 331 512 331 512 267.5 512 c 128,-1,13
 204 512 204 512 179.5 503 c 128,-1,14
 155 494 155 494 134 468 c 0,15,16
 92 419 92 419 92 262 c 0,17,18
 92 114 92 114 136 63 c 0,19,20
 157 38 157 38 182 28.5 c 128,-1,21
 207 19 207 19 245 19 c 0,22,23
 318 19 318 19 417 35 c 2,24,-1
 448 40 l 1,25,-1
 448 24 l 1,26,27
 350 -4 350 -4 242 -5 c 0,28,29
 201 -5 201 -5 172.5 5 c 128,-1,30
 144 15 144 15 118.5 42.5 c 128,-1,31
 93 70 93 70 80.5 126 c 128,-1,4
 68 182 68 182 68 266 c 128,-1,5
EndSplineSet
Substitution2: "'smcp' Lowercase to Small Capitals lookup 1 subtable" cacute.smcp
EndChar

StartChar: Ccircumflex
Encoding: 264 264 201
Width: 570
GlyphClass: 2
Flags: W
LayerCount: 2
Fore
SplineSet
198 800 m 1,0,-1
 330 930 l 1,1,-1
 350 930 l 1,2,-1
 470 800 l 1,3,-1
 452 800 l 1,4,-1
 340 915 l 1,5,-1
 216 800 l 1,6,-1
 198 800 l 1,0,-1
74 368 m 0,7,8
 74 461 74 461 83.5 524.5 c 128,-1,9
 93 588 93 588 119 640 c 0,10,11
 170 740 170 740 317 740 c 0,12,13
 402 740 402 740 531 716 c 1,14,-1
 531 702 l 1,15,16
 517 704 517 704 504.5 705 c 128,-1,17
 492 706 492 706 475.5 707.5 c 128,-1,18
 459 709 459 709 439.5 710.5 c 128,-1,19
 420 712 420 712 400 713 c 0,20,21
 340 716 340 716 317 716 c 0,22,23
 239 716 239 716 194 688 c 0,24,25
 98 628 98 628 98 366 c 0,26,27
 98 18 98 18 318 18 c 0,28,29
 411 18 411 18 501 27 c 2,30,-1
 531 30 l 1,31,-1
 531 16 l 1,32,33
 413 -6 413 -6 317 -6 c 0,34,35
 74 -6 74 -6 74 368 c 0,7,8
EndSplineSet
Substitution2: "'c2sc' Capitals to Small Capitals in Latin lookup 2 subtable" ccircumflex.smcp
EndChar

StartChar: ccircumflex
Encoding: 265 265 202
Width: 501
GlyphClass: 2
Flags: W
LayerCount: 2
Fore
SplineSet
133 596 m 1,0,-1
 265 726 l 1,1,-1
 285 726 l 1,2,-1
 405 596 l 1,3,-1
 387 596 l 1,4,-1
 275 711 l 1,5,-1
 151 596 l 1,6,-1
 133 596 l 1,0,-1
68 266 m 128,-1,8
 68 350 68 350 80 405.5 c 128,-1,9
 92 461 92 461 117 488.5 c 128,-1,10
 142 516 142 516 171 526 c 128,-1,11
 200 536 200 536 262.5 536 c 128,-1,12
 325 536 325 536 440 510 c 1,13,-1
 440 496 l 1,14,15
 331 512 331 512 267.5 512 c 128,-1,16
 204 512 204 512 179.5 503 c 128,-1,17
 155 494 155 494 134 468 c 0,18,19
 92 419 92 419 92 262 c 0,20,21
 92 114 92 114 136 63 c 0,22,23
 157 38 157 38 182 28.5 c 128,-1,24
 207 19 207 19 245 19 c 0,25,26
 318 19 318 19 417 35 c 2,27,-1
 448 40 l 1,28,-1
 448 24 l 1,29,30
 350 -4 350 -4 242 -5 c 0,31,32
 201 -5 201 -5 172.5 5 c 128,-1,33
 144 15 144 15 118.5 42.5 c 128,-1,34
 93 70 93 70 80.5 126 c 128,-1,7
 68 182 68 182 68 266 c 128,-1,8
EndSplineSet
Substitution2: "'smcp' Lowercase to Small Capitals lookup 1 subtable" ccircumflex.smcp
EndChar

StartChar: Cdotaccent
Encoding: 266 266 203
Width: 570
GlyphClass: 2
Flags: W
LayerCount: 2
Fore
SplineSet
330 812 m 2,0,-1
 330 874 l 2,1,2
 330 886 330 886 342 886 c 2,3,-1
 352 886 l 2,4,5
 364 886 364 886 364 874 c 2,6,-1
 364 812 l 2,7,8
 364 800 364 800 352 800 c 2,9,-1
 342 800 l 2,10,11
 330 800 330 800 330 812 c 2,0,-1
74 368 m 0,12,13
 74 461 74 461 83.5 524.5 c 128,-1,14
 93 588 93 588 119 640 c 0,15,16
 170 740 170 740 317 740 c 0,17,18
 402 740 402 740 531 716 c 1,19,-1
 531 702 l 1,20,21
 517 704 517 704 504.5 705 c 128,-1,22
 492 706 492 706 475.5 707.5 c 128,-1,23
 459 709 459 709 439.5 710.5 c 128,-1,24
 420 712 420 712 400 713 c 0,25,26
 340 716 340 716 317 716 c 0,27,28
 239 716 239 716 194 688 c 0,29,30
 98 628 98 628 98 366 c 0,31,32
 98 18 98 18 318 18 c 0,33,34
 411 18 411 18 501 27 c 2,35,-1
 531 30 l 1,36,-1
 531 16 l 1,37,38
 413 -6 413 -6 317 -6 c 0,39,40
 74 -6 74 -6 74 368 c 0,12,13
EndSplineSet
Substitution2: "'c2sc' Capitals to Small Capitals in Latin lookup 2 subtable" cdotaccent.smcp
EndChar

StartChar: cdotaccent
Encoding: 267 267 204
Width: 501
GlyphClass: 2
Flags: W
LayerCount: 2
Fore
SplineSet
258 608 m 2,0,-1
 258 670 l 2,1,2
 258 682 258 682 270 682 c 2,3,-1
 282 682 l 2,4,5
 294 682 294 682 294 670 c 2,6,-1
 294 608 l 2,7,8
 294 596 294 596 282 596 c 2,9,-1
 270 596 l 2,10,11
 258 596 258 596 258 608 c 2,0,-1
68 266 m 128,-1,13
 68 350 68 350 80 405.5 c 128,-1,14
 92 461 92 461 117 488.5 c 128,-1,15
 142 516 142 516 171 526 c 128,-1,16
 200 536 200 536 262.5 536 c 128,-1,17
 325 536 325 536 440 510 c 1,18,-1
 440 496 l 1,19,20
 331 512 331 512 267.5 512 c 128,-1,21
 204 512 204 512 179.5 503 c 128,-1,22
 155 494 155 494 134 468 c 0,23,24
 92 419 92 419 92 262 c 0,25,26
 92 114 92 114 136 63 c 0,27,28
 157 38 157 38 182 28.5 c 128,-1,29
 207 19 207 19 245 19 c 0,30,31
 318 19 318 19 417 35 c 2,32,-1
 448 40 l 1,33,-1
 448 24 l 1,34,35
 350 -4 350 -4 242 -5 c 0,36,37
 201 -5 201 -5 172.5 5 c 128,-1,38
 144 15 144 15 118.5 42.5 c 128,-1,39
 93 70 93 70 80.5 126 c 128,-1,12
 68 182 68 182 68 266 c 128,-1,13
EndSplineSet
Substitution2: "'smcp' Lowercase to Small Capitals lookup 1 subtable" cdotaccent.smcp
EndChar

StartChar: Ccaron
Encoding: 268 268 205
Width: 570
GlyphClass: 2
Flags: W
LayerCount: 2
Fore
SplineSet
203 930 m 1,0,-1
 219 930 l 1,1,-1
 332 815 l 1,2,-1
 457 930 l 1,3,-1
 475 930 l 1,4,-1
 343 800 l 1,5,-1
 321 800 l 1,6,-1
 203 930 l 1,0,-1
74 368 m 0,7,8
 74 461 74 461 83.5 524.5 c 128,-1,9
 93 588 93 588 119 640 c 0,10,11
 170 740 170 740 317 740 c 0,12,13
 402 740 402 740 531 716 c 1,14,-1
 531 702 l 1,15,16
 517 704 517 704 504.5 705 c 128,-1,17
 492 706 492 706 475.5 707.5 c 128,-1,18
 459 709 459 709 439.5 710.5 c 128,-1,19
 420 712 420 712 400 713 c 0,20,21
 340 716 340 716 317 716 c 0,22,23
 239 716 239 716 194 688 c 0,24,25
 98 628 98 628 98 366 c 0,26,27
 98 18 98 18 318 18 c 0,28,29
 411 18 411 18 501 27 c 2,30,-1
 531 30 l 1,31,-1
 531 16 l 1,32,33
 413 -6 413 -6 317 -6 c 0,34,35
 74 -6 74 -6 74 368 c 0,7,8
EndSplineSet
Substitution2: "'c2sc' Capitals to Small Capitals in Latin lookup 2 subtable" ccaron.smcp
EndChar

StartChar: ccaron
Encoding: 269 269 206
Width: 501
GlyphClass: 2
Flags: W
LayerCount: 2
Fore
SplineSet
149 726 m 1,0,-1
 165 726 l 1,1,-1
 278 611 l 1,2,-1
 403 726 l 1,3,-1
 421 726 l 1,4,-1
 289 596 l 1,5,-1
 267 596 l 1,6,-1
 149 726 l 1,0,-1
68 266 m 128,-1,8
 68 350 68 350 80 405.5 c 128,-1,9
 92 461 92 461 117 488.5 c 128,-1,10
 142 516 142 516 171 526 c 128,-1,11
 200 536 200 536 262.5 536 c 128,-1,12
 325 536 325 536 440 510 c 1,13,-1
 440 496 l 1,14,15
 331 512 331 512 267.5 512 c 128,-1,16
 204 512 204 512 179.5 503 c 128,-1,17
 155 494 155 494 134 468 c 0,18,19
 92 419 92 419 92 262 c 0,20,21
 92 114 92 114 136 63 c 0,22,23
 157 38 157 38 182 28.5 c 128,-1,24
 207 19 207 19 245 19 c 0,25,26
 318 19 318 19 417 35 c 2,27,-1
 448 40 l 1,28,-1
 448 24 l 1,29,30
 350 -4 350 -4 242 -5 c 0,31,32
 201 -5 201 -5 172.5 5 c 128,-1,33
 144 15 144 15 118.5 42.5 c 128,-1,34
 93 70 93 70 80.5 126 c 128,-1,7
 68 182 68 182 68 266 c 128,-1,8
EndSplineSet
Substitution2: "'smcp' Lowercase to Small Capitals lookup 1 subtable" ccaron.smcp
EndChar

StartChar: Dcaron
Encoding: 270 270 207
Width: 671
GlyphClass: 2
Flags: W
LayerCount: 2
Fore
SplineSet
221 922 m 1,0,-1
 237 922 l 1,1,-1
 350 807 l 1,2,-1
 475 922 l 1,3,-1
 493 922 l 1,4,-1
 361 792 l 1,5,-1
 339 792 l 1,6,-1
 221 922 l 1,0,-1
108 0 m 1,7,-1
 108 732 l 1,8,-1
 361 732 l 2,9,10
 426 732 426 732 474.5 707.5 c 128,-1,11
 523 683 523 683 550 646 c 128,-1,12
 577 609 577 609 594 557 c 0,13,14
 620 473 620 473 620 385.5 c 128,-1,15
 620 298 620 298 605 236 c 128,-1,16
 590 174 590 174 560.5 120 c 128,-1,17
 531 66 531 66 479 33 c 128,-1,18
 427 0 427 0 361 0 c 2,19,-1
 108 0 l 1,7,-1
132 24 m 1,20,-1
 361 24 l 2,21,22
 421 24 421 24 468 56 c 128,-1,23
 515 88 515 88 542 139 c 0,24,25
 596 241 596 241 596 364 c 0,26,27
 596 537 596 537 535.5 622.5 c 128,-1,28
 475 708 475 708 361 708 c 2,29,-1
 132 708 l 1,30,-1
 132 24 l 1,20,-1
EndSplineSet
Substitution2: "'c2sc' Capitals to Small Capitals in Latin lookup 2 subtable" dcaron.smcp
EndChar

StartChar: dcaron
Encoding: 271 271 208
Width: 552
GlyphClass: 2
Flags: W
LayerCount: 2
Fore
SplineSet
68 263 m 0,0,1
 68 539 68 539 252 539 c 0,2,3
 289 539 289 539 347 528 c 128,-1,4
 405 517 405 517 450 499 c 1,5,-1
 450 785 l 1,6,-1
 471 785 l 1,7,-1
 471 0 l 1,8,-1
 458 0 l 1,9,-1
 448 59 l 1,10,11
 426 39 426 39 363 16.5 c 128,-1,12
 300 -6 300 -6 250 -6 c 128,-1,13
 200 -6 200 -6 162.5 18 c 128,-1,14
 125 42 125 42 106 83 c 0,15,16
 68 162 68 162 68 263 c 0,0,1
137 77 m 128,-1,18
 182 18 182 18 252 18 c 0,19,20
 340 18 340 18 448 73 c 1,21,-1
 448 485 l 1,22,23
 333 515 333 515 252 515 c 0,24,25
 217 515 217 515 191 504.5 c 128,-1,26
 165 494 165 494 141 468 c 0,27,28
 92 415 92 415 92 275.5 c 128,-1,17
 92 136 92 136 137 77 c 128,-1,18
535 782 m 1,29,-1
 560 782 l 1,30,-1
 560 715 l 1,31,-1
 554 581 l 1,32,-1
 542 581 l 1,33,-1
 535 715 l 1,34,-1
 535 782 l 1,29,-1
EndSplineSet
AlternateSubs2: "'salt' Stylistic Alternatives in Latin lookup 16 subtable" dcaron.salt
Substitution2: "'smcp' Lowercase to Small Capitals lookup 1 subtable" dcaron.smcp
EndChar

StartChar: Dcroat
Encoding: 272 272 209
Width: 671
GlyphClass: 2
Flags: W
LayerCount: 2
Fore
SplineSet
43 366 m 1,0,-1
 43 380 l 1,1,-1
 108 380 l 1,2,-1
 108 732 l 1,3,-1
 351 732 l 2,4,5
 416 732 416 732 464.5 707.5 c 128,-1,6
 513 683 513 683 540 646 c 128,-1,7
 567 609 567 609 584 557 c 0,8,9
 610 473 610 473 610 385.5 c 128,-1,10
 610 298 610 298 595 236 c 128,-1,11
 580 174 580 174 550.5 120 c 128,-1,12
 521 66 521 66 469 33 c 128,-1,13
 417 0 417 0 351 0 c 2,14,-1
 108 0 l 1,15,-1
 108 366 l 1,16,-1
 43 366 l 1,0,-1
132 24 m 1,17,-1
 351 24 l 2,18,19
 411 24 411 24 458 56 c 128,-1,20
 505 88 505 88 532 139 c 0,21,22
 586 241 586 241 586 364 c 0,23,24
 586 537 586 537 525.5 622.5 c 128,-1,25
 465 708 465 708 351 708 c 2,26,-1
 132 708 l 1,27,-1
 132 380 l 1,28,-1
 291 380 l 1,29,-1
 291 366 l 1,30,-1
 132 366 l 1,31,-1
 132 24 l 1,17,-1
EndSplineSet
Substitution2: "'c2sc' Capitals to Small Capitals in Latin lookup 2 subtable" dcroat.smcp
EndChar

StartChar: dcroat
Encoding: 273 273 210
Width: 552
GlyphClass: 2
Flags: W
LayerCount: 2
Fore
SplineSet
68 263 m 0,0,1
 68 539 68 539 253 539 c 0,2,3
 290 539 290 539 347.5 528 c 128,-1,4
 405 517 405 517 450 499 c 1,5,-1
 450 641 l 1,6,-1
 318 641 l 1,7,-1
 318 655 l 1,8,-1
 450 655 l 1,9,-1
 450 785 l 1,10,-1
 472 785 l 1,11,-1
 472 655 l 1,12,-1
 555 655 l 1,13,-1
 555 641 l 1,14,-1
 472 641 l 1,15,-1
 472 0 l 1,16,-1
 459 0 l 1,17,-1
 449 59 l 1,18,19
 427 39 427 39 364 16.5 c 128,-1,20
 301 -6 301 -6 251 -6 c 128,-1,21
 201 -6 201 -6 163.5 18 c 128,-1,22
 126 42 126 42 106 83 c 0,23,24
 68 161 68 161 68 263 c 0,0,1
136 459.5 m 128,-1,26
 92 404 92 404 92 272 c 128,-1,27
 92 140 92 140 138 79 c 128,-1,28
 184 18 184 18 253 18 c 0,29,30
 341 18 341 18 449 73 c 1,31,-1
 449 485 l 1,32,33
 334 515 334 515 257 515 c 128,-1,25
 180 515 180 515 136 459.5 c 128,-1,26
EndSplineSet
AlternateSubs2: "'salt' Stylistic Alternatives in Latin lookup 16 subtable" dcroat.salt
Substitution2: "'smcp' Lowercase to Small Capitals lookup 1 subtable" dcroat.smcp
EndChar

StartChar: Emacron
Encoding: 274 274 211
Width: 582
GlyphClass: 2
Flags: W
LayerCount: 2
Fore
SplineSet
208 795 m 1,0,-1
 208 810 l 1,1,-1
 460 810 l 1,2,-1
 460 795 l 1,3,-1
 208 795 l 1,0,-1
108 123 m 2,4,-1
 108 602 l 2,5,6
 108 671 108 671 143 701.5 c 128,-1,7
 178 732 178 732 228 732 c 0,8,9
 231 732 231 732 234 732 c 2,10,-1
 531 722 l 1,11,-1
 531 708 l 1,12,-1
 234 708 l 2,13,14
 132 708 132 708 132 602 c 2,15,-1
 132 375 l 1,16,-1
 491 370 l 1,17,-1
 491 356 l 1,18,-1
 132 351 l 1,19,-1
 132 123 l 2,20,21
 132 61 132 61 162 41 c 128,-1,22
 192 21 192 21 244 21 c 2,23,-1
 531 21 l 1,24,-1
 531 7 l 1,25,-1
 245 -3 l 2,26,27
 239 -3 239 -3 226 -3 c 128,-1,28
 213 -3 213 -3 193.5 0.5 c 128,-1,29
 174 4 174 4 152 16 c 0,30,31
 108 42 108 42 108 123 c 2,4,-1
EndSplineSet
Substitution2: "'c2sc' Capitals to Small Capitals in Latin lookup 2 subtable" emacron.smcp
EndChar

StartChar: emacron
Encoding: 275 275 212
Width: 526
GlyphClass: 2
Flags: W
LayerCount: 2
Fore
SplineSet
144 596 m 1,0,-1
 144 611 l 1,1,-1
 396 611 l 1,2,-1
 396 596 l 1,3,-1
 144 596 l 1,0,-1
96 463 m 0,4,5
 119 516 119 516 192 530 c 0,6,7
 222 535 222 535 267 535 c 128,-1,8
 312 535 312 535 338 532.5 c 128,-1,9
 364 530 364 530 392.5 519.5 c 128,-1,10
 421 509 421 509 436 490 c 0,11,12
 472 445 472 445 472 347 c 0,13,14
 472 291 472 291 439 270.5 c 128,-1,15
 406 250 406 250 336 250 c 2,16,-1
 92 250 l 1,17,18
 92 104 92 104 135 58 c 0,19,20
 157 35 157 35 181.5 27 c 128,-1,21
 206 19 206 19 266 19 c 128,-1,22
 326 19 326 19 462 39 c 1,23,-1
 462 23 l 1,24,25
 361 -5 361 -5 250 -5 c 0,26,27
 143 -5 143 -5 105.5 56.5 c 128,-1,28
 68 118 68 118 68 258 c 128,-1,29
 68 398 68 398 96 463 c 0,4,5
92 273 m 1,30,-1
 336 273 l 2,31,32
 420 273 420 273 439 306 c 0,33,34
 448 322 448 322 448 362 c 128,-1,35
 448 402 448 402 437.5 435.5 c 128,-1,36
 427 469 427 469 402 485.5 c 128,-1,37
 377 502 377 502 348.5 506.5 c 128,-1,38
 320 511 320 511 258 511 c 128,-1,39
 196 511 196 511 160.5 494.5 c 128,-1,40
 125 478 125 478 108.5 428 c 128,-1,41
 92 378 92 378 92 273 c 1,30,-1
EndSplineSet
Substitution2: "'smcp' Lowercase to Small Capitals lookup 1 subtable" emacron.smcp
EndChar

StartChar: Edotaccent
Encoding: 278 278 213
Width: 582
GlyphClass: 2
Flags: W
LayerCount: 2
Fore
SplineSet
317 809 m 2,0,-1
 317 871 l 2,1,2
 317 883 317 883 329 883 c 2,3,-1
 340 883 l 2,4,5
 352 883 352 883 352 871 c 2,6,-1
 352 809 l 2,7,8
 352 797 352 797 340 797 c 2,9,-1
 329 797 l 2,10,11
 317 797 317 797 317 809 c 2,0,-1
108 123 m 2,12,-1
 108 602 l 2,13,14
 108 671 108 671 143 701.5 c 128,-1,15
 178 732 178 732 228 732 c 0,16,17
 231 732 231 732 234 732 c 2,18,-1
 531 722 l 1,19,-1
 531 708 l 1,20,-1
 234 708 l 2,21,22
 132 708 132 708 132 602 c 2,23,-1
 132 375 l 1,24,-1
 491 370 l 1,25,-1
 491 356 l 1,26,-1
 132 351 l 1,27,-1
 132 123 l 2,28,29
 132 61 132 61 162 41 c 128,-1,30
 192 21 192 21 244 21 c 2,31,-1
 531 21 l 1,32,-1
 531 7 l 1,33,-1
 245 -3 l 2,34,35
 239 -3 239 -3 226 -3 c 128,-1,36
 213 -3 213 -3 193.5 0.5 c 128,-1,37
 174 4 174 4 152 16 c 0,38,39
 108 42 108 42 108 123 c 2,12,-1
EndSplineSet
Substitution2: "'c2sc' Capitals to Small Capitals in Latin lookup 2 subtable" edotaccent.smcp
EndChar

StartChar: edotaccent
Encoding: 279 279 214
Width: 526
GlyphClass: 2
Flags: W
LayerCount: 2
Fore
SplineSet
272 608 m 2,0,-1
 272 670 l 2,1,2
 272 682 272 682 284 682 c 2,3,-1
 296 682 l 2,4,5
 308 682 308 682 308 670 c 2,6,-1
 308 608 l 2,7,8
 308 596 308 596 296 596 c 2,9,-1
 284 596 l 2,10,11
 272 596 272 596 272 608 c 2,0,-1
96 463 m 0,12,13
 119 516 119 516 192 530 c 0,14,15
 222 535 222 535 267 535 c 128,-1,16
 312 535 312 535 338 532.5 c 128,-1,17
 364 530 364 530 392.5 519.5 c 128,-1,18
 421 509 421 509 436 490 c 0,19,20
 472 445 472 445 472 347 c 0,21,22
 472 291 472 291 439 270.5 c 128,-1,23
 406 250 406 250 336 250 c 2,24,-1
 92 250 l 1,25,26
 92 104 92 104 135 58 c 0,27,28
 157 35 157 35 181.5 27 c 128,-1,29
 206 19 206 19 266 19 c 128,-1,30
 326 19 326 19 462 39 c 1,31,-1
 462 23 l 1,32,33
 361 -5 361 -5 250 -5 c 0,34,35
 143 -5 143 -5 105.5 56.5 c 128,-1,36
 68 118 68 118 68 258 c 128,-1,37
 68 398 68 398 96 463 c 0,12,13
92 273 m 1,38,-1
 336 273 l 2,39,40
 420 273 420 273 439 306 c 0,41,42
 448 322 448 322 448 362 c 128,-1,43
 448 402 448 402 437.5 435.5 c 128,-1,44
 427 469 427 469 402 485.5 c 128,-1,45
 377 502 377 502 348.5 506.5 c 128,-1,46
 320 511 320 511 258 511 c 128,-1,47
 196 511 196 511 160.5 494.5 c 128,-1,48
 125 478 125 478 108.5 428 c 128,-1,49
 92 378 92 378 92 273 c 1,38,-1
EndSplineSet
Substitution2: "'smcp' Lowercase to Small Capitals lookup 1 subtable" edotaccent.smcp
EndChar

StartChar: Eogonek
Encoding: 280 280 215
Width: 582
GlyphClass: 2
Flags: W
LayerCount: 2
Fore
SplineSet
531 8 m 1,0,1
 499 -5 499 -5 477.5 -28.5 c 128,-1,2
 456 -52 456 -52 456 -88 c 0,3,4
 456 -99 456 -99 464 -117 c 128,-1,5
 472 -135 472 -135 498 -147 c 128,-1,6
 524 -159 524 -159 558 -159 c 0,7,8
 561 -159 561 -159 563 -159 c 1,9,-1
 563 -173 l 1,10,11
 553 -175 553 -175 537 -175 c 128,-1,12
 521 -175 521 -175 495.5 -165.5 c 128,-1,13
 470 -156 470 -156 455 -135 c 0,14,15
 437 -110 437 -110 437 -85.5 c 128,-1,16
 437 -61 437 -61 456.5 -36 c 128,-1,17
 476 -11 476 -11 519 8 c 1,18,-1
 531 8 l 1,0,1
108 123 m 2,19,-1
 108 602 l 2,20,21
 108 671 108 671 143 701.5 c 128,-1,22
 178 732 178 732 228 732 c 0,23,24
 231 732 231 732 234 732 c 2,25,-1
 531 722 l 1,26,-1
 531 708 l 1,27,-1
 234 708 l 2,28,29
 132 708 132 708 132 602 c 2,30,-1
 132 375 l 1,31,-1
 491 370 l 1,32,-1
 491 356 l 1,33,-1
 132 351 l 1,34,-1
 132 123 l 2,35,36
 132 61 132 61 162 41 c 128,-1,37
 192 21 192 21 244 21 c 2,38,-1
 531 21 l 1,39,-1
 531 7 l 1,40,-1
 245 -3 l 2,41,42
 239 -3 239 -3 226 -3 c 128,-1,43
 213 -3 213 -3 193.5 0.5 c 128,-1,44
 174 4 174 4 152 16 c 0,45,46
 108 42 108 42 108 123 c 2,19,-1
EndSplineSet
Substitution2: "'c2sc' Capitals to Small Capitals in Latin lookup 2 subtable" eogonek.smcp
EndChar

